<svg width="1104" height="629" viewBox="0 0 1104 629" fill="none" xmlns="http://www.w3.org/2000/svg">
<path d="M530.272 95.2104C538.926 184.465 579.532 217.857 668.906 209.209L574.216 324.054C565.561 234.799 524.955 201.407 435.582 210.056L530.272 95.2104Z" fill="#67BCFA"/>
<path d="M435.472 418.211C524.998 426.773 565.633 393.291 574.206 303.883L669.016 418.627C579.489 410.066 538.855 443.548 530.281 532.956L435.472 418.211Z" fill="#1EA0FF"/>
<path d="M425.428 210.543C483.602 210.543 530.76 163.447 530.76 105.35C530.76 47.254 483.602 0.157715 425.428 0.157715C367.255 0.157715 320.096 47.254 320.096 105.35C320.096 163.447 367.255 210.543 425.428 210.543Z" fill="#67BCFA"/>
<path d="M265.227 210.701H263.991C262.899 210.701 262.018 209.816 262.018 208.73C262.018 207.644 262.904 206.759 263.991 206.759H265.227C266.319 206.759 267.2 207.644 267.2 208.73C267.2 209.816 266.314 210.701 265.227 210.701Z" fill="#67BCFA"/>
<path d="M105.265 210.701C104.432 210.701 103.603 210.687 102.779 210.667C101.687 210.639 100.825 209.735 100.854 208.644C100.883 207.554 101.797 206.693 102.88 206.721C103.675 206.74 104.475 206.755 105.275 206.755C106.367 206.755 107.248 207.64 107.248 208.73C107.248 209.821 106.362 210.701 105.275 210.701H105.265ZM239.569 210.701H237.126C236.034 210.701 235.153 209.816 235.153 208.73C235.153 207.644 236.039 206.759 237.126 206.759H239.569C240.661 206.759 241.542 207.644 241.542 208.73C241.542 209.816 240.656 210.701 239.569 210.701ZM212.709 210.701H210.267C209.175 210.701 208.293 209.816 208.293 208.73C208.293 207.644 209.179 206.759 210.267 206.759H212.709C213.801 206.759 214.683 207.644 214.683 208.73C214.683 209.816 213.797 210.701 212.709 210.701ZM185.849 210.701H183.407C182.315 210.701 181.433 209.816 181.433 208.73C181.433 207.644 182.32 206.759 183.407 206.759H185.849C186.941 206.759 187.823 207.644 187.823 208.73C187.823 209.816 186.937 210.701 185.849 210.701ZM158.99 210.701H156.547C155.455 210.701 154.574 209.816 154.574 208.73C154.574 207.644 155.46 206.759 156.547 206.759H158.99C160.082 206.759 160.963 207.644 160.963 208.73C160.963 209.816 160.077 210.701 158.99 210.701ZM132.13 210.701H129.687C128.595 210.701 127.714 209.816 127.714 208.73C127.714 207.644 128.6 206.759 129.687 206.759H132.13C133.222 206.759 134.103 207.644 134.103 208.73C134.103 209.816 133.217 210.701 132.13 210.701ZM78.7213 207.214C78.5536 207.214 78.3812 207.19 78.2088 207.147C77.4041 206.932 76.6091 206.712 75.814 206.477C74.7651 206.171 74.1664 205.076 74.4729 204.028C74.7794 202.981 75.8763 202.383 76.9252 202.689C77.6915 202.914 78.4578 203.129 79.2337 203.335C80.2874 203.617 80.9149 204.698 80.6323 205.75C80.3976 206.63 79.5978 207.214 78.7261 207.214H78.7213ZM53.9592 197.007C53.624 197.007 53.2887 196.92 52.9774 196.743C52.2589 196.332 51.5405 195.906 50.8316 195.476C49.8977 194.911 49.6007 193.697 50.1659 192.769C50.7311 191.836 51.9476 191.539 52.8768 192.104C53.5617 192.515 54.2466 192.922 54.9411 193.323C55.8846 193.864 56.2103 195.074 55.6691 196.016C55.3051 196.653 54.6393 197.007 53.9544 197.007H53.9592ZM32.66 180.791C32.1571 180.791 31.6542 180.6 31.271 180.222C30.6819 179.639 30.0976 179.05 29.5229 178.452C28.7661 177.668 28.7901 176.42 29.5756 175.664C30.361 174.908 31.6111 174.932 32.3679 175.716C32.9235 176.29 33.4838 176.86 34.049 177.419C34.8249 178.185 34.8297 179.433 34.0634 180.208C33.6754 180.595 33.1677 180.791 32.66 180.791ZM16.2175 159.688C15.5421 159.688 14.8812 159.339 14.5124 158.717C14.0909 158.004 13.6838 157.287 13.2767 156.564C12.745 155.613 13.0899 154.412 14.043 153.881C14.9961 153.35 16.1983 153.694 16.7299 154.646C17.1179 155.34 17.5154 156.033 17.9178 156.717C18.4733 157.655 18.1572 158.865 17.2185 159.42C16.9024 159.607 16.5575 159.693 16.2175 159.693V159.688ZM5.74748 135.078C4.88057 135.078 4.09029 134.504 3.84602 133.634C3.6257 132.835 3.41016 132.036 3.209 131.232C2.94078 130.175 3.58259 129.104 4.64109 128.836C5.69958 128.568 6.77243 129.209 7.04065 130.266C7.23702 131.041 7.44297 131.811 7.65371 132.577C7.94588 133.624 7.33281 134.715 6.27911 135.006C6.1019 135.054 5.92469 135.078 5.74748 135.078ZM1.98287 108.603C0.90522 108.603 0.019153 107.737 0.00957386 106.656C0.0047843 106.226 1.69778e-10 105.79 1.69778e-10 105.355C1.69778e-10 104.958 -9.93917e-06 104.566 0.00477962 104.169C0.0191483 103.088 0.90044 102.217 1.97809 102.217H2.00203C3.09405 102.232 3.96575 103.121 3.95617 104.212C3.95617 104.59 3.95139 104.973 3.95139 105.35C3.95139 105.767 3.95138 106.187 3.96096 106.604C3.97533 107.694 3.09884 108.589 2.01161 108.598C2.00203 108.598 1.99725 108.598 1.98767 108.598L1.98287 108.603ZM5.09609 82.0418C4.93803 82.0418 4.7752 82.0227 4.61235 81.9796C3.55386 81.7118 2.91205 80.6403 3.18026 79.588C3.38142 78.7844 3.59696 77.9808 3.81728 77.1868C4.10945 76.1345 5.19667 75.5223 6.25037 75.814C7.29929 76.1058 7.91714 77.1917 7.62498 78.244C7.41424 79.0093 7.20829 79.7794 7.01191 80.5542C6.7868 81.4487 5.98216 82.0466 5.09609 82.0466V82.0418ZM14.953 57.1691C14.6273 57.1691 14.2968 57.0877 13.9951 56.9203C13.042 56.3894 12.6971 55.1888 13.2288 54.2369C13.6311 53.5099 14.043 52.7924 14.4645 52.0749C15.0153 51.1374 16.227 50.8217 17.1658 51.3718C18.1045 51.9219 18.4207 53.132 17.8699 54.0695C17.4627 54.7583 17.07 55.4519 16.6772 56.1502C16.318 56.8008 15.6427 57.1643 14.9482 57.1643L14.953 57.1691ZM30.8831 35.6637C30.3898 35.6637 29.8965 35.4819 29.5133 35.1136C28.7278 34.3579 28.7038 33.1095 29.4606 32.325C30.0353 31.7271 30.6149 31.1388 31.204 30.5552C31.9799 29.7899 33.23 29.7947 33.9963 30.5648C34.7626 31.3397 34.7579 32.5881 33.9867 33.3534C33.4216 33.913 32.8612 34.4823 32.3056 35.0562C31.9176 35.458 31.4004 35.6589 30.8831 35.6589V35.6637ZM51.78 18.9368C51.1142 18.9368 50.4628 18.6019 50.0892 17.9897C49.5241 17.057 49.8162 15.8468 50.7502 15.2776C51.4591 14.8471 52.1679 14.4262 52.8864 14.0149C53.8299 13.4696 55.0417 13.7948 55.5829 14.7371C56.1289 15.6794 55.8032 16.8848 54.8596 17.4301C54.17 17.8271 53.4851 18.2336 52.8049 18.645C52.484 18.8411 52.1296 18.932 51.78 18.932V18.9368ZM76.2642 8.12669C75.4117 8.12669 74.6214 7.56707 74.3675 6.71087C74.061 5.66335 74.6597 4.56799 75.7038 4.26187C76.4989 4.02749 77.2988 3.80266 78.0986 3.5922C79.1523 3.30999 80.2348 3.93183 80.5173 4.98414C80.7999 6.03645 80.1773 7.11742 79.1236 7.39963C78.3525 7.60531 77.5813 7.8206 76.8198 8.04541C76.633 8.09803 76.4462 8.12669 76.2642 8.12669ZM102.717 3.98446C101.649 3.98446 100.772 3.13304 100.744 2.0616C100.715 0.971022 101.577 0.0670025 102.664 0.0383031C103.493 0.014387 104.321 0.00478322 105.15 0H105.155C106.242 0 107.128 0.880106 107.128 1.9659C107.128 3.05647 106.252 3.94137 105.16 3.94616C104.36 3.94616 103.56 3.96054 102.765 3.97967C102.746 3.97967 102.731 3.97967 102.712 3.97967L102.717 3.98446ZM239.464 3.94616H237.021C235.929 3.94616 235.048 3.06126 235.048 1.97547C235.048 0.889681 235.934 0.00478789 237.021 0.00478789H239.464C240.556 0.00478789 241.437 0.889681 241.437 1.97547C241.437 3.06126 240.551 3.94616 239.464 3.94616ZM212.604 3.94616H210.161C209.069 3.94616 208.188 3.06126 208.188 1.97547C208.188 0.889681 209.074 0.00478789 210.161 0.00478789H212.604C213.696 0.00478789 214.577 0.889681 214.577 1.97547C214.577 3.06126 213.691 3.94616 212.604 3.94616ZM185.744 3.94616H183.301C182.209 3.94616 181.328 3.06126 181.328 1.97547C181.328 0.889681 182.214 0.00478789 183.301 0.00478789H185.744C186.836 0.00478789 187.717 0.889681 187.717 1.97547C187.717 3.06126 186.831 3.94616 185.744 3.94616ZM158.884 3.94616H156.442C155.349 3.94616 154.468 3.06126 154.468 1.97547C154.468 0.889681 155.354 0.00478789 156.442 0.00478789H158.884C159.976 0.00478789 160.857 0.889681 160.857 1.97547C160.857 3.06126 159.971 3.94616 158.884 3.94616ZM132.024 3.94616H129.582C128.49 3.94616 127.608 3.06126 127.608 1.97547C127.608 0.889681 128.494 0.00478789 129.582 0.00478789H132.024C133.116 0.00478789 133.998 0.889681 133.998 1.97547C133.998 3.06126 133.112 3.94616 132.024 3.94616Z" fill="#67BCFA"/>
<path d="M265.227 3.95113H263.991C262.899 3.95113 262.018 3.06624 262.018 1.98045C262.018 0.894659 262.904 0.00976562 263.991 0.00976562H265.227C266.319 0.00976562 267.2 0.894659 267.2 1.98045C267.2 3.06624 266.314 3.95113 265.227 3.95113Z" fill="#67BCFA"/>
<path d="M424.968 210.7H184.872V206.754H424.968C480.958 206.754 526.507 161.266 526.507 105.35C526.507 86.9825 521.593 69.7389 513.005 54.8679C495.456 24.461 462.566 3.95055 424.968 3.95055H265.227V0.00439453H424.968C483.133 0.00439453 530.458 47.2626 530.458 105.355C530.458 133.495 519.486 159.951 499.561 179.849C479.636 199.747 453.145 210.705 424.968 210.705V210.7Z" fill="#67BCFA"/>
<path d="M425.428 201.33C478.507 201.33 521.536 158.359 521.536 105.35C521.536 52.3419 478.507 9.37012 425.428 9.37012C372.35 9.37012 329.321 52.3419 329.321 105.35C329.321 158.359 372.35 201.33 425.428 201.33Z" fill="white"/>
<path d="M425.107 200.96C478.186 200.96 521.215 157.988 521.215 104.98C521.215 51.9718 478.186 9 425.107 9C372.029 9 329 51.9718 329 104.98C329 157.988 372.029 200.96 425.107 200.96Z" fill="url(#paint0_linear_84_3)"/>
<path d="M425.428 195.753C475.422 195.753 515.951 155.278 515.951 105.35C515.951 55.422 475.422 14.9473 425.428 14.9473C375.434 14.9473 334.905 55.422 334.905 105.35C334.905 155.278 375.434 195.753 425.428 195.753Z" fill="white"/>
<path d="M425.428 628.118C483.602 628.118 530.76 581.022 530.76 522.925C530.76 464.829 483.602 417.733 425.428 417.733C367.255 417.733 320.096 464.829 320.096 522.925C320.096 581.022 367.255 628.118 425.428 628.118Z" fill="#007DD8"/>
<path d="M265.227 628.276H263.991C262.899 628.276 262.018 627.391 262.018 626.305C262.018 625.219 262.904 624.334 263.991 624.334H265.227C266.319 624.334 267.2 625.219 267.2 626.305C267.2 627.391 266.314 628.276 265.227 628.276Z" fill="#007DD8"/>
<path d="M105.265 628.276C104.432 628.276 103.603 628.262 102.779 628.243C101.687 628.214 100.825 627.31 100.854 626.219C100.883 625.129 101.797 624.268 102.88 624.296C103.675 624.316 104.475 624.33 105.275 624.33C106.367 624.33 107.248 625.215 107.248 626.305C107.248 627.396 106.362 628.276 105.275 628.276H105.265ZM239.569 628.276H237.126C236.034 628.276 235.153 627.391 235.153 626.305C235.153 625.22 236.039 624.335 237.126 624.335H239.569C240.661 624.335 241.542 625.22 241.542 626.305C241.542 627.391 240.656 628.276 239.569 628.276ZM212.709 628.276H210.267C209.175 628.276 208.293 627.391 208.293 626.305C208.293 625.22 209.179 624.335 210.267 624.335H212.709C213.801 624.335 214.683 625.22 214.683 626.305C214.683 627.391 213.797 628.276 212.709 628.276ZM185.849 628.276H183.407C182.315 628.276 181.433 627.391 181.433 626.305C181.433 625.22 182.32 624.335 183.407 624.335H185.849C186.941 624.335 187.823 625.22 187.823 626.305C187.823 627.391 186.937 628.276 185.849 628.276ZM158.99 628.276H156.547C155.455 628.276 154.574 627.391 154.574 626.305C154.574 625.22 155.46 624.335 156.547 624.335H158.99C160.082 624.335 160.963 625.22 160.963 626.305C160.963 627.391 160.077 628.276 158.99 628.276ZM132.13 628.276H129.687C128.595 628.276 127.714 627.391 127.714 626.305C127.714 625.22 128.6 624.335 129.687 624.335H132.13C133.222 624.335 134.103 625.22 134.103 626.305C134.103 627.391 133.217 628.276 132.13 628.276ZM78.7213 624.789C78.5536 624.789 78.3812 624.765 78.2088 624.722C77.4041 624.507 76.6091 624.287 75.814 624.052C74.7651 623.746 74.1664 622.651 74.4729 621.604C74.7794 620.556 75.8763 619.958 76.9252 620.264C77.6915 620.489 78.4578 620.704 79.2337 620.91C80.2874 621.192 80.9149 622.273 80.6323 623.325C80.3976 624.205 79.5978 624.789 78.7261 624.789H78.7213ZM53.9592 614.582C53.624 614.582 53.2887 614.496 52.9774 614.319C52.2589 613.907 51.5405 613.482 50.8316 613.051C49.8977 612.487 49.6007 611.272 50.1659 610.344C50.7311 609.411 51.9476 609.115 52.8768 609.679C53.5617 610.09 54.2466 610.497 54.9411 610.899C55.8846 611.439 56.2103 612.649 55.6691 613.592C55.3051 614.228 54.6393 614.582 53.9544 614.582H53.9592ZM32.66 598.367C32.1571 598.367 31.6542 598.175 31.271 597.797C30.6819 597.214 30.0976 596.626 29.5229 596.028C28.7661 595.243 28.7901 593.995 29.5756 593.239C30.361 592.483 31.6111 592.507 32.3679 593.292C32.9235 593.866 33.4838 594.435 34.049 594.994C34.8249 595.76 34.8297 597.008 34.0634 597.783C33.6754 598.17 33.1677 598.367 32.66 598.367ZM16.2175 577.263C15.5421 577.263 14.8812 576.914 14.5124 576.292C14.0909 575.579 13.6838 574.862 13.2767 574.14C12.745 573.188 13.0899 571.987 14.043 571.456C14.9961 570.925 16.1983 571.27 16.7299 572.222C17.1179 572.915 17.5154 573.609 17.9178 574.293C18.4733 575.23 18.1572 576.44 17.2185 576.995C16.9024 577.182 16.5575 577.268 16.2175 577.268V577.263ZM5.74748 552.653C4.88057 552.653 4.09029 552.079 3.84602 551.209C3.6257 550.41 3.41016 549.611 3.209 548.808C2.94078 547.751 3.58259 546.679 4.64109 546.411C5.69958 546.143 6.77243 546.784 7.04065 547.841C7.23702 548.616 7.44297 549.386 7.65371 550.152C7.94588 551.199 7.33281 552.29 6.27911 552.582C6.1019 552.629 5.92469 552.653 5.74748 552.653ZM1.98287 526.178C0.90522 526.178 0.019153 525.312 0.00957386 524.231C0.0047843 523.801 1.69778e-10 523.366 1.69778e-10 522.93C1.69778e-10 522.533 -9.93917e-06 522.141 0.00477962 521.744C0.0191483 520.663 0.90044 519.793 1.97809 519.793H2.00203C3.09405 519.807 3.96575 520.697 3.95617 521.787C3.95617 522.165 3.95139 522.548 3.95139 522.926C3.95139 523.342 3.95138 523.763 3.96096 524.179C3.97533 525.269 3.09884 526.164 2.01161 526.173C2.00203 526.173 1.99725 526.173 1.98767 526.173L1.98287 526.178ZM5.09609 499.617C4.93803 499.617 4.7752 499.598 4.61235 499.555C3.55386 499.287 2.91205 498.216 3.18026 497.163C3.38142 496.36 3.59696 495.556 3.81728 494.762C4.10945 493.71 5.19667 493.097 6.25037 493.389C7.29929 493.681 7.91714 494.767 7.62498 495.819C7.41424 496.584 7.20829 497.354 7.01191 498.129C6.7868 499.024 5.98216 499.622 5.09609 499.622V499.617ZM14.953 474.744C14.6273 474.744 14.2968 474.663 13.9951 474.496C13.042 473.965 12.6971 472.764 13.2288 471.812C13.6311 471.085 14.043 470.368 14.4645 469.65C15.0153 468.713 16.227 468.397 17.1658 468.947C18.1045 469.497 18.4207 470.707 17.8699 471.645C17.4627 472.334 17.07 473.027 16.6772 473.725C16.318 474.376 15.6427 474.739 14.9482 474.739L14.953 474.744ZM30.8831 453.239C30.3898 453.239 29.8965 453.057 29.5133 452.689C28.7278 451.933 28.7038 450.685 29.4606 449.9C30.0353 449.302 30.6149 448.714 31.204 448.13C31.9799 447.365 33.23 447.37 33.9963 448.14C34.7626 448.915 34.7579 450.163 33.9867 450.929C33.4216 451.488 32.8612 452.057 32.3056 452.631C31.9176 453.033 31.4004 453.234 30.8831 453.234V453.239ZM51.78 436.512C51.1142 436.512 50.4628 436.177 50.0892 435.565C49.5241 434.632 49.8162 433.422 50.7502 432.853C51.4591 432.422 52.1679 432.001 52.8864 431.59C53.8299 431.045 55.0417 431.37 55.5829 432.312C56.1289 433.255 55.8032 434.46 54.8596 435.005C54.17 435.402 53.4851 435.809 52.8049 436.22C52.484 436.416 52.1296 436.507 51.78 436.507V436.512ZM76.2642 425.702C75.4117 425.702 74.6214 425.142 74.3675 424.286C74.061 423.239 74.6597 422.143 75.7038 421.837C76.4989 421.603 77.2988 421.378 78.0986 421.167C79.1523 420.885 80.2348 421.507 80.5173 422.559C80.7999 423.612 80.1773 424.693 79.1236 424.975C78.3525 425.181 77.5813 425.396 76.8198 425.621C76.633 425.673 76.4462 425.702 76.2642 425.702ZM102.717 421.56C101.649 421.56 100.772 420.708 100.744 419.637C100.715 418.546 101.577 417.642 102.664 417.613C103.493 417.59 104.321 417.58 105.15 417.575H105.155C106.242 417.575 107.128 418.455 107.128 419.541C107.128 420.632 106.252 421.517 105.16 421.521C104.36 421.521 103.56 421.536 102.765 421.555C102.746 421.555 102.731 421.555 102.712 421.555L102.717 421.56ZM239.464 421.521H237.021C235.929 421.521 235.048 420.636 235.048 419.551C235.048 418.465 235.934 417.58 237.021 417.58H239.464C240.556 417.58 241.437 418.465 241.437 419.551C241.437 420.636 240.551 421.521 239.464 421.521ZM212.604 421.521H210.161C209.069 421.521 208.188 420.636 208.188 419.551C208.188 418.465 209.074 417.58 210.161 417.58H212.604C213.696 417.58 214.577 418.465 214.577 419.551C214.577 420.636 213.691 421.521 212.604 421.521ZM185.744 421.521H183.301C182.209 421.521 181.328 420.636 181.328 419.551C181.328 418.465 182.214 417.58 183.301 417.58H185.744C186.836 417.58 187.717 418.465 187.717 419.551C187.717 420.636 186.831 421.521 185.744 421.521ZM158.884 421.521H156.442C155.349 421.521 154.468 420.636 154.468 419.551C154.468 418.465 155.354 417.58 156.442 417.58H158.884C159.976 417.58 160.857 418.465 160.857 419.551C160.857 420.636 159.971 421.521 158.884 421.521ZM132.024 421.521H129.582C128.49 421.521 127.608 420.636 127.608 419.551C127.608 418.465 128.494 417.58 129.582 417.58H132.024C133.116 417.58 133.998 418.465 133.998 419.551C133.998 420.636 133.112 421.521 132.024 421.521Z" fill="#007DD8"/>
<path d="M265.227 421.526H263.991C262.899 421.526 262.018 420.641 262.018 419.556C262.018 418.47 262.904 417.585 263.991 417.585H265.227C266.319 417.585 267.2 418.47 267.2 419.556C267.2 420.641 266.314 421.526 265.227 421.526Z" fill="#007DD8"/>
<path d="M424.968 628.276H184.872V624.33H424.968C480.958 624.33 526.507 578.841 526.507 522.926C526.507 467.01 480.958 421.521 424.968 421.521H265.227V417.575H424.968C483.133 417.575 530.458 464.833 530.458 522.926C530.458 551.065 519.486 577.521 499.561 597.419C479.636 617.318 453.145 628.276 424.968 628.276Z" fill="#007DD8"/>
<path d="M425.428 618.905C478.507 618.905 521.536 575.934 521.536 522.925C521.536 469.917 478.507 426.945 425.428 426.945C372.35 426.945 329.321 469.917 329.321 522.925C329.321 575.934 372.35 618.905 425.428 618.905Z" fill="url(#paint1_linear_84_3)"/>
<path d="M425.428 613.329C475.422 613.329 515.951 572.854 515.951 522.926C515.951 472.998 475.422 432.523 425.428 432.523C375.434 432.523 334.905 472.998 334.905 522.926C334.905 572.854 375.434 613.329 425.428 613.329Z" fill="white"/>
<mask id="path-18-outside-1_84_3" maskUnits="userSpaceOnUse" x="392" y="489" width="62" height="62" fill="black">
<rect fill="white" x="392" y="489" width="62" height="62"/>
<path fill-rule="evenodd" clip-rule="evenodd" d="M393 520C393 536.542 406.458 550 423 550C439.542 550 453 536.542 453 520C453 516.716 452.472 513.487 451.43 510.401C451.31 510.044 450.931 509.853 450.566 509.973C450.21 510.093 450.018 510.479 450.139 510.836C451.133 513.782 451.636 516.865 451.636 520C451.636 535.791 438.79 548.636 423 548.636C407.21 548.636 394.364 535.791 394.364 520C394.364 504.209 407.21 491.364 423 491.364C431.096 491.364 438.848 494.814 444.273 500.829C444.524 501.107 444.955 501.13 445.235 500.878C445.515 500.625 445.538 500.195 445.285 499.915C439.602 493.614 431.48 490 423 490C406.458 490 393 503.458 393 520ZM438.709 510.238L428.978 519.96L438.707 529.681C440.363 531.332 440.363 534.021 438.707 535.677C437.906 536.478 436.84 536.919 435.706 536.919C434.574 536.919 433.509 536.477 432.706 535.677L422.975 525.956L413.244 535.678C412.442 536.479 411.376 536.92 410.243 536.92C409.11 536.92 408.044 536.479 407.242 535.679C405.587 534.026 405.587 531.337 407.242 529.682L416.974 519.96L407.241 510.238C405.586 508.585 405.587 505.896 407.241 504.242C408.043 503.441 409.109 503 410.241 503C411.376 503 412.442 503.441 413.244 504.242L422.975 513.964L432.707 504.242C433.51 503.442 434.576 503.001 435.709 503.001C436.841 503.001 437.909 503.442 438.709 504.242C439.512 505.044 439.954 506.109 439.954 507.241C439.954 508.373 439.512 509.438 438.709 510.238ZM434.205 534.178C435.008 534.979 436.405 534.978 437.207 534.178C438.035 533.35 438.035 532.006 437.209 531.179L426.727 520.709C426.312 520.294 426.312 519.625 426.727 519.211L437.209 508.74C437.608 508.339 437.83 507.807 437.83 507.241C437.83 506.675 437.608 506.142 437.209 505.741C436.405 504.941 435.009 504.941 434.207 505.742L423.725 516.212C423.31 516.626 422.639 516.626 422.224 516.212L411.743 505.741C411.341 505.34 410.809 505.12 410.241 505.12C409.675 505.12 409.142 505.34 408.74 505.741C407.913 506.568 407.913 507.913 408.74 508.74L419.223 519.211C419.422 519.409 419.533 519.679 419.533 519.96C419.533 520.243 419.422 520.51 419.223 520.709L408.741 531.18C407.914 532.007 407.914 533.352 408.741 534.179C409.543 534.979 410.94 534.979 411.743 534.179L422.224 523.708C422.639 523.291 423.31 523.291 423.725 523.708L434.205 534.178Z"/>
</mask>
<path fill-rule="evenodd" clip-rule="evenodd" d="M393 520C393 536.542 406.458 550 423 550C439.542 550 453 536.542 453 520C453 516.716 452.472 513.487 451.43 510.401C451.31 510.044 450.931 509.853 450.566 509.973C450.21 510.093 450.018 510.479 450.139 510.836C451.133 513.782 451.636 516.865 451.636 520C451.636 535.791 438.79 548.636 423 548.636C407.21 548.636 394.364 535.791 394.364 520C394.364 504.209 407.21 491.364 423 491.364C431.096 491.364 438.848 494.814 444.273 500.829C444.524 501.107 444.955 501.13 445.235 500.878C445.515 500.625 445.538 500.195 445.285 499.915C439.602 493.614 431.48 490 423 490C406.458 490 393 503.458 393 520ZM438.709 510.238L428.978 519.96L438.707 529.681C440.363 531.332 440.363 534.021 438.707 535.677C437.906 536.478 436.84 536.919 435.706 536.919C434.574 536.919 433.509 536.477 432.706 535.677L422.975 525.956L413.244 535.678C412.442 536.479 411.376 536.92 410.243 536.92C409.11 536.92 408.044 536.479 407.242 535.679C405.587 534.026 405.587 531.337 407.242 529.682L416.974 519.96L407.241 510.238C405.586 508.585 405.587 505.896 407.241 504.242C408.043 503.441 409.109 503 410.241 503C411.376 503 412.442 503.441 413.244 504.242L422.975 513.964L432.707 504.242C433.51 503.442 434.576 503.001 435.709 503.001C436.841 503.001 437.909 503.442 438.709 504.242C439.512 505.044 439.954 506.109 439.954 507.241C439.954 508.373 439.512 509.438 438.709 510.238ZM434.205 534.178C435.008 534.979 436.405 534.978 437.207 534.178C438.035 533.35 438.035 532.006 437.209 531.179L426.727 520.709C426.312 520.294 426.312 519.625 426.727 519.211L437.209 508.74C437.608 508.339 437.83 507.807 437.83 507.241C437.83 506.675 437.608 506.142 437.209 505.741C436.405 504.941 435.009 504.941 434.207 505.742L423.725 516.212C423.31 516.626 422.639 516.626 422.224 516.212L411.743 505.741C411.341 505.34 410.809 505.12 410.241 505.12C409.675 505.12 409.142 505.34 408.74 505.741C407.913 506.568 407.913 507.913 408.74 508.74L419.223 519.211C419.422 519.409 419.533 519.679 419.533 519.96C419.533 520.243 419.422 520.51 419.223 520.709L408.741 531.18C407.914 532.007 407.914 533.352 408.741 534.179C409.543 534.979 410.94 534.979 411.743 534.179L422.224 523.708C422.639 523.291 423.31 523.291 423.725 523.708L434.205 534.178Z" fill="#FF4787"/>
<path d="M451.43 510.401L450.672 510.656L450.672 510.657L451.43 510.401ZM450.566 509.973L450.316 509.213L450.31 509.215L450.566 509.973ZM450.139 510.836L450.897 510.581L450.897 510.579L450.139 510.836ZM444.273 500.829L443.679 501.364L443.679 501.364L444.273 500.829ZM445.235 500.878L445.77 501.473L445.771 501.472L445.235 500.878ZM445.285 499.915L444.69 500.451L444.692 500.453L445.285 499.915ZM428.978 519.96L428.413 519.394L427.847 519.96L428.413 520.526L428.978 519.96ZM438.709 510.238L438.144 509.671L438.143 509.672L438.709 510.238ZM438.707 529.681L438.142 530.247L438.143 530.247L438.707 529.681ZM432.706 535.677L432.141 536.243L432.141 536.243L432.706 535.677ZM422.975 525.956L423.54 525.39L422.975 524.825L422.41 525.39L422.975 525.956ZM413.244 535.678L412.678 535.112L412.678 535.112L413.244 535.678ZM407.242 535.679L407.808 535.113L407.808 535.112L407.242 535.679ZM407.242 529.682L406.677 529.116L406.677 529.116L407.242 529.682ZM416.974 519.96L417.539 520.526L418.106 519.96L417.539 519.394L416.974 519.96ZM407.241 510.238L407.807 509.672L407.807 509.672L407.241 510.238ZM407.241 504.242L407.807 504.808L407.807 504.808L407.241 504.242ZM413.244 504.242L412.678 504.808L412.678 504.808L413.244 504.242ZM422.975 513.964L422.41 514.53L422.975 515.095L423.54 514.53L422.975 513.964ZM432.707 504.242L432.142 503.676L432.142 503.676L432.707 504.242ZM438.709 504.242L438.142 504.808L438.144 504.809L438.709 504.242ZM437.207 534.178L437.772 534.744L437.772 534.744L437.207 534.178ZM434.205 534.178L433.639 534.744L433.64 534.744L434.205 534.178ZM437.209 531.179L437.774 530.614L437.774 530.613L437.209 531.179ZM426.727 520.709L426.161 521.275L426.162 521.275L426.727 520.709ZM426.727 519.211L427.292 519.777L427.292 519.777L426.727 519.211ZM437.209 508.74L437.774 509.305L437.775 509.304L437.209 508.74ZM437.209 505.741L437.775 505.176L437.773 505.174L437.209 505.741ZM434.207 505.742L433.642 505.176L433.642 505.176L434.207 505.742ZM423.725 516.212L424.29 516.778L424.291 516.778L423.725 516.212ZM422.224 516.212L422.79 515.646L422.79 515.646L422.224 516.212ZM411.743 505.741L412.308 505.175L412.308 505.175L411.743 505.741ZM408.74 505.741L408.175 505.175L408.174 505.175L408.74 505.741ZM408.74 508.74L408.174 509.305L408.175 509.306L408.74 508.74ZM419.223 519.211L418.657 519.777L418.659 519.778L419.223 519.211ZM419.223 520.709L419.788 521.275L419.788 521.275L419.223 520.709ZM408.741 531.18L408.176 530.614L408.175 530.615L408.741 531.18ZM408.741 534.179L408.175 534.745L408.176 534.745L408.741 534.179ZM411.743 534.179L412.308 534.745L412.308 534.745L411.743 534.179ZM422.224 523.708L422.79 524.274L422.792 524.272L422.224 523.708ZM423.725 523.708L423.159 524.273L423.16 524.274L423.725 523.708ZM423 549.2C406.9 549.2 393.8 536.1 393.8 520H392.2C392.2 536.984 406.016 550.8 423 550.8V549.2ZM452.2 520C452.2 536.1 439.1 549.2 423 549.2V550.8C439.984 550.8 453.8 536.984 453.8 520H452.2ZM450.672 510.657C451.686 513.66 452.2 516.803 452.2 520H453.8C453.8 516.63 453.258 513.315 452.188 510.145L450.672 510.657ZM450.815 510.733C450.796 510.74 450.765 510.74 450.734 510.724C450.703 510.709 450.681 510.682 450.672 510.656L452.189 510.147C451.927 509.368 451.095 508.957 450.316 509.213L450.815 510.733ZM450.897 510.579C450.918 510.642 450.883 510.71 450.822 510.731L450.31 509.215C449.537 509.476 449.117 510.316 449.382 511.094L450.897 510.579ZM452.436 520C452.436 516.779 451.919 513.609 450.897 510.581L449.381 511.092C450.347 513.954 450.836 516.951 450.836 520H452.436ZM423 549.436C439.231 549.436 452.436 536.233 452.436 520H450.836C450.836 535.349 438.348 547.836 423 547.836V549.436ZM393.564 520C393.564 536.233 406.769 549.436 423 549.436V547.836C407.652 547.836 395.164 535.349 395.164 520H393.564ZM423 490.564C406.769 490.564 393.564 503.767 393.564 520H395.164C395.164 504.651 407.652 492.164 423 492.164V490.564ZM444.867 500.293C439.291 494.11 431.323 490.564 423 490.564V492.164C430.869 492.164 438.406 495.517 443.679 501.364L444.867 500.293ZM444.701 500.283C444.747 500.241 444.821 500.243 444.867 500.293L443.679 501.364C444.226 501.971 445.162 502.019 445.77 501.473L444.701 500.283ZM444.692 500.453C444.646 500.402 444.653 500.326 444.699 500.284L445.771 501.472C446.377 500.925 446.43 499.987 445.877 499.377L444.692 500.453ZM423 490.8C431.254 490.8 439.16 494.318 444.69 500.451L445.879 499.379C440.045 492.91 431.707 489.2 423 489.2V490.8ZM393.8 520C393.8 503.9 406.9 490.8 423 490.8V489.2C406.016 489.2 392.2 503.016 392.2 520H393.8ZM429.544 520.526L439.274 510.804L438.143 509.672L428.413 519.394L429.544 520.526ZM439.273 529.115L429.544 519.394L428.413 520.526L438.142 530.247L439.273 529.115ZM439.273 536.242C441.241 534.275 441.242 531.079 439.272 529.114L438.143 530.247C439.484 531.585 439.485 533.767 438.142 535.111L439.273 536.242ZM435.706 537.719C437.052 537.719 438.321 537.194 439.273 536.242L438.142 535.111C437.491 535.762 436.628 536.119 435.706 536.119V537.719ZM432.141 536.243C433.093 537.192 434.361 537.719 435.706 537.719V536.119C434.786 536.119 433.924 535.761 433.271 535.11L432.141 536.243ZM422.41 526.522L432.141 536.243L433.272 535.111L423.54 525.39L422.41 526.522ZM413.809 536.244L423.54 526.522L422.41 525.39L412.678 535.112L413.809 536.244ZM410.243 537.72C411.588 537.72 412.858 537.195 413.809 536.243L412.678 535.112C412.027 535.763 411.164 536.12 410.243 536.12V537.72ZM406.677 536.245C407.629 537.195 408.898 537.72 410.243 537.72V536.12C409.322 536.12 408.459 535.763 407.808 535.113L406.677 536.245ZM406.677 529.116C404.709 531.084 404.708 534.28 406.677 536.245L407.808 535.112C406.465 533.773 406.465 531.591 407.808 530.247L406.677 529.116ZM416.408 519.394L406.677 529.116L407.808 530.248L417.539 520.526L416.408 519.394ZM406.676 510.804L416.408 520.526L417.539 519.394L407.807 509.672L406.676 510.804ZM406.676 503.676C404.709 505.642 404.707 508.838 406.676 510.804L407.807 509.672C406.464 508.331 406.465 506.149 407.807 504.808L406.676 503.676ZM410.241 502.2C408.897 502.2 407.627 502.725 406.676 503.677L407.807 504.808C408.458 504.157 409.321 503.8 410.241 503.8V502.2ZM413.809 503.677C412.858 502.725 411.588 502.2 410.241 502.2V503.8C411.164 503.8 412.027 504.157 412.678 504.808L413.809 503.677ZM423.54 513.398L413.809 503.676L412.678 504.808L422.41 514.53L423.54 513.398ZM432.142 503.676L422.41 513.398L423.54 514.53L433.273 504.808L432.142 503.676ZM435.709 502.201C434.364 502.201 433.095 502.726 432.142 503.676L433.272 504.809C433.925 504.158 434.788 503.801 435.709 503.801V502.201ZM439.275 503.677C438.325 502.726 437.052 502.201 435.709 502.201V503.801C436.63 503.801 437.494 504.158 438.142 504.808L439.275 503.677ZM440.754 507.241C440.754 505.896 440.227 504.627 439.273 503.676L438.144 504.809C438.797 505.46 439.154 506.322 439.154 507.241H440.754ZM439.273 510.805C440.227 509.855 440.754 508.585 440.754 507.241H439.154C439.154 508.16 438.797 509.021 438.144 509.671L439.273 510.805ZM436.641 533.612C436.152 534.1 435.261 534.101 434.77 533.611L433.64 534.744C434.756 535.857 436.658 535.856 437.772 534.744L436.641 533.612ZM436.643 531.745C437.157 532.259 437.158 533.096 436.641 533.612L437.772 534.744C438.913 533.604 438.914 531.753 437.774 530.614L436.643 531.745ZM426.162 521.275L436.643 531.745L437.774 530.613L427.292 520.143L426.162 521.275ZM426.162 518.644C425.433 519.372 425.434 520.547 426.161 521.275L427.293 520.144C427.189 520.04 427.19 519.878 427.292 519.777L426.162 518.644ZM436.643 508.174L426.162 518.645L427.292 519.777L437.774 509.305L436.643 508.174ZM437.03 507.241C437.03 507.594 436.893 507.923 436.642 508.175L437.775 509.304C438.323 508.755 438.63 508.02 438.63 507.241H437.03ZM436.642 506.306C436.893 506.557 437.03 506.888 437.03 507.241H438.63C438.63 506.462 438.324 505.726 437.775 505.176L436.642 506.306ZM434.772 506.308C435.262 505.819 436.153 505.818 436.644 506.308L437.773 505.174C436.658 504.063 434.757 504.063 433.642 505.176L434.772 506.308ZM424.291 516.778L434.772 506.308L433.642 505.176L423.16 515.646L424.291 516.778ZM421.659 516.778C422.386 517.505 423.563 517.504 424.29 516.778L423.16 515.646C423.057 515.749 422.892 515.748 422.79 515.646L421.659 516.778ZM411.177 506.307L421.659 516.778L422.79 515.646L412.308 505.175L411.177 506.307ZM410.241 505.92C410.597 505.92 410.926 506.056 411.178 506.307L412.308 505.175C411.756 504.625 411.021 504.32 410.241 504.32V505.92ZM409.305 506.307C409.557 506.056 409.887 505.92 410.241 505.92V504.32C409.463 504.32 408.727 504.625 408.175 505.175L409.305 506.307ZM409.306 508.174C408.791 507.66 408.791 506.821 409.306 506.307L408.174 505.175C407.035 506.314 407.035 508.166 408.174 509.305L409.306 508.174ZM419.788 518.645L409.305 508.174L408.175 509.306L418.657 519.777L419.788 518.645ZM420.333 519.96C420.333 519.468 420.139 518.993 419.787 518.643L418.659 519.778C418.705 519.824 418.733 519.89 418.733 519.96H420.333ZM419.788 521.275C420.137 520.926 420.333 520.456 420.333 519.96H418.733C418.733 520.03 418.707 520.094 418.657 520.144L419.788 521.275ZM409.307 531.746L419.788 521.275L418.657 520.143L408.176 530.614L409.307 531.746ZM409.307 533.613C408.792 533.099 408.792 532.26 409.307 531.746L408.175 530.615C407.036 531.754 407.036 533.605 408.175 534.745L409.307 533.613ZM411.178 533.612C410.688 534.101 409.796 534.101 409.306 533.612L408.176 534.745C409.291 535.857 411.193 535.857 412.308 534.745L411.178 533.612ZM421.659 523.142L411.177 533.613L412.308 534.745L422.79 524.274L421.659 523.142ZM424.292 523.143C423.564 522.413 422.385 522.412 421.657 523.144L422.792 524.272C422.893 524.17 423.056 524.169 423.159 524.273L424.292 523.143ZM434.77 533.612L424.291 523.142L423.16 524.274L433.639 534.744L434.77 533.612Z" fill="#FF4787" mask="url(#path-18-outside-1_84_3)"/>
<path d="M679.06 419.11C737.233 419.11 784.392 372.014 784.392 313.918C784.392 255.821 737.233 208.725 679.06 208.725C620.886 208.725 573.728 255.821 573.728 313.918C573.728 372.014 620.886 419.11 679.06 419.11Z" fill="#1EA0FF"/>
<path d="M911.928 419.417H679.074C650.897 419.417 624.406 408.458 604.481 388.56C584.556 368.662 573.583 342.206 573.583 314.066C573.583 285.927 584.556 259.471 604.481 239.572C624.406 219.674 650.897 208.716 679.074 208.716H838.743V212.662H679.074C623.084 212.662 577.535 258.15 577.535 314.066C577.535 369.982 623.084 415.471 679.074 415.471H911.928V419.417Z" fill="#1EA0FF"/>
<path d="M994.835 419.417H992.369C991.277 419.417 990.396 418.532 990.396 417.446C990.396 416.36 991.282 415.475 992.369 415.475H994.835C995.927 415.475 996.809 416.36 996.809 417.446C996.809 418.532 995.923 419.417 994.835 419.417ZM967.679 419.417H965.212C964.12 419.417 963.239 418.532 963.239 417.446C963.239 416.36 964.125 415.475 965.212 415.475H967.679C968.771 415.475 969.652 416.36 969.652 417.446C969.652 418.532 968.766 419.417 967.679 419.417ZM940.522 419.417H938.055C936.963 419.417 936.082 418.532 936.082 417.446C936.082 416.36 936.968 415.475 938.055 415.475H940.522C941.614 415.475 942.495 416.36 942.495 417.446C942.495 418.532 941.609 419.417 940.522 419.417ZM913.365 419.417H910.898C909.806 419.417 908.925 418.532 908.925 417.446C908.925 416.36 909.811 415.475 910.898 415.475H913.365C914.457 415.475 915.338 416.36 915.338 417.446C915.338 418.532 914.452 419.417 913.365 419.417ZM886.208 419.417H883.741C882.649 419.417 881.768 418.532 881.768 417.446C881.768 416.36 882.654 415.475 883.741 415.475H886.208C887.3 415.475 888.181 416.36 888.181 417.446C888.181 418.532 887.295 419.417 886.208 419.417ZM859.051 419.417H856.585C855.493 419.417 854.611 418.532 854.611 417.446C854.611 416.36 855.497 415.475 856.585 415.475H859.051C860.143 415.475 861.025 416.36 861.025 417.446C861.025 418.532 860.139 419.417 859.051 419.417ZM1019.38 417.327C1018.46 417.327 1017.64 416.681 1017.45 415.748C1017.23 414.682 1017.92 413.639 1018.99 413.424C1019.78 413.261 1020.57 413.093 1021.36 412.912C1022.41 412.668 1023.48 413.333 1023.72 414.394C1023.97 415.456 1023.3 416.513 1022.24 416.757C1021.42 416.944 1020.6 417.121 1019.77 417.288C1019.64 417.317 1019.51 417.327 1019.38 417.327H1019.38ZM1044.97 408.478C1044.24 408.478 1043.55 408.081 1043.2 407.392C1042.71 406.421 1043.1 405.235 1044.08 404.742C1044.8 404.378 1045.51 404.01 1046.22 403.632C1047.19 403.12 1048.38 403.484 1048.9 404.445C1049.41 405.407 1049.04 406.603 1048.08 407.114C1047.34 407.507 1046.6 407.889 1045.85 408.267C1045.57 408.411 1045.26 408.478 1044.97 408.478ZM1067.35 393.291C1066.81 393.291 1066.27 393.066 1065.88 392.631C1065.16 391.818 1065.23 390.569 1066.04 389.847C1066.65 389.311 1067.24 388.771 1067.83 388.221C1068.63 387.475 1069.88 387.518 1070.63 388.316C1071.37 389.115 1071.32 390.359 1070.53 391.105C1069.92 391.674 1069.3 392.239 1068.67 392.798C1068.29 393.133 1067.83 393.296 1067.36 393.296L1067.35 393.291ZM1085.07 372.838C1084.69 372.838 1084.31 372.733 1083.98 372.513C1083.07 371.915 1082.82 370.69 1083.42 369.781C1083.86 369.107 1084.3 368.428 1084.73 367.744C1085.31 366.821 1086.52 366.538 1087.45 367.117C1088.37 367.696 1088.65 368.911 1088.07 369.834C1087.63 370.547 1087.17 371.25 1086.71 371.953C1086.34 372.527 1085.7 372.843 1085.06 372.843L1085.07 372.838ZM1096.87 348.496C1096.67 348.496 1096.46 348.463 1096.25 348.396C1095.22 348.056 1094.65 346.937 1095 345.904C1095.25 345.138 1095.5 344.363 1095.73 343.589C1096.05 342.546 1097.15 341.957 1098.2 342.273C1099.24 342.589 1099.83 343.694 1099.52 344.736C1099.27 345.54 1099.02 346.344 1098.75 347.138C1098.48 347.965 1097.71 348.491 1096.88 348.491L1096.87 348.496ZM1101.92 321.925C1101.88 321.925 1101.84 321.925 1101.81 321.925C1100.72 321.863 1099.88 320.935 1099.94 319.845C1099.99 319.041 1100.02 318.237 1100.05 317.429C1100.09 316.338 1100.98 315.487 1102.09 315.521C1103.18 315.554 1104.03 316.468 1104 317.558C1103.97 318.395 1103.93 319.232 1103.89 320.065C1103.83 321.117 1102.96 321.925 1101.92 321.925H1101.92ZM1099.92 294.962C1099.01 294.962 1098.18 294.321 1097.99 293.389C1097.83 292.599 1097.66 291.81 1097.48 291.026C1097.23 289.964 1097.89 288.907 1098.95 288.658C1100.01 288.414 1101.07 289.074 1101.32 290.131C1101.51 290.944 1101.69 291.762 1101.86 292.585C1102.08 293.652 1101.4 294.694 1100.33 294.919C1100.2 294.948 1100.06 294.962 1099.93 294.962H1099.92ZM1090.99 269.439C1090.27 269.439 1089.57 269.042 1089.23 268.358C1088.86 267.641 1088.49 266.928 1088.11 266.22C1087.59 265.259 1087.96 264.063 1088.92 263.551C1089.88 263.034 1091.08 263.398 1091.59 264.354C1091.99 265.091 1092.37 265.832 1092.75 266.579C1093.25 267.55 1092.85 268.736 1091.88 269.229C1091.59 269.372 1091.29 269.444 1090.99 269.444V269.439ZM1075.72 247.125C1075.18 247.125 1074.64 246.905 1074.25 246.47C1073.71 245.867 1073.17 245.274 1072.61 244.686C1071.87 243.892 1071.9 242.643 1072.7 241.897C1073.5 241.151 1074.75 241.194 1075.5 241.983C1076.07 242.596 1076.64 243.213 1077.2 243.834C1077.92 244.648 1077.85 245.891 1077.04 246.618C1076.67 246.953 1076.2 247.121 1075.73 247.121L1075.72 247.125ZM1055.19 229.494C1054.82 229.494 1054.45 229.389 1054.12 229.174C1053.44 228.734 1052.76 228.299 1052.07 227.873C1051.14 227.299 1050.86 226.084 1051.43 225.156C1052.01 224.228 1053.23 223.946 1054.15 224.52C1054.87 224.965 1055.58 225.414 1056.28 225.873C1057.19 226.471 1057.44 227.691 1056.85 228.605C1056.47 229.183 1055.84 229.499 1055.19 229.499V229.494ZM1030.79 217.775C1030.59 217.775 1030.38 217.742 1030.18 217.675C1029.41 217.422 1028.64 217.182 1027.86 216.948C1026.82 216.632 1026.22 215.532 1026.54 214.489C1026.85 213.447 1027.96 212.854 1029 213.169C1029.81 213.413 1030.61 213.662 1031.41 213.925C1032.44 214.265 1033.01 215.379 1032.67 216.412C1032.4 217.245 1031.63 217.771 1030.8 217.771L1030.79 217.775ZM1004.17 212.815C1004.14 212.815 1004.1 212.815 1004.06 212.815C1003.26 212.772 1002.46 212.739 1001.65 212.715C1000.55 212.681 999.697 211.772 999.73 210.687C999.764 209.62 1000.64 208.773 1001.7 208.773C1001.72 208.773 1001.74 208.773 1001.76 208.773C1002.6 208.797 1003.44 208.831 1004.28 208.879C1005.36 208.936 1006.2 209.864 1006.14 210.955C1006.09 212.007 1005.21 212.82 1004.18 212.82L1004.17 212.815ZM977.013 212.667H974.547C973.455 212.667 972.574 211.782 972.574 210.696C972.574 209.61 973.46 208.726 974.547 208.726H977.013C978.105 208.726 978.987 209.61 978.987 210.696C978.987 211.782 978.101 212.667 977.013 212.667ZM949.857 212.667H947.39C946.298 212.667 945.417 211.782 945.417 210.696C945.417 209.61 946.303 208.726 947.39 208.726H949.857C950.949 208.726 951.83 209.61 951.83 210.696C951.83 211.782 950.944 212.667 949.857 212.667ZM922.7 212.667H920.233C919.141 212.667 918.26 211.782 918.26 210.696C918.26 209.61 919.146 208.726 920.233 208.726H922.7C923.792 208.726 924.673 209.61 924.673 210.696C924.673 211.782 923.787 212.667 922.7 212.667ZM895.543 212.667H893.076C891.984 212.667 891.103 211.782 891.103 210.696C891.103 209.61 891.989 208.726 893.076 208.726H895.543C896.635 208.726 897.516 209.61 897.516 210.696C897.516 211.782 896.63 212.667 895.543 212.667ZM868.386 212.667H865.919C864.827 212.667 863.946 211.782 863.946 210.696C863.946 209.61 864.832 208.726 865.919 208.726H868.386C869.478 208.726 870.359 209.61 870.359 210.696C870.359 211.782 869.473 212.667 868.386 212.667ZM841.229 212.667H838.763C837.671 212.667 836.789 211.782 836.789 210.696C836.789 209.61 837.675 208.726 838.763 208.726H841.229C842.321 208.726 843.203 209.61 843.203 210.696C843.203 211.782 842.316 212.667 841.229 212.667Z" fill="#1EA0FF"/>
<path d="M679.06 409.898C732.138 409.898 775.167 366.926 775.167 313.918C775.167 260.909 732.138 217.938 679.06 217.938C625.981 217.938 582.952 260.909 582.952 313.918C582.952 366.926 625.981 409.898 679.06 409.898Z" fill="white"/>
<path d="M679.107 408.96C732.186 408.96 775.215 365.988 775.215 312.98C775.215 259.972 732.186 217 679.107 217C626.029 217 583 259.972 583 312.98C583 365.988 626.029 408.96 679.107 408.96Z" fill="url(#paint2_linear_84_3)"/>
<path d="M679.059 404.32C729.054 404.32 769.582 363.846 769.582 313.918C769.582 263.989 729.054 223.515 679.059 223.515C629.065 223.515 588.537 263.989 588.537 313.918C588.537 363.846 629.065 404.32 679.059 404.32Z" fill="white"/>
<path fill-rule="evenodd" clip-rule="evenodd" d="M691.064 304.704C690.934 304.485 690.799 304.268 690.656 304.056C689.531 302.372 688.043 300.971 686.311 299.951L688.348 297.914C690.729 295.533 692.253 292.474 692.637 289.299C692.741 288.43 693.181 287.636 693.862 287.086C694.543 286.536 695.412 286.274 696.284 286.354C697.156 286.435 697.961 286.853 698.53 287.519C699.098 288.184 699.384 289.045 699.327 289.919C699.313 290.155 699.349 290.391 699.433 290.613C699.517 290.834 699.647 291.034 699.814 291.202C699.982 291.369 700.183 291.498 700.404 291.582C700.625 291.666 700.862 291.701 701.098 291.687C701.772 291.644 702.443 291.805 703.024 292.148C703.605 292.492 704.069 293.003 704.356 293.615C704.642 294.226 704.738 294.91 704.63 295.576C704.522 296.242 704.216 296.861 703.751 297.351C703.216 297.922 702.495 298.286 701.717 298.377C698.543 298.761 695.483 300.284 693.102 302.666L691.064 304.704ZM692.46 308.034L695.466 305.028C697.322 303.168 699.685 301.983 702.12 301.688C703.669 301.5 705.104 300.777 706.177 299.644C708.543 297.148 708.615 293.177 706.339 290.604C705.355 289.485 704.025 288.727 702.561 288.45C702.263 286.88 701.413 285.467 700.164 284.468C698.915 283.469 697.35 282.95 695.752 283.004C694.153 283.058 692.627 283.681 691.448 284.762C690.269 285.842 689.516 287.308 689.324 288.896C689.023 291.332 687.838 293.695 685.983 295.551L682.985 298.556C681.001 298.023 678.914 297.95 676.885 298.354C676.595 298.412 676.309 298.479 676.025 298.555L673.027 295.554C671.172 293.698 669.987 291.335 669.693 288.9C669.501 287.313 668.747 285.847 667.568 284.767C666.389 283.687 664.863 283.064 663.265 283.011C661.667 282.957 660.102 283.476 658.853 284.474C657.605 285.473 656.754 286.884 656.455 288.455C654.991 288.731 653.661 289.489 652.677 290.608C650.402 293.182 650.473 297.155 652.839 299.649C653.913 300.779 655.348 301.499 656.896 301.687C659.331 301.988 661.696 303.172 663.551 305.027L666.549 308.026C666.472 308.312 666.404 308.601 666.346 308.893C665.943 310.92 666.016 313.004 666.548 314.984L663.551 317.981C661.696 319.841 659.332 321.026 656.896 321.321C655.684 321.468 654.534 321.943 653.572 322.696C652.61 323.449 651.872 324.45 651.438 325.591C651.004 326.733 650.89 327.971 651.108 329.173C651.327 330.374 651.87 331.493 652.678 332.409C653.661 333.528 654.991 334.285 656.455 334.561C656.744 336.092 657.56 337.475 658.762 338.468C659.964 339.461 661.476 340.002 663.035 339.997V339.996C664.673 340.001 666.256 339.406 667.483 338.322C668.71 337.238 669.497 335.741 669.692 334.115C669.988 331.681 671.172 329.318 673.024 327.462L676.029 324.459C677.157 324.762 678.327 324.917 679.508 324.917C680.69 324.915 681.856 324.758 682.978 324.456L685.983 327.461C687.844 329.317 689.029 331.679 689.324 334.115C689.52 335.74 690.305 337.237 691.532 338.321C692.759 339.406 694.341 340.002 695.979 339.997V340C697.539 340.005 699.051 339.464 700.253 338.47C701.455 337.476 702.271 336.093 702.559 334.56C704.022 334.286 705.352 333.531 706.337 332.414C708.612 329.84 708.541 325.869 706.175 323.374C705.102 322.242 703.668 321.519 702.119 321.331C699.683 321.031 697.319 319.847 695.464 317.991L692.456 314.983C692.758 313.859 692.916 312.691 692.918 311.507C692.918 310.328 692.762 309.161 692.46 308.034ZM691.059 318.306C690.489 319.274 689.794 320.175 688.986 320.983C688.177 321.792 687.275 322.488 686.306 323.059L688.348 325.098C690.729 327.479 692.253 330.538 692.637 333.712C692.729 334.492 693.094 335.214 693.667 335.751C694.157 336.215 694.776 336.521 695.442 336.628C696.109 336.736 696.792 336.64 697.404 336.354C698.015 336.067 698.526 335.603 698.87 335.022C699.213 334.441 699.374 333.77 699.331 333.097C699.316 332.86 699.352 332.624 699.436 332.402C699.519 332.181 699.649 331.98 699.817 331.812C699.984 331.645 700.185 331.515 700.407 331.431C700.628 331.348 700.865 331.312 701.101 331.326C701.975 331.383 702.836 331.096 703.502 330.528C704.167 329.959 704.585 329.154 704.665 328.282C704.746 327.411 704.483 326.542 703.933 325.861C703.384 325.18 702.59 324.741 701.72 324.636C698.547 324.251 695.484 322.728 693.106 320.348L691.059 318.306ZM683.196 320.877C683.251 320.856 683.305 320.834 683.359 320.812C685.2 320.049 686.774 318.758 687.88 317.102C688.987 315.446 689.578 313.498 689.578 311.507C689.575 308.837 688.513 306.278 686.625 304.39C685.652 303.417 684.5 302.664 683.247 302.161C683.087 302.146 682.93 302.108 682.78 302.048C682.673 302.005 682.571 301.951 682.476 301.888C681.523 301.593 680.523 301.438 679.508 301.437C678.445 301.437 677.395 301.604 676.395 301.929C676.336 301.962 676.275 301.991 676.212 302.017C676.101 302.062 675.986 302.095 675.868 302.116C675.184 302.381 674.527 302.721 673.91 303.133C672.253 304.239 670.961 305.812 670.198 307.652C670.147 307.775 670.099 307.899 670.053 308.024C670.035 308.085 670.014 308.145 669.99 308.203L669.982 308.223C669.401 309.906 669.275 311.717 669.624 313.471C669.711 313.908 669.827 314.337 669.969 314.756C669.978 314.776 669.987 314.795 669.995 314.814C670.023 314.884 670.047 314.954 670.066 315.026C670.568 316.373 671.355 317.603 672.38 318.628C673.319 319.566 674.429 320.305 675.643 320.809C675.855 320.807 676.066 320.846 676.265 320.924C676.425 320.987 676.574 321.074 676.707 321.182C676.981 321.261 677.258 321.329 677.539 321.385C679.208 321.717 680.929 321.62 682.543 321.109C682.62 321.062 682.702 321.02 682.787 320.986C682.919 320.932 683.056 320.896 683.196 320.877ZM672.709 323.069C672.487 322.939 672.269 322.802 672.054 322.659C670.369 321.534 668.968 320.048 667.948 318.317L665.912 320.353C663.531 322.733 660.472 324.256 657.297 324.641C656.519 324.733 655.799 325.097 655.263 325.668C654.798 326.158 654.491 326.777 654.384 327.444C654.276 328.111 654.372 328.795 654.659 329.406C654.946 330.018 655.411 330.529 655.993 330.873C656.574 331.216 657.246 331.376 657.921 331.332C658.157 331.318 658.394 331.353 658.615 331.437C658.837 331.521 659.038 331.651 659.205 331.818C659.373 331.985 659.503 332.186 659.586 332.408C659.67 332.629 659.706 332.866 659.691 333.102C659.635 333.975 659.921 334.836 660.49 335.501C661.058 336.166 661.864 336.584 662.735 336.664C663.607 336.745 664.475 336.483 665.156 335.933C665.837 335.383 666.277 334.59 666.382 333.721C666.767 330.547 668.289 327.487 670.671 325.107L672.709 323.069ZM667.945 304.7C668.517 303.73 669.211 302.831 670.016 302.026C670.823 301.218 671.726 300.522 672.7 299.949L670.667 297.912C668.285 295.531 666.762 292.471 666.377 289.297C666.286 288.519 665.922 287.798 665.35 287.262C664.86 286.798 664.241 286.492 663.574 286.384C662.908 286.277 662.224 286.373 661.612 286.659C661.001 286.946 660.49 287.411 660.146 287.992C659.803 288.573 659.643 289.245 659.687 289.919C659.701 290.154 659.665 290.39 659.581 290.611C659.498 290.832 659.368 291.033 659.201 291.2C659.034 291.367 658.834 291.496 658.613 291.58C658.392 291.664 658.156 291.701 657.92 291.687C657.033 291.604 656.148 291.877 655.462 292.446C654.776 293.015 654.344 293.834 654.261 294.721C654.179 295.609 654.452 296.493 655.021 297.179C655.59 297.865 656.409 298.297 657.297 298.379C660.472 298.764 663.533 300.286 665.912 302.668L667.945 304.7ZM676.152 316.526C675.822 316.526 675.499 316.427 675.225 316.244C674.951 316.06 674.737 315.8 674.61 315.495C674.484 315.19 674.451 314.854 674.515 314.531C674.58 314.207 674.739 313.909 674.972 313.676L677.148 311.501L674.975 309.329C674.671 309.014 674.503 308.592 674.506 308.154C674.51 307.716 674.686 307.297 674.996 306.988C675.305 306.678 675.724 306.502 676.162 306.499C676.6 306.495 677.022 306.663 677.337 306.967L679.509 309.139L681.681 306.967C681.835 306.805 682.019 306.676 682.224 306.586C682.428 306.496 682.648 306.449 682.872 306.445C683.095 306.442 683.317 306.484 683.523 306.568C683.73 306.652 683.918 306.777 684.076 306.935C684.234 307.093 684.358 307.28 684.442 307.487C684.526 307.694 684.568 307.916 684.565 308.139C684.562 308.362 684.514 308.582 684.424 308.787C684.334 308.991 684.204 309.175 684.042 309.329L681.87 311.501L684.045 313.676C684.279 313.909 684.438 314.207 684.502 314.53C684.566 314.854 684.533 315.19 684.407 315.495C684.281 315.8 684.067 316.06 683.792 316.244C683.518 316.427 683.195 316.525 682.865 316.526C682.646 316.526 682.429 316.483 682.226 316.399C682.023 316.316 681.839 316.192 681.685 316.037L679.509 313.862L677.334 316.037C677.179 316.192 676.994 316.315 676.792 316.399C676.589 316.483 676.372 316.526 676.152 316.526Z" fill="#FF4787"/>
<mask id="path-27-outside-2_84_3" maskUnits="userSpaceOnUse" x="393" y="74" width="62" height="62" fill="black">
<rect fill="white" x="393" y="74" width="62" height="62"/>
<path fill-rule="evenodd" clip-rule="evenodd" d="M394 105C394 121.542 407.458 135 424 135C440.542 135 454 121.542 454 105C454 101.716 453.472 98.4873 452.43 95.4014C452.31 95.0441 451.931 94.8532 451.566 94.9732C451.21 95.0932 451.018 95.4791 451.139 95.8364C452.133 98.7818 452.636 101.865 452.636 105C452.636 120.791 439.79 133.636 424 133.636C408.21 133.636 395.364 120.791 395.364 105C395.364 89.2091 408.21 76.3636 424 76.3636C432.096 76.3636 439.848 79.8136 445.273 85.8286C445.524 86.1068 445.955 86.13 446.235 85.8777C446.515 85.6255 446.538 85.1945 446.285 84.915C440.602 78.6136 432.48 75 424 75C407.458 75 394 88.4577 394 105ZM420.224 118.893C420.97 119.636 421.974 120.007 422.976 120.007C423.978 120.007 424.983 119.636 425.729 118.893L452.164 92.5596C452.908 91.8205 453.318 90.8359 453.318 89.7873C453.318 88.7387 452.908 87.7527 452.164 87.0137C450.673 85.5287 448.154 85.5287 446.662 87.0137L423.527 110.054C423.249 110.333 422.702 110.332 422.422 110.054L413.609 101.277C412.135 99.81 409.575 99.8127 408.107 101.277C407.364 102.016 406.953 103.001 406.953 104.05C406.953 105.1 407.364 106.085 408.107 106.825L420.224 118.893ZM409.069 102.244C409.548 101.768 410.184 101.505 410.859 101.505C411.534 101.505 412.169 101.767 412.648 102.245L421.459 111.022C422.267 111.826 423.685 111.826 424.489 111.022L447.624 87.9818C448.577 87.0314 450.25 87.0327 451.203 87.9818C451.689 88.4632 451.954 89.1055 451.954 89.7887C451.954 90.4718 451.686 91.1141 451.203 91.5955L424.766 117.927C423.813 118.876 422.139 118.875 421.185 117.927L409.068 105.858C408.583 105.376 408.317 104.734 408.317 104.051C408.317 103.368 408.585 102.727 409.069 102.244Z"/>
</mask>
<path fill-rule="evenodd" clip-rule="evenodd" d="M394 105C394 121.542 407.458 135 424 135C440.542 135 454 121.542 454 105C454 101.716 453.472 98.4873 452.43 95.4014C452.31 95.0441 451.931 94.8532 451.566 94.9732C451.21 95.0932 451.018 95.4791 451.139 95.8364C452.133 98.7818 452.636 101.865 452.636 105C452.636 120.791 439.79 133.636 424 133.636C408.21 133.636 395.364 120.791 395.364 105C395.364 89.2091 408.21 76.3636 424 76.3636C432.096 76.3636 439.848 79.8136 445.273 85.8286C445.524 86.1068 445.955 86.13 446.235 85.8777C446.515 85.6255 446.538 85.1945 446.285 84.915C440.602 78.6136 432.48 75 424 75C407.458 75 394 88.4577 394 105ZM420.224 118.893C420.97 119.636 421.974 120.007 422.976 120.007C423.978 120.007 424.983 119.636 425.729 118.893L452.164 92.5596C452.908 91.8205 453.318 90.8359 453.318 89.7873C453.318 88.7387 452.908 87.7527 452.164 87.0137C450.673 85.5287 448.154 85.5287 446.662 87.0137L423.527 110.054C423.249 110.333 422.702 110.332 422.422 110.054L413.609 101.277C412.135 99.81 409.575 99.8127 408.107 101.277C407.364 102.016 406.953 103.001 406.953 104.05C406.953 105.1 407.364 106.085 408.107 106.825L420.224 118.893ZM409.069 102.244C409.548 101.768 410.184 101.505 410.859 101.505C411.534 101.505 412.169 101.767 412.648 102.245L421.459 111.022C422.267 111.826 423.685 111.826 424.489 111.022L447.624 87.9818C448.577 87.0314 450.25 87.0327 451.203 87.9818C451.689 88.4632 451.954 89.1055 451.954 89.7887C451.954 90.4718 451.686 91.1141 451.203 91.5955L424.766 117.927C423.813 118.876 422.139 118.875 421.185 117.927L409.068 105.858C408.583 105.376 408.317 104.734 408.317 104.051C408.317 103.368 408.585 102.727 409.069 102.244Z" fill="#FF4787"/>
<path d="M452.43 95.4014L451.482 95.7198L451.483 95.7212L452.43 95.4014ZM451.566 94.9732L451.254 94.0231L451.246 94.0256L451.566 94.9732ZM451.139 95.8364L452.087 95.5166L452.086 95.5147L451.139 95.8364ZM445.273 85.8286L444.53 86.4984L444.53 86.4984L445.273 85.8286ZM446.235 85.8777L446.904 86.6217L446.905 86.6201L446.235 85.8777ZM446.285 84.915L445.542 85.5847L445.544 85.587L446.285 84.915ZM420.224 118.893L420.93 118.184L420.93 118.184L420.224 118.893ZM425.729 118.893L425.023 118.184L425.023 118.184L425.729 118.893ZM452.164 92.5596L451.459 91.8505L451.459 91.8511L452.164 92.5596ZM452.164 87.0137L451.459 87.7224L451.459 87.7227L452.164 87.0137ZM446.662 87.0137L445.957 86.3049L445.957 86.3051L446.662 87.0137ZM423.527 110.054L422.821 109.345L422.818 109.348L423.527 110.054ZM422.422 110.054L421.717 110.762L421.717 110.762L422.422 110.054ZM413.609 101.277L414.315 100.569L414.314 100.569L413.609 101.277ZM408.107 101.277L408.812 101.986L408.813 101.985L408.107 101.277ZM408.107 106.825L408.812 106.116L408.812 106.116L408.107 106.825ZM409.069 102.244L408.364 101.535L408.363 101.536L409.069 102.244ZM412.648 102.245L411.941 102.953L411.942 102.954L412.648 102.245ZM421.459 111.022L422.165 110.314L422.165 110.313L421.459 111.022ZM424.489 111.022L423.784 110.313L423.782 110.315L424.489 111.022ZM447.624 87.9818L448.329 88.6904L448.33 88.69L447.624 87.9818ZM451.203 87.9818L450.498 88.6905L450.499 88.6919L451.203 87.9818ZM451.203 91.5955L451.909 92.304L451.909 92.3036L451.203 91.5955ZM424.766 117.927L425.472 118.636L425.472 118.636L424.766 117.927ZM421.185 117.927L420.48 118.636L420.48 118.636L421.185 117.927ZM409.068 105.858L409.774 105.149L409.772 105.148L409.068 105.858ZM424 134C408.01 134 395 120.99 395 105H393C393 122.095 406.905 136 424 136V134ZM453 105C453 120.99 439.99 134 424 134V136C441.095 136 455 122.095 455 105H453ZM451.483 95.7212C452.49 98.7031 453 101.824 453 105H455C455 101.609 454.455 98.2714 453.378 95.0815L451.483 95.7212ZM451.878 95.9233C451.726 95.9731 451.539 95.8886 451.482 95.7198L453.378 95.083C453.082 94.1996 452.137 93.7333 451.254 94.0231L451.878 95.9233ZM452.086 95.5147C452.143 95.6832 452.052 95.8647 451.885 95.9208L451.246 94.0256C450.368 94.3217 449.892 95.275 450.192 96.158L452.086 95.5147ZM453.636 105C453.636 101.757 453.116 98.5661 452.087 95.5166L450.192 96.1561C451.151 98.9975 451.636 101.973 451.636 105H453.636ZM424 134.636C440.342 134.636 453.636 121.343 453.636 105H451.636C451.636 120.239 439.237 132.636 424 132.636V134.636ZM394.364 105C394.364 121.343 407.658 134.636 424 134.636V132.636C408.763 132.636 396.364 120.239 396.364 105H394.364ZM424 75.3636C407.658 75.3636 394.364 88.6568 394.364 105H396.364C396.364 89.7614 408.763 77.3636 424 77.3636V75.3636ZM446.015 85.1589C440.401 78.9338 432.379 75.3636 424 75.3636V77.3636C431.813 77.3636 439.295 80.6934 444.53 86.4984L446.015 85.1589ZM445.567 85.1337C445.696 85.0185 445.896 85.0265 446.015 85.1589L444.53 86.4984C445.151 87.1871 446.214 87.2415 446.904 86.6217L445.567 85.1337ZM445.544 85.587C445.423 85.454 445.437 85.2513 445.565 85.1353L446.905 86.6201C447.593 85.9996 447.653 84.9351 447.025 84.243L445.544 85.587ZM424 76C432.197 76 440.049 79.4935 445.542 85.5847L447.027 84.2453C441.155 77.7338 432.764 74 424 74V76ZM395 105C395 89.01 408.01 76 424 76V74C406.905 74 393 87.9054 393 105H395ZM422.976 119.007C422.216 119.007 421.473 118.726 420.93 118.184L419.518 119.601C420.467 120.546 421.731 121.007 422.976 121.007V119.007ZM425.023 118.184C424.48 118.725 423.736 119.007 422.976 119.007V121.007C424.22 121.007 425.486 120.547 426.435 119.601L425.023 118.184ZM451.459 91.8511L425.023 118.184L426.435 119.601L452.87 93.268L451.459 91.8511ZM452.318 89.7873C452.318 90.5691 452.014 91.2987 451.459 91.8505L452.87 93.2686C453.801 92.3423 454.318 91.1027 454.318 89.7873H452.318ZM451.459 87.7227C452.014 88.2743 452.318 89.0051 452.318 89.7873H454.318C454.318 88.4722 453.801 87.2312 452.87 86.3046L451.459 87.7227ZM447.368 87.7224C448.469 86.6257 450.357 86.6257 451.459 87.7224L452.87 86.3049C450.988 84.4316 447.839 84.4316 445.957 86.3049L447.368 87.7224ZM424.232 110.762L447.368 87.7222L445.957 86.3051L422.821 109.345L424.232 110.762ZM421.717 110.762C422.082 111.126 422.564 111.262 422.974 111.263C423.385 111.263 423.869 111.128 424.236 110.759L422.818 109.348C422.864 109.302 422.908 109.281 422.931 109.272C422.954 109.264 422.969 109.263 422.976 109.263C422.983 109.263 422.997 109.264 423.019 109.272C423.041 109.28 423.082 109.3 423.128 109.345L421.717 110.762ZM412.903 101.986L421.717 110.762L423.128 109.345L414.315 100.569L412.903 101.986ZM408.813 101.985C409.891 100.91 411.82 100.907 412.904 101.986L414.314 100.569C412.45 98.7128 409.259 98.7155 407.401 100.569L408.813 101.985ZM407.953 104.05C407.953 103.268 408.257 102.538 408.812 101.986L407.402 100.568C406.47 101.495 405.953 102.734 405.953 104.05H407.953ZM408.812 106.116C408.257 105.564 407.953 104.833 407.953 104.05H405.953C405.953 105.366 406.47 106.607 407.402 107.534L408.812 106.116ZM420.93 118.184L408.812 106.116L407.401 107.533L419.518 119.601L420.93 118.184ZM410.859 100.505C409.918 100.505 409.03 100.874 408.364 101.535L409.775 102.953C410.067 102.663 410.449 102.505 410.859 102.505V100.505ZM413.355 101.538C412.688 100.871 411.798 100.505 410.859 100.505V102.505C411.269 102.505 411.65 102.662 411.941 102.953L413.355 101.538ZM422.165 110.313L413.353 101.537L411.942 102.954L420.754 111.73L422.165 110.313ZM423.782 110.315C423.369 110.728 422.583 110.73 422.165 110.314L420.754 111.73C421.95 112.923 424.001 112.925 425.197 111.729L423.782 110.315ZM446.918 87.2733L423.784 110.313L425.195 111.73L448.329 88.6904L446.918 87.2733ZM451.909 87.2732C450.566 85.9362 448.262 85.9335 446.917 87.2737L448.33 88.69C448.892 88.1293 449.934 88.1292 450.498 88.6905L451.909 87.2732ZM452.954 89.7887C452.954 88.8404 452.583 87.942 451.907 87.2717L450.499 88.6919C450.794 88.9844 450.954 89.3705 450.954 89.7887H452.954ZM451.909 92.3036C452.579 91.6358 452.954 90.7393 452.954 89.7887H450.954C450.954 90.2044 450.793 90.5924 450.497 90.8874L451.909 92.3036ZM425.472 118.636L451.909 92.304L450.497 90.887L424.061 117.219L425.472 118.636ZM420.48 118.636C421.823 119.971 424.128 119.974 425.472 118.636L424.061 117.219C423.498 117.779 422.454 117.779 421.89 117.218L420.48 118.636ZM408.362 106.566L420.48 118.636L421.891 117.219L409.774 105.149L408.362 106.566ZM407.317 104.051C407.317 104.999 407.688 105.898 408.364 106.568L409.772 105.148C409.477 104.855 409.317 104.469 409.317 104.051H407.317ZM408.363 101.536C407.693 102.204 407.317 103.099 407.317 104.051H409.317C409.317 103.636 409.478 103.249 409.776 102.952L408.363 101.536Z" fill="#FF4787" mask="url(#path-27-outside-2_84_3)"/>
<defs>
<linearGradient id="paint0_linear_84_3" x1="357.148" y1="172.849" x2="492.886" y2="36.9311" gradientUnits="userSpaceOnUse">
<stop stop-color="#EBEAEA"/>
<stop offset="1" stop-color="white"/>
</linearGradient>
<linearGradient id="paint1_linear_84_3" x1="357.469" y1="590.795" x2="493.207" y2="454.876" gradientUnits="userSpaceOnUse">
<stop stop-color="#EBEAEA"/>
<stop offset="1" stop-color="white"/>
</linearGradient>
<linearGradient id="paint2_linear_84_3" x1="611.148" y1="380.849" x2="746.886" y2="244.931" gradientUnits="userSpaceOnUse">
<stop stop-color="#EBEAEA"/>
<stop offset="1" stop-color="white"/>
</linearGradient>
</defs>
</svg>
