<svg width="980" height="210" viewBox="0 0 980 210" fill="none" xmlns="http://www.w3.org/2000/svg">
<g filter="url(#filter0_ii_13_7459)">
<rect width="100" height="100" rx="15" fill="url(#paint0_linear_13_7459)"/>
</g>
<g clip-path="url(#clip0_13_7459)">
<path d="M62.5714 49.5H56.2856V52.6333H62.5714V49.5Z" fill="#FF4787"/>
<path d="M53.1429 49.5H46.8572V52.6333H53.1429V49.5Z" fill="#FF4787"/>
<path d="M43.7142 49.5H37.4285V52.6333H43.7142V49.5Z" fill="#FF4787"/>
<path d="M62.5714 55.7666H56.2856V58.8999H62.5714V55.7666Z" fill="#FF4787"/>
<path d="M53.1429 55.7666H46.8572V58.8999H53.1429V55.7666Z" fill="#FF4787"/>
<path d="M43.7142 55.7666H37.4285V58.8999H43.7142V55.7666Z" fill="#FF4787"/>
<path d="M68.8571 69.8667V43.2333C69.7248 43.2333 70.4286 42.5317 70.4286 41.6667C70.4286 40.8016 69.7248 40.1 68.8571 40.1H60.5425C60.84 39.1069 61 38.0551 61 36.9667C61 30.9197 56.0654 26 50 26C43.9346 26 39 30.9197 39 36.9667C39 38.0551 39.16 39.1069 39.4575 40.1H31.1429C30.2752 40.1 29.5714 40.8016 29.5714 41.6667C29.5714 42.5317 30.2752 43.2333 31.1429 43.2333V69.8667H28V73H72V69.8667H68.8571ZM50 29.1333C54.3322 29.1333 57.8571 32.6475 57.8571 36.9667C57.8571 41.2858 54.3322 44.8 50 44.8C47.1182 44.8 44.5942 43.245 43.2269 40.9324C43.2087 40.8981 43.1888 40.8646 43.168 40.8317C42.5158 39.6905 42.1429 38.3713 42.1429 36.9667C42.1429 32.6475 45.6675 29.1333 50 29.1333ZM46.8571 69.8667V65.1667H53.1429V69.8667H46.8571ZM56.2857 69.8667V63.6C56.2857 62.7349 55.582 62.0333 54.7143 62.0333H45.2857C44.418 62.0333 43.7143 62.7349 43.7143 63.6V69.8667H34.2857V43.2333H40.9774C42.9673 46.0726 46.2698 47.9333 50 47.9333C53.7302 47.9333 57.0324 46.0726 59.0226 43.2333H65.7143V69.8667H56.2857Z" fill="#FF4787"/>
<path d="M62.5713 62.0332H59.4285V65.1665H62.5713V62.0332Z" fill="#FF4787"/>
<path d="M40.5713 62.0332H37.4285V65.1665H40.5713V62.0332Z" fill="#FF4787"/>
<path d="M48.4285 41.6666H51.5714V38.5333H54.7142V35.3999H51.5714V32.2666H48.4285V35.3999H45.2856V38.5333H48.4285V41.6666Z" fill="#FF4787"/>
</g>
<g filter="url(#filter1_ii_13_7459)">
<rect y="110" width="100" height="100" rx="15" fill="url(#paint1_linear_13_7459)"/>
</g>
<g clip-path="url(#clip1_13_7459)">
<path d="M62.5714 159.5H56.2856V162.633H62.5714V159.5Z" fill="#FF4787"/>
<path d="M53.1429 159.5H46.8572V162.633H53.1429V159.5Z" fill="#FF4787"/>
<path d="M43.7142 159.5H37.4285V162.633H43.7142V159.5Z" fill="#FF4787"/>
<path d="M62.5714 165.767H56.2856V168.9H62.5714V165.767Z" fill="#FF4787"/>
<path d="M53.1429 165.767H46.8572V168.9H53.1429V165.767Z" fill="#FF4787"/>
<path d="M43.7142 165.767H37.4285V168.9H43.7142V165.767Z" fill="#FF4787"/>
<path d="M68.8571 179.867V153.233C69.7248 153.233 70.4286 152.532 70.4286 151.667C70.4286 150.802 69.7248 150.1 68.8571 150.1H60.5425C60.84 149.107 61 148.055 61 146.967C61 140.92 56.0654 136 50 136C43.9346 136 39 140.92 39 146.967C39 148.055 39.16 149.107 39.4575 150.1H31.1429C30.2752 150.1 29.5714 150.802 29.5714 151.667C29.5714 152.532 30.2752 153.233 31.1429 153.233V179.867H28V183H72V179.867H68.8571ZM50 139.133C54.3322 139.133 57.8571 142.648 57.8571 146.967C57.8571 151.286 54.3322 154.8 50 154.8C47.1182 154.8 44.5942 153.245 43.2269 150.932C43.2087 150.898 43.1888 150.865 43.168 150.832C42.5158 149.69 42.1429 148.371 42.1429 146.967C42.1429 142.648 45.6675 139.133 50 139.133ZM46.8571 179.867V175.167H53.1429V179.867H46.8571ZM56.2857 179.867V173.6C56.2857 172.735 55.582 172.033 54.7143 172.033H45.2857C44.418 172.033 43.7143 172.735 43.7143 173.6V179.867H34.2857V153.233H40.9774C42.9673 156.073 46.2698 157.933 50 157.933C53.7302 157.933 57.0324 156.073 59.0226 153.233H65.7143V179.867H56.2857Z" fill="#FF4787"/>
<path d="M62.5713 172.033H59.4285V175.167H62.5713V172.033Z" fill="#FF4787"/>
<path d="M40.5713 172.033H37.4285V175.167H40.5713V172.033Z" fill="#FF4787"/>
<path d="M48.4285 151.667H51.5714V148.533H54.7142V145.4H51.5714V142.267H48.4285V145.4H45.2856V148.533H48.4285V151.667Z" fill="#FF4787"/>
</g>
<g filter="url(#filter2_ii_13_7459)">
<rect x="110" width="100" height="100" rx="15" fill="url(#paint2_linear_13_7459)"/>
</g>
<g clip-path="url(#clip2_13_7459)">
<path d="M172.571 49.5H166.286V52.6333H172.571V49.5Z" fill="#FF4787"/>
<path d="M163.143 49.5H156.857V52.6333H163.143V49.5Z" fill="#FF4787"/>
<path d="M153.714 49.5H147.428V52.6333H153.714V49.5Z" fill="#FF4787"/>
<path d="M172.571 55.7666H166.286V58.8999H172.571V55.7666Z" fill="#FF4787"/>
<path d="M163.143 55.7666H156.857V58.8999H163.143V55.7666Z" fill="#FF4787"/>
<path d="M153.714 55.7666H147.428V58.8999H153.714V55.7666Z" fill="#FF4787"/>
<path d="M178.857 69.8667V43.2333C179.725 43.2333 180.429 42.5317 180.429 41.6667C180.429 40.8016 179.725 40.1 178.857 40.1H170.543C170.84 39.1069 171 38.0551 171 36.9667C171 30.9197 166.065 26 160 26C153.935 26 149 30.9197 149 36.9667C149 38.0551 149.16 39.1069 149.457 40.1H141.143C140.275 40.1 139.571 40.8016 139.571 41.6667C139.571 42.5317 140.275 43.2333 141.143 43.2333V69.8667H138V73H182V69.8667H178.857ZM160 29.1333C164.332 29.1333 167.857 32.6475 167.857 36.9667C167.857 41.2858 164.332 44.8 160 44.8C157.118 44.8 154.594 43.245 153.227 40.9324C153.209 40.8981 153.189 40.8646 153.168 40.8317C152.516 39.6905 152.143 38.3713 152.143 36.9667C152.143 32.6475 155.667 29.1333 160 29.1333ZM156.857 69.8667V65.1667H163.143V69.8667H156.857ZM166.286 69.8667V63.6C166.286 62.7349 165.582 62.0333 164.714 62.0333H155.286C154.418 62.0333 153.714 62.7349 153.714 63.6V69.8667H144.286V43.2333H150.977C152.967 46.0726 156.27 47.9333 160 47.9333C163.73 47.9333 167.032 46.0726 169.023 43.2333H175.714V69.8667H166.286Z" fill="#FF4787"/>
<path d="M172.571 62.0332H169.428V65.1665H172.571V62.0332Z" fill="#FF4787"/>
<path d="M150.571 62.0332H147.428V65.1665H150.571V62.0332Z" fill="#FF4787"/>
<path d="M158.429 41.6666H161.571V38.5333H164.714V35.3999H161.571V32.2666H158.429V35.3999H155.286V38.5333H158.429V41.6666Z" fill="#FF4787"/>
</g>
<g filter="url(#filter3_ii_13_7459)">
<rect x="110" y="110" width="100" height="100" rx="15" fill="url(#paint3_linear_13_7459)"/>
</g>
<g clip-path="url(#clip3_13_7459)">
<path d="M172.571 159.5H166.286V162.633H172.571V159.5Z" fill="#FF4787"/>
<path d="M163.143 159.5H156.857V162.633H163.143V159.5Z" fill="#FF4787"/>
<path d="M153.714 159.5H147.428V162.633H153.714V159.5Z" fill="#FF4787"/>
<path d="M172.571 165.767H166.286V168.9H172.571V165.767Z" fill="#FF4787"/>
<path d="M163.143 165.767H156.857V168.9H163.143V165.767Z" fill="#FF4787"/>
<path d="M153.714 165.767H147.428V168.9H153.714V165.767Z" fill="#FF4787"/>
<path d="M178.857 179.867V153.233C179.725 153.233 180.429 152.532 180.429 151.667C180.429 150.802 179.725 150.1 178.857 150.1H170.543C170.84 149.107 171 148.055 171 146.967C171 140.92 166.065 136 160 136C153.935 136 149 140.92 149 146.967C149 148.055 149.16 149.107 149.457 150.1H141.143C140.275 150.1 139.571 150.802 139.571 151.667C139.571 152.532 140.275 153.233 141.143 153.233V179.867H138V183H182V179.867H178.857ZM160 139.133C164.332 139.133 167.857 142.648 167.857 146.967C167.857 151.286 164.332 154.8 160 154.8C157.118 154.8 154.594 153.245 153.227 150.932C153.209 150.898 153.189 150.865 153.168 150.832C152.516 149.69 152.143 148.371 152.143 146.967C152.143 142.648 155.667 139.133 160 139.133ZM156.857 179.867V175.167H163.143V179.867H156.857ZM166.286 179.867V173.6C166.286 172.735 165.582 172.033 164.714 172.033H155.286C154.418 172.033 153.714 172.735 153.714 173.6V179.867H144.286V153.233H150.977C152.967 156.073 156.27 157.933 160 157.933C163.73 157.933 167.032 156.073 169.023 153.233H175.714V179.867H166.286Z" fill="#FF4787"/>
<path d="M172.571 172.033H169.428V175.167H172.571V172.033Z" fill="#FF4787"/>
<path d="M150.571 172.033H147.428V175.167H150.571V172.033Z" fill="#FF4787"/>
<path d="M158.429 151.667H161.571V148.533H164.714V145.4H161.571V142.267H158.429V145.4H155.286V148.533H158.429V151.667Z" fill="#FF4787"/>
</g>
<g filter="url(#filter4_ii_13_7459)">
<rect x="220" width="100" height="100" rx="15" fill="url(#paint4_linear_13_7459)"/>
</g>
<g clip-path="url(#clip4_13_7459)">
<path d="M282.571 49.5H276.286V52.6333H282.571V49.5Z" fill="#FF4787"/>
<path d="M273.143 49.5H266.857V52.6333H273.143V49.5Z" fill="#FF4787"/>
<path d="M263.714 49.5H257.428V52.6333H263.714V49.5Z" fill="#FF4787"/>
<path d="M282.571 55.7666H276.286V58.8999H282.571V55.7666Z" fill="#FF4787"/>
<path d="M273.143 55.7666H266.857V58.8999H273.143V55.7666Z" fill="#FF4787"/>
<path d="M263.714 55.7666H257.428V58.8999H263.714V55.7666Z" fill="#FF4787"/>
<path d="M288.857 69.8667V43.2333C289.725 43.2333 290.429 42.5317 290.429 41.6667C290.429 40.8016 289.725 40.1 288.857 40.1H280.543C280.84 39.1069 281 38.0551 281 36.9667C281 30.9197 276.065 26 270 26C263.935 26 259 30.9197 259 36.9667C259 38.0551 259.16 39.1069 259.457 40.1H251.143C250.275 40.1 249.571 40.8016 249.571 41.6667C249.571 42.5317 250.275 43.2333 251.143 43.2333V69.8667H248V73H292V69.8667H288.857ZM270 29.1333C274.332 29.1333 277.857 32.6475 277.857 36.9667C277.857 41.2858 274.332 44.8 270 44.8C267.118 44.8 264.594 43.245 263.227 40.9324C263.209 40.8981 263.189 40.8646 263.168 40.8317C262.516 39.6905 262.143 38.3713 262.143 36.9667C262.143 32.6475 265.667 29.1333 270 29.1333ZM266.857 69.8667V65.1667H273.143V69.8667H266.857ZM276.286 69.8667V63.6C276.286 62.7349 275.582 62.0333 274.714 62.0333H265.286C264.418 62.0333 263.714 62.7349 263.714 63.6V69.8667H254.286V43.2333H260.977C262.967 46.0726 266.27 47.9333 270 47.9333C273.73 47.9333 277.032 46.0726 279.023 43.2333H285.714V69.8667H276.286Z" fill="#FF4787"/>
<path d="M282.571 62.0332H279.428V65.1665H282.571V62.0332Z" fill="#FF4787"/>
<path d="M260.571 62.0332H257.428V65.1665H260.571V62.0332Z" fill="#FF4787"/>
<path d="M268.429 41.6666H271.571V38.5333H274.714V35.3999H271.571V32.2666H268.429V35.3999H265.286V38.5333H268.429V41.6666Z" fill="#FF4787"/>
</g>
<g filter="url(#filter5_ii_13_7459)">
<rect x="220" y="110" width="100" height="100" rx="15" fill="url(#paint5_linear_13_7459)"/>
</g>
<g clip-path="url(#clip5_13_7459)">
<path d="M282.571 159.5H276.286V162.633H282.571V159.5Z" fill="#FF4787"/>
<path d="M273.143 159.5H266.857V162.633H273.143V159.5Z" fill="#FF4787"/>
<path d="M263.714 159.5H257.428V162.633H263.714V159.5Z" fill="#FF4787"/>
<path d="M282.571 165.767H276.286V168.9H282.571V165.767Z" fill="#FF4787"/>
<path d="M273.143 165.767H266.857V168.9H273.143V165.767Z" fill="#FF4787"/>
<path d="M263.714 165.767H257.428V168.9H263.714V165.767Z" fill="#FF4787"/>
<path d="M288.857 179.867V153.233C289.725 153.233 290.429 152.532 290.429 151.667C290.429 150.802 289.725 150.1 288.857 150.1H280.543C280.84 149.107 281 148.055 281 146.967C281 140.92 276.065 136 270 136C263.935 136 259 140.92 259 146.967C259 148.055 259.16 149.107 259.457 150.1H251.143C250.275 150.1 249.571 150.802 249.571 151.667C249.571 152.532 250.275 153.233 251.143 153.233V179.867H248V183H292V179.867H288.857ZM270 139.133C274.332 139.133 277.857 142.648 277.857 146.967C277.857 151.286 274.332 154.8 270 154.8C267.118 154.8 264.594 153.245 263.227 150.932C263.209 150.898 263.189 150.865 263.168 150.832C262.516 149.69 262.143 148.371 262.143 146.967C262.143 142.648 265.667 139.133 270 139.133ZM266.857 179.867V175.167H273.143V179.867H266.857ZM276.286 179.867V173.6C276.286 172.735 275.582 172.033 274.714 172.033H265.286C264.418 172.033 263.714 172.735 263.714 173.6V179.867H254.286V153.233H260.977C262.967 156.073 266.27 157.933 270 157.933C273.73 157.933 277.032 156.073 279.023 153.233H285.714V179.867H276.286Z" fill="#FF4787"/>
<path d="M282.571 172.033H279.428V175.167H282.571V172.033Z" fill="#FF4787"/>
<path d="M260.571 172.033H257.428V175.167H260.571V172.033Z" fill="#FF4787"/>
<path d="M268.429 151.667H271.571V148.533H274.714V145.4H271.571V142.267H268.429V145.4H265.286V148.533H268.429V151.667Z" fill="#FF4787"/>
</g>
<g filter="url(#filter6_ii_13_7459)">
<rect x="330" width="100" height="100" rx="15" fill="url(#paint6_linear_13_7459)"/>
</g>
<g clip-path="url(#clip6_13_7459)">
<path d="M392.571 49.5H386.286V52.6333H392.571V49.5Z" fill="#FF4787"/>
<path d="M383.143 49.5H376.857V52.6333H383.143V49.5Z" fill="#FF4787"/>
<path d="M373.714 49.5H367.429V52.6333H373.714V49.5Z" fill="#FF4787"/>
<path d="M392.571 55.7666H386.286V58.8999H392.571V55.7666Z" fill="#FF4787"/>
<path d="M383.143 55.7666H376.857V58.8999H383.143V55.7666Z" fill="#FF4787"/>
<path d="M373.714 55.7666H367.429V58.8999H373.714V55.7666Z" fill="#FF4787"/>
<path d="M398.857 69.8667V43.2333C399.725 43.2333 400.429 42.5317 400.429 41.6667C400.429 40.8016 399.725 40.1 398.857 40.1H390.543C390.84 39.1069 391 38.0551 391 36.9667C391 30.9197 386.065 26 380 26C373.935 26 369 30.9197 369 36.9667C369 38.0551 369.16 39.1069 369.457 40.1H361.143C360.275 40.1 359.571 40.8016 359.571 41.6667C359.571 42.5317 360.275 43.2333 361.143 43.2333V69.8667H358V73H402V69.8667H398.857ZM380 29.1333C384.332 29.1333 387.857 32.6475 387.857 36.9667C387.857 41.2858 384.332 44.8 380 44.8C377.118 44.8 374.594 43.245 373.227 40.9324C373.209 40.8981 373.189 40.8646 373.168 40.8317C372.516 39.6905 372.143 38.3713 372.143 36.9667C372.143 32.6475 375.667 29.1333 380 29.1333ZM376.857 69.8667V65.1667H383.143V69.8667H376.857ZM386.286 69.8667V63.6C386.286 62.7349 385.582 62.0333 384.714 62.0333H375.286C374.418 62.0333 373.714 62.7349 373.714 63.6V69.8667H364.286V43.2333H370.977C372.967 46.0726 376.27 47.9333 380 47.9333C383.73 47.9333 387.032 46.0726 389.023 43.2333H395.714V69.8667H386.286Z" fill="#FF4787"/>
<path d="M392.572 62.0332H389.429V65.1665H392.572V62.0332Z" fill="#FF4787"/>
<path d="M370.572 62.0332H367.429V65.1665H370.572V62.0332Z" fill="#FF4787"/>
<path d="M378.429 41.6666H381.571V38.5333H384.714V35.3999H381.571V32.2666H378.429V35.3999H375.286V38.5333H378.429V41.6666Z" fill="#FF4787"/>
</g>
<g filter="url(#filter7_ii_13_7459)">
<rect x="330" y="110" width="100" height="100" rx="15" fill="url(#paint7_linear_13_7459)"/>
</g>
<g clip-path="url(#clip7_13_7459)">
<path d="M392.571 159.5H386.286V162.633H392.571V159.5Z" fill="#FF4787"/>
<path d="M383.143 159.5H376.857V162.633H383.143V159.5Z" fill="#FF4787"/>
<path d="M373.714 159.5H367.429V162.633H373.714V159.5Z" fill="#FF4787"/>
<path d="M392.571 165.767H386.286V168.9H392.571V165.767Z" fill="#FF4787"/>
<path d="M383.143 165.767H376.857V168.9H383.143V165.767Z" fill="#FF4787"/>
<path d="M373.714 165.767H367.429V168.9H373.714V165.767Z" fill="#FF4787"/>
<path d="M398.857 179.867V153.233C399.725 153.233 400.429 152.532 400.429 151.667C400.429 150.802 399.725 150.1 398.857 150.1H390.543C390.84 149.107 391 148.055 391 146.967C391 140.92 386.065 136 380 136C373.935 136 369 140.92 369 146.967C369 148.055 369.16 149.107 369.457 150.1H361.143C360.275 150.1 359.571 150.802 359.571 151.667C359.571 152.532 360.275 153.233 361.143 153.233V179.867H358V183H402V179.867H398.857ZM380 139.133C384.332 139.133 387.857 142.648 387.857 146.967C387.857 151.286 384.332 154.8 380 154.8C377.118 154.8 374.594 153.245 373.227 150.932C373.209 150.898 373.189 150.865 373.168 150.832C372.516 149.69 372.143 148.371 372.143 146.967C372.143 142.648 375.667 139.133 380 139.133ZM376.857 179.867V175.167H383.143V179.867H376.857ZM386.286 179.867V173.6C386.286 172.735 385.582 172.033 384.714 172.033H375.286C374.418 172.033 373.714 172.735 373.714 173.6V179.867H364.286V153.233H370.977C372.967 156.073 376.27 157.933 380 157.933C383.73 157.933 387.032 156.073 389.023 153.233H395.714V179.867H386.286Z" fill="#FF4787"/>
<path d="M392.572 172.033H389.429V175.167H392.572V172.033Z" fill="#FF4787"/>
<path d="M370.572 172.033H367.429V175.167H370.572V172.033Z" fill="#FF4787"/>
<path d="M378.429 151.667H381.571V148.533H384.714V145.4H381.571V142.267H378.429V145.4H375.286V148.533H378.429V151.667Z" fill="#FF4787"/>
</g>
<g filter="url(#filter8_ii_13_7459)">
<rect x="440" width="100" height="100" rx="15" fill="url(#paint8_linear_13_7459)"/>
</g>
<g clip-path="url(#clip8_13_7459)">
<path d="M502.571 49.5H496.286V52.6333H502.571V49.5Z" fill="#FF4787"/>
<path d="M493.143 49.5H486.857V52.6333H493.143V49.5Z" fill="#FF4787"/>
<path d="M483.714 49.5H477.429V52.6333H483.714V49.5Z" fill="#FF4787"/>
<path d="M502.571 55.7666H496.286V58.8999H502.571V55.7666Z" fill="#FF4787"/>
<path d="M493.143 55.7666H486.857V58.8999H493.143V55.7666Z" fill="#FF4787"/>
<path d="M483.714 55.7666H477.429V58.8999H483.714V55.7666Z" fill="#FF4787"/>
<path d="M508.857 69.8667V43.2333C509.725 43.2333 510.429 42.5317 510.429 41.6667C510.429 40.8016 509.725 40.1 508.857 40.1H500.543C500.84 39.1069 501 38.0551 501 36.9667C501 30.9197 496.065 26 490 26C483.935 26 479 30.9197 479 36.9667C479 38.0551 479.16 39.1069 479.457 40.1H471.143C470.275 40.1 469.571 40.8016 469.571 41.6667C469.571 42.5317 470.275 43.2333 471.143 43.2333V69.8667H468V73H512V69.8667H508.857ZM490 29.1333C494.332 29.1333 497.857 32.6475 497.857 36.9667C497.857 41.2858 494.332 44.8 490 44.8C487.118 44.8 484.594 43.245 483.227 40.9324C483.209 40.8981 483.189 40.8646 483.168 40.8317C482.516 39.6905 482.143 38.3713 482.143 36.9667C482.143 32.6475 485.667 29.1333 490 29.1333ZM486.857 69.8667V65.1667H493.143V69.8667H486.857ZM496.286 69.8667V63.6C496.286 62.7349 495.582 62.0333 494.714 62.0333H485.286C484.418 62.0333 483.714 62.7349 483.714 63.6V69.8667H474.286V43.2333H480.977C482.967 46.0726 486.27 47.9333 490 47.9333C493.73 47.9333 497.032 46.0726 499.023 43.2333H505.714V69.8667H496.286Z" fill="#FF4787"/>
<path d="M502.572 62.0332H499.429V65.1665H502.572V62.0332Z" fill="#FF4787"/>
<path d="M480.572 62.0332H477.429V65.1665H480.572V62.0332Z" fill="#FF4787"/>
<path d="M488.429 41.6666H491.571V38.5333H494.714V35.3999H491.571V32.2666H488.429V35.3999H485.286V38.5333H488.429V41.6666Z" fill="#FF4787"/>
</g>
<g filter="url(#filter9_ii_13_7459)">
<rect x="440" y="110" width="100" height="100" rx="15" fill="url(#paint9_linear_13_7459)"/>
</g>
<g clip-path="url(#clip9_13_7459)">
<path d="M502.571 159.5H496.286V162.633H502.571V159.5Z" fill="#FF4787"/>
<path d="M493.143 159.5H486.857V162.633H493.143V159.5Z" fill="#FF4787"/>
<path d="M483.714 159.5H477.429V162.633H483.714V159.5Z" fill="#FF4787"/>
<path d="M502.571 165.767H496.286V168.9H502.571V165.767Z" fill="#FF4787"/>
<path d="M493.143 165.767H486.857V168.9H493.143V165.767Z" fill="#FF4787"/>
<path d="M483.714 165.767H477.429V168.9H483.714V165.767Z" fill="#FF4787"/>
<path d="M508.857 179.867V153.233C509.725 153.233 510.429 152.532 510.429 151.667C510.429 150.802 509.725 150.1 508.857 150.1H500.543C500.84 149.107 501 148.055 501 146.967C501 140.92 496.065 136 490 136C483.935 136 479 140.92 479 146.967C479 148.055 479.16 149.107 479.457 150.1H471.143C470.275 150.1 469.571 150.802 469.571 151.667C469.571 152.532 470.275 153.233 471.143 153.233V179.867H468V183H512V179.867H508.857ZM490 139.133C494.332 139.133 497.857 142.648 497.857 146.967C497.857 151.286 494.332 154.8 490 154.8C487.118 154.8 484.594 153.245 483.227 150.932C483.209 150.898 483.189 150.865 483.168 150.832C482.516 149.69 482.143 148.371 482.143 146.967C482.143 142.648 485.667 139.133 490 139.133ZM486.857 179.867V175.167H493.143V179.867H486.857ZM496.286 179.867V173.6C496.286 172.735 495.582 172.033 494.714 172.033H485.286C484.418 172.033 483.714 172.735 483.714 173.6V179.867H474.286V153.233H480.977C482.967 156.073 486.27 157.933 490 157.933C493.73 157.933 497.032 156.073 499.023 153.233H505.714V179.867H496.286Z" fill="#FF4787"/>
<path d="M502.572 172.033H499.429V175.167H502.572V172.033Z" fill="#FF4787"/>
<path d="M480.572 172.033H477.429V175.167H480.572V172.033Z" fill="#FF4787"/>
<path d="M488.429 151.667H491.571V148.533H494.714V145.4H491.571V142.267H488.429V145.4H485.286V148.533H488.429V151.667Z" fill="#FF4787"/>
</g>
<g filter="url(#filter10_ii_13_7459)">
<rect x="550" width="100" height="100" rx="15" fill="url(#paint10_linear_13_7459)"/>
</g>
<g clip-path="url(#clip10_13_7459)">
<path d="M612.571 49.5H606.286V52.6333H612.571V49.5Z" fill="#FF4787"/>
<path d="M603.143 49.5H596.857V52.6333H603.143V49.5Z" fill="#FF4787"/>
<path d="M593.714 49.5H587.429V52.6333H593.714V49.5Z" fill="#FF4787"/>
<path d="M612.571 55.7666H606.286V58.8999H612.571V55.7666Z" fill="#FF4787"/>
<path d="M603.143 55.7666H596.857V58.8999H603.143V55.7666Z" fill="#FF4787"/>
<path d="M593.714 55.7666H587.429V58.8999H593.714V55.7666Z" fill="#FF4787"/>
<path d="M618.857 69.8667V43.2333C619.725 43.2333 620.429 42.5317 620.429 41.6667C620.429 40.8016 619.725 40.1 618.857 40.1H610.543C610.84 39.1069 611 38.0551 611 36.9667C611 30.9197 606.065 26 600 26C593.935 26 589 30.9197 589 36.9667C589 38.0551 589.16 39.1069 589.457 40.1H581.143C580.275 40.1 579.571 40.8016 579.571 41.6667C579.571 42.5317 580.275 43.2333 581.143 43.2333V69.8667H578V73H622V69.8667H618.857ZM600 29.1333C604.332 29.1333 607.857 32.6475 607.857 36.9667C607.857 41.2858 604.332 44.8 600 44.8C597.118 44.8 594.594 43.245 593.227 40.9324C593.209 40.8981 593.189 40.8646 593.168 40.8317C592.516 39.6905 592.143 38.3713 592.143 36.9667C592.143 32.6475 595.667 29.1333 600 29.1333ZM596.857 69.8667V65.1667H603.143V69.8667H596.857ZM606.286 69.8667V63.6C606.286 62.7349 605.582 62.0333 604.714 62.0333H595.286C594.418 62.0333 593.714 62.7349 593.714 63.6V69.8667H584.286V43.2333H590.977C592.967 46.0726 596.27 47.9333 600 47.9333C603.73 47.9333 607.032 46.0726 609.023 43.2333H615.714V69.8667H606.286Z" fill="#FF4787"/>
<path d="M612.572 62.0332H609.429V65.1665H612.572V62.0332Z" fill="#FF4787"/>
<path d="M590.572 62.0332H587.429V65.1665H590.572V62.0332Z" fill="#FF4787"/>
<path d="M598.429 41.6666H601.571V38.5333H604.714V35.3999H601.571V32.2666H598.429V35.3999H595.286V38.5333H598.429V41.6666Z" fill="#FF4787"/>
</g>
<g filter="url(#filter11_ii_13_7459)">
<rect x="550" y="110" width="100" height="100" rx="15" fill="url(#paint11_linear_13_7459)"/>
</g>
<g clip-path="url(#clip11_13_7459)">
<path d="M612.571 159.5H606.286V162.633H612.571V159.5Z" fill="#FF4787"/>
<path d="M603.143 159.5H596.857V162.633H603.143V159.5Z" fill="#FF4787"/>
<path d="M593.714 159.5H587.429V162.633H593.714V159.5Z" fill="#FF4787"/>
<path d="M612.571 165.767H606.286V168.9H612.571V165.767Z" fill="#FF4787"/>
<path d="M603.143 165.767H596.857V168.9H603.143V165.767Z" fill="#FF4787"/>
<path d="M593.714 165.767H587.429V168.9H593.714V165.767Z" fill="#FF4787"/>
<path d="M618.857 179.867V153.233C619.725 153.233 620.429 152.532 620.429 151.667C620.429 150.802 619.725 150.1 618.857 150.1H610.543C610.84 149.107 611 148.055 611 146.967C611 140.92 606.065 136 600 136C593.935 136 589 140.92 589 146.967C589 148.055 589.16 149.107 589.457 150.1H581.143C580.275 150.1 579.571 150.802 579.571 151.667C579.571 152.532 580.275 153.233 581.143 153.233V179.867H578V183H622V179.867H618.857ZM600 139.133C604.332 139.133 607.857 142.648 607.857 146.967C607.857 151.286 604.332 154.8 600 154.8C597.118 154.8 594.594 153.245 593.227 150.932C593.209 150.898 593.189 150.865 593.168 150.832C592.516 149.69 592.143 148.371 592.143 146.967C592.143 142.648 595.667 139.133 600 139.133ZM596.857 179.867V175.167H603.143V179.867H596.857ZM606.286 179.867V173.6C606.286 172.735 605.582 172.033 604.714 172.033H595.286C594.418 172.033 593.714 172.735 593.714 173.6V179.867H584.286V153.233H590.977C592.967 156.073 596.27 157.933 600 157.933C603.73 157.933 607.032 156.073 609.023 153.233H615.714V179.867H606.286Z" fill="#FF4787"/>
<path d="M612.572 172.033H609.429V175.167H612.572V172.033Z" fill="#FF4787"/>
<path d="M590.572 172.033H587.429V175.167H590.572V172.033Z" fill="#FF4787"/>
<path d="M598.429 151.667H601.571V148.533H604.714V145.4H601.571V142.267H598.429V145.4H595.286V148.533H598.429V151.667Z" fill="#FF4787"/>
</g>
<g filter="url(#filter12_ii_13_7459)">
<rect x="660" width="100" height="100" rx="15" fill="url(#paint12_linear_13_7459)"/>
</g>
<g clip-path="url(#clip12_13_7459)">
<path d="M722.571 49.5H716.286V52.6333H722.571V49.5Z" fill="#FF4787"/>
<path d="M713.143 49.5H706.857V52.6333H713.143V49.5Z" fill="#FF4787"/>
<path d="M703.714 49.5H697.429V52.6333H703.714V49.5Z" fill="#FF4787"/>
<path d="M722.571 55.7666H716.286V58.8999H722.571V55.7666Z" fill="#FF4787"/>
<path d="M713.143 55.7666H706.857V58.8999H713.143V55.7666Z" fill="#FF4787"/>
<path d="M703.714 55.7666H697.429V58.8999H703.714V55.7666Z" fill="#FF4787"/>
<path d="M728.857 69.8667V43.2333C729.725 43.2333 730.429 42.5317 730.429 41.6667C730.429 40.8016 729.725 40.1 728.857 40.1H720.543C720.84 39.1069 721 38.0551 721 36.9667C721 30.9197 716.065 26 710 26C703.935 26 699 30.9197 699 36.9667C699 38.0551 699.16 39.1069 699.457 40.1H691.143C690.275 40.1 689.571 40.8016 689.571 41.6667C689.571 42.5317 690.275 43.2333 691.143 43.2333V69.8667H688V73H732V69.8667H728.857ZM710 29.1333C714.332 29.1333 717.857 32.6475 717.857 36.9667C717.857 41.2858 714.332 44.8 710 44.8C707.118 44.8 704.594 43.245 703.227 40.9324C703.209 40.8981 703.189 40.8646 703.168 40.8317C702.516 39.6905 702.143 38.3713 702.143 36.9667C702.143 32.6475 705.667 29.1333 710 29.1333ZM706.857 69.8667V65.1667H713.143V69.8667H706.857ZM716.286 69.8667V63.6C716.286 62.7349 715.582 62.0333 714.714 62.0333H705.286C704.418 62.0333 703.714 62.7349 703.714 63.6V69.8667H694.286V43.2333H700.977C702.967 46.0726 706.27 47.9333 710 47.9333C713.73 47.9333 717.032 46.0726 719.023 43.2333H725.714V69.8667H716.286Z" fill="#FF4787"/>
<path d="M722.572 62.0332H719.429V65.1665H722.572V62.0332Z" fill="#FF4787"/>
<path d="M700.572 62.0332H697.429V65.1665H700.572V62.0332Z" fill="#FF4787"/>
<path d="M708.429 41.6666H711.571V38.5333H714.714V35.3999H711.571V32.2666H708.429V35.3999H705.286V38.5333H708.429V41.6666Z" fill="#FF4787"/>
</g>
<g filter="url(#filter13_ii_13_7459)">
<rect x="660" y="110" width="100" height="100" rx="15" fill="url(#paint13_linear_13_7459)"/>
</g>
<g clip-path="url(#clip13_13_7459)">
<path d="M722.571 159.5H716.286V162.633H722.571V159.5Z" fill="#FF4787"/>
<path d="M713.143 159.5H706.857V162.633H713.143V159.5Z" fill="#FF4787"/>
<path d="M703.714 159.5H697.429V162.633H703.714V159.5Z" fill="#FF4787"/>
<path d="M722.571 165.767H716.286V168.9H722.571V165.767Z" fill="#FF4787"/>
<path d="M713.143 165.767H706.857V168.9H713.143V165.767Z" fill="#FF4787"/>
<path d="M703.714 165.767H697.429V168.9H703.714V165.767Z" fill="#FF4787"/>
<path d="M728.857 179.867V153.233C729.725 153.233 730.429 152.532 730.429 151.667C730.429 150.802 729.725 150.1 728.857 150.1H720.543C720.84 149.107 721 148.055 721 146.967C721 140.92 716.065 136 710 136C703.935 136 699 140.92 699 146.967C699 148.055 699.16 149.107 699.457 150.1H691.143C690.275 150.1 689.571 150.802 689.571 151.667C689.571 152.532 690.275 153.233 691.143 153.233V179.867H688V183H732V179.867H728.857ZM710 139.133C714.332 139.133 717.857 142.648 717.857 146.967C717.857 151.286 714.332 154.8 710 154.8C707.118 154.8 704.594 153.245 703.227 150.932C703.209 150.898 703.189 150.865 703.168 150.832C702.516 149.69 702.143 148.371 702.143 146.967C702.143 142.648 705.667 139.133 710 139.133ZM706.857 179.867V175.167H713.143V179.867H706.857ZM716.286 179.867V173.6C716.286 172.735 715.582 172.033 714.714 172.033H705.286C704.418 172.033 703.714 172.735 703.714 173.6V179.867H694.286V153.233H700.977C702.967 156.073 706.27 157.933 710 157.933C713.73 157.933 717.032 156.073 719.023 153.233H725.714V179.867H716.286Z" fill="#FF4787"/>
<path d="M722.572 172.033H719.429V175.167H722.572V172.033Z" fill="#FF4787"/>
<path d="M700.572 172.033H697.429V175.167H700.572V172.033Z" fill="#FF4787"/>
<path d="M708.429 151.667H711.571V148.533H714.714V145.4H711.571V142.267H708.429V145.4H705.286V148.533H708.429V151.667Z" fill="#FF4787"/>
</g>
<g filter="url(#filter14_ii_13_7459)">
<rect x="770" width="100" height="100" rx="15" fill="url(#paint14_linear_13_7459)"/>
</g>
<g clip-path="url(#clip14_13_7459)">
<path d="M832.571 49.5H826.286V52.6333H832.571V49.5Z" fill="#FF4787"/>
<path d="M823.143 49.5H816.857V52.6333H823.143V49.5Z" fill="#FF4787"/>
<path d="M813.714 49.5H807.429V52.6333H813.714V49.5Z" fill="#FF4787"/>
<path d="M832.571 55.7666H826.286V58.8999H832.571V55.7666Z" fill="#FF4787"/>
<path d="M823.143 55.7666H816.857V58.8999H823.143V55.7666Z" fill="#FF4787"/>
<path d="M813.714 55.7666H807.429V58.8999H813.714V55.7666Z" fill="#FF4787"/>
<path d="M838.857 69.8667V43.2333C839.725 43.2333 840.429 42.5317 840.429 41.6667C840.429 40.8016 839.725 40.1 838.857 40.1H830.543C830.84 39.1069 831 38.0551 831 36.9667C831 30.9197 826.065 26 820 26C813.935 26 809 30.9197 809 36.9667C809 38.0551 809.16 39.1069 809.457 40.1H801.143C800.275 40.1 799.571 40.8016 799.571 41.6667C799.571 42.5317 800.275 43.2333 801.143 43.2333V69.8667H798V73H842V69.8667H838.857ZM820 29.1333C824.332 29.1333 827.857 32.6475 827.857 36.9667C827.857 41.2858 824.332 44.8 820 44.8C817.118 44.8 814.594 43.245 813.227 40.9324C813.209 40.8981 813.189 40.8646 813.168 40.8317C812.516 39.6905 812.143 38.3713 812.143 36.9667C812.143 32.6475 815.667 29.1333 820 29.1333ZM816.857 69.8667V65.1667H823.143V69.8667H816.857ZM826.286 69.8667V63.6C826.286 62.7349 825.582 62.0333 824.714 62.0333H815.286C814.418 62.0333 813.714 62.7349 813.714 63.6V69.8667H804.286V43.2333H810.977C812.967 46.0726 816.27 47.9333 820 47.9333C823.73 47.9333 827.032 46.0726 829.023 43.2333H835.714V69.8667H826.286Z" fill="#FF4787"/>
<path d="M832.572 62.0332H829.429V65.1665H832.572V62.0332Z" fill="#FF4787"/>
<path d="M810.572 62.0332H807.429V65.1665H810.572V62.0332Z" fill="#FF4787"/>
<path d="M818.429 41.6666H821.571V38.5333H824.714V35.3999H821.571V32.2666H818.429V35.3999H815.286V38.5333H818.429V41.6666Z" fill="#FF4787"/>
</g>
<g filter="url(#filter15_ii_13_7459)">
<rect x="770" y="110" width="100" height="100" rx="15" fill="url(#paint15_linear_13_7459)"/>
</g>
<g clip-path="url(#clip15_13_7459)">
<path d="M832.571 159.5H826.286V162.633H832.571V159.5Z" fill="#FF4787"/>
<path d="M823.143 159.5H816.857V162.633H823.143V159.5Z" fill="#FF4787"/>
<path d="M813.714 159.5H807.429V162.633H813.714V159.5Z" fill="#FF4787"/>
<path d="M832.571 165.767H826.286V168.9H832.571V165.767Z" fill="#FF4787"/>
<path d="M823.143 165.767H816.857V168.9H823.143V165.767Z" fill="#FF4787"/>
<path d="M813.714 165.767H807.429V168.9H813.714V165.767Z" fill="#FF4787"/>
<path d="M838.857 179.867V153.233C839.725 153.233 840.429 152.532 840.429 151.667C840.429 150.802 839.725 150.1 838.857 150.1H830.543C830.84 149.107 831 148.055 831 146.967C831 140.92 826.065 136 820 136C813.935 136 809 140.92 809 146.967C809 148.055 809.16 149.107 809.457 150.1H801.143C800.275 150.1 799.571 150.802 799.571 151.667C799.571 152.532 800.275 153.233 801.143 153.233V179.867H798V183H842V179.867H838.857ZM820 139.133C824.332 139.133 827.857 142.648 827.857 146.967C827.857 151.286 824.332 154.8 820 154.8C817.118 154.8 814.594 153.245 813.227 150.932C813.209 150.898 813.189 150.865 813.168 150.832C812.516 149.69 812.143 148.371 812.143 146.967C812.143 142.648 815.667 139.133 820 139.133ZM816.857 179.867V175.167H823.143V179.867H816.857ZM826.286 179.867V173.6C826.286 172.735 825.582 172.033 824.714 172.033H815.286C814.418 172.033 813.714 172.735 813.714 173.6V179.867H804.286V153.233H810.977C812.967 156.073 816.27 157.933 820 157.933C823.73 157.933 827.032 156.073 829.023 153.233H835.714V179.867H826.286Z" fill="#FF4787"/>
<path d="M832.572 172.033H829.429V175.167H832.572V172.033Z" fill="#FF4787"/>
<path d="M810.572 172.033H807.429V175.167H810.572V172.033Z" fill="#FF4787"/>
<path d="M818.429 151.667H821.571V148.533H824.714V145.4H821.571V142.267H818.429V145.4H815.286V148.533H818.429V151.667Z" fill="#FF4787"/>
</g>
<g filter="url(#filter16_ii_13_7459)">
<rect x="880" width="100" height="100" rx="15" fill="url(#paint16_linear_13_7459)"/>
</g>
<g clip-path="url(#clip16_13_7459)">
<path d="M942.571 49.5H936.286V52.6333H942.571V49.5Z" fill="#FF4787"/>
<path d="M933.143 49.5H926.857V52.6333H933.143V49.5Z" fill="#FF4787"/>
<path d="M923.714 49.5H917.429V52.6333H923.714V49.5Z" fill="#FF4787"/>
<path d="M942.571 55.7666H936.286V58.8999H942.571V55.7666Z" fill="#FF4787"/>
<path d="M933.143 55.7666H926.857V58.8999H933.143V55.7666Z" fill="#FF4787"/>
<path d="M923.714 55.7666H917.429V58.8999H923.714V55.7666Z" fill="#FF4787"/>
<path d="M948.857 69.8667V43.2333C949.725 43.2333 950.429 42.5317 950.429 41.6667C950.429 40.8016 949.725 40.1 948.857 40.1H940.543C940.84 39.1069 941 38.0551 941 36.9667C941 30.9197 936.065 26 930 26C923.935 26 919 30.9197 919 36.9667C919 38.0551 919.16 39.1069 919.457 40.1H911.143C910.275 40.1 909.571 40.8016 909.571 41.6667C909.571 42.5317 910.275 43.2333 911.143 43.2333V69.8667H908V73H952V69.8667H948.857ZM930 29.1333C934.332 29.1333 937.857 32.6475 937.857 36.9667C937.857 41.2858 934.332 44.8 930 44.8C927.118 44.8 924.594 43.245 923.227 40.9324C923.209 40.8981 923.189 40.8646 923.168 40.8317C922.516 39.6905 922.143 38.3713 922.143 36.9667C922.143 32.6475 925.667 29.1333 930 29.1333ZM926.857 69.8667V65.1667H933.143V69.8667H926.857ZM936.286 69.8667V63.6C936.286 62.7349 935.582 62.0333 934.714 62.0333H925.286C924.418 62.0333 923.714 62.7349 923.714 63.6V69.8667H914.286V43.2333H920.977C922.967 46.0726 926.27 47.9333 930 47.9333C933.73 47.9333 937.032 46.0726 939.023 43.2333H945.714V69.8667H936.286Z" fill="#FF4787"/>
<path d="M942.572 62.0332H939.429V65.1665H942.572V62.0332Z" fill="#FF4787"/>
<path d="M920.572 62.0332H917.429V65.1665H920.572V62.0332Z" fill="#FF4787"/>
<path d="M928.429 41.6666H931.571V38.5333H934.714V35.3999H931.571V32.2666H928.429V35.3999H925.286V38.5333H928.429V41.6666Z" fill="#FF4787"/>
</g>
<g filter="url(#filter17_ii_13_7459)">
<rect x="880" y="110" width="100" height="100" rx="15" fill="url(#paint17_linear_13_7459)"/>
</g>
<g clip-path="url(#clip17_13_7459)">
<path d="M942.571 159.5H936.286V162.633H942.571V159.5Z" fill="#FF4787"/>
<path d="M933.143 159.5H926.857V162.633H933.143V159.5Z" fill="#FF4787"/>
<path d="M923.714 159.5H917.429V162.633H923.714V159.5Z" fill="#FF4787"/>
<path d="M942.571 165.767H936.286V168.9H942.571V165.767Z" fill="#FF4787"/>
<path d="M933.143 165.767H926.857V168.9H933.143V165.767Z" fill="#FF4787"/>
<path d="M923.714 165.767H917.429V168.9H923.714V165.767Z" fill="#FF4787"/>
<path d="M948.857 179.867V153.233C949.725 153.233 950.429 152.532 950.429 151.667C950.429 150.802 949.725 150.1 948.857 150.1H940.543C940.84 149.107 941 148.055 941 146.967C941 140.92 936.065 136 930 136C923.935 136 919 140.92 919 146.967C919 148.055 919.16 149.107 919.457 150.1H911.143C910.275 150.1 909.571 150.802 909.571 151.667C909.571 152.532 910.275 153.233 911.143 153.233V179.867H908V183H952V179.867H948.857ZM930 139.133C934.332 139.133 937.857 142.648 937.857 146.967C937.857 151.286 934.332 154.8 930 154.8C927.118 154.8 924.594 153.245 923.227 150.932C923.209 150.898 923.189 150.865 923.168 150.832C922.516 149.69 922.143 148.371 922.143 146.967C922.143 142.648 925.667 139.133 930 139.133ZM926.857 179.867V175.167H933.143V179.867H926.857ZM936.286 179.867V173.6C936.286 172.735 935.582 172.033 934.714 172.033H925.286C924.418 172.033 923.714 172.735 923.714 173.6V179.867H914.286V153.233H920.977C922.967 156.073 926.27 157.933 930 157.933C933.73 157.933 937.032 156.073 939.023 153.233H945.714V179.867H936.286Z" fill="#FF4787"/>
<path d="M942.572 172.033H939.429V175.167H942.572V172.033Z" fill="#FF4787"/>
<path d="M920.572 172.033H917.429V175.167H920.572V172.033Z" fill="#FF4787"/>
<path d="M928.429 151.667H931.571V148.533H934.714V145.4H931.571V142.267H928.429V145.4H925.286V148.533H928.429V151.667Z" fill="#FF4787"/>
</g>
<defs>
<filter id="filter0_ii_13_7459" x="-2" y="-2" width="104" height="105" filterUnits="userSpaceOnUse" color-interpolation-filters="sRGB">
<feFlood flood-opacity="0" result="BackgroundImageFix"/>
<feBlend mode="normal" in="SourceGraphic" in2="BackgroundImageFix" result="shape"/>
<feColorMatrix in="SourceAlpha" type="matrix" values="0 0 0 0 0 0 0 0 0 0 0 0 0 0 0 0 0 0 127 0" result="hardAlpha"/>
<feOffset dx="2" dy="3"/>
<feGaussianBlur stdDeviation="5"/>
<feComposite in2="hardAlpha" operator="arithmetic" k2="-1" k3="1"/>
<feColorMatrix type="matrix" values="0 0 0 0 0.0255 0 0 0 0 0.0285361 0 0 0 0 0.0345 0 0 0 1 0"/>
<feBlend mode="normal" in2="shape" result="effect1_innerShadow_13_7459"/>
<feColorMatrix in="SourceAlpha" type="matrix" values="0 0 0 0 0 0 0 0 0 0 0 0 0 0 0 0 0 0 127 0" result="hardAlpha"/>
<feOffset dx="-2" dy="-2"/>
<feGaussianBlur stdDeviation="5"/>
<feComposite in2="hardAlpha" operator="arithmetic" k2="-1" k3="1"/>
<feColorMatrix type="matrix" values="0 0 0 0 1 0 0 0 0 1 0 0 0 0 1 0 0 0 0.05 0"/>
<feBlend mode="normal" in2="effect1_innerShadow_13_7459" result="effect2_innerShadow_13_7459"/>
</filter>
<filter id="filter1_ii_13_7459" x="-2" y="108" width="104" height="105" filterUnits="userSpaceOnUse" color-interpolation-filters="sRGB">
<feFlood flood-opacity="0" result="BackgroundImageFix"/>
<feBlend mode="normal" in="SourceGraphic" in2="BackgroundImageFix" result="shape"/>
<feColorMatrix in="SourceAlpha" type="matrix" values="0 0 0 0 0 0 0 0 0 0 0 0 0 0 0 0 0 0 127 0" result="hardAlpha"/>
<feOffset dx="2" dy="3"/>
<feGaussianBlur stdDeviation="5"/>
<feComposite in2="hardAlpha" operator="arithmetic" k2="-1" k3="1"/>
<feColorMatrix type="matrix" values="0 0 0 0 0.0255 0 0 0 0 0.0285361 0 0 0 0 0.0345 0 0 0 1 0"/>
<feBlend mode="normal" in2="shape" result="effect1_innerShadow_13_7459"/>
<feColorMatrix in="SourceAlpha" type="matrix" values="0 0 0 0 0 0 0 0 0 0 0 0 0 0 0 0 0 0 127 0" result="hardAlpha"/>
<feOffset dx="-2" dy="-2"/>
<feGaussianBlur stdDeviation="5"/>
<feComposite in2="hardAlpha" operator="arithmetic" k2="-1" k3="1"/>
<feColorMatrix type="matrix" values="0 0 0 0 1 0 0 0 0 1 0 0 0 0 1 0 0 0 0.05 0"/>
<feBlend mode="normal" in2="effect1_innerShadow_13_7459" result="effect2_innerShadow_13_7459"/>
</filter>
<filter id="filter2_ii_13_7459" x="108" y="-2" width="104" height="105" filterUnits="userSpaceOnUse" color-interpolation-filters="sRGB">
<feFlood flood-opacity="0" result="BackgroundImageFix"/>
<feBlend mode="normal" in="SourceGraphic" in2="BackgroundImageFix" result="shape"/>
<feColorMatrix in="SourceAlpha" type="matrix" values="0 0 0 0 0 0 0 0 0 0 0 0 0 0 0 0 0 0 127 0" result="hardAlpha"/>
<feOffset dx="2" dy="3"/>
<feGaussianBlur stdDeviation="5"/>
<feComposite in2="hardAlpha" operator="arithmetic" k2="-1" k3="1"/>
<feColorMatrix type="matrix" values="0 0 0 0 0.0255 0 0 0 0 0.0285361 0 0 0 0 0.0345 0 0 0 1 0"/>
<feBlend mode="normal" in2="shape" result="effect1_innerShadow_13_7459"/>
<feColorMatrix in="SourceAlpha" type="matrix" values="0 0 0 0 0 0 0 0 0 0 0 0 0 0 0 0 0 0 127 0" result="hardAlpha"/>
<feOffset dx="-2" dy="-2"/>
<feGaussianBlur stdDeviation="5"/>
<feComposite in2="hardAlpha" operator="arithmetic" k2="-1" k3="1"/>
<feColorMatrix type="matrix" values="0 0 0 0 1 0 0 0 0 1 0 0 0 0 1 0 0 0 0.05 0"/>
<feBlend mode="normal" in2="effect1_innerShadow_13_7459" result="effect2_innerShadow_13_7459"/>
</filter>
<filter id="filter3_ii_13_7459" x="108" y="108" width="104" height="105" filterUnits="userSpaceOnUse" color-interpolation-filters="sRGB">
<feFlood flood-opacity="0" result="BackgroundImageFix"/>
<feBlend mode="normal" in="SourceGraphic" in2="BackgroundImageFix" result="shape"/>
<feColorMatrix in="SourceAlpha" type="matrix" values="0 0 0 0 0 0 0 0 0 0 0 0 0 0 0 0 0 0 127 0" result="hardAlpha"/>
<feOffset dx="2" dy="3"/>
<feGaussianBlur stdDeviation="5"/>
<feComposite in2="hardAlpha" operator="arithmetic" k2="-1" k3="1"/>
<feColorMatrix type="matrix" values="0 0 0 0 0.0255 0 0 0 0 0.0285361 0 0 0 0 0.0345 0 0 0 1 0"/>
<feBlend mode="normal" in2="shape" result="effect1_innerShadow_13_7459"/>
<feColorMatrix in="SourceAlpha" type="matrix" values="0 0 0 0 0 0 0 0 0 0 0 0 0 0 0 0 0 0 127 0" result="hardAlpha"/>
<feOffset dx="-2" dy="-2"/>
<feGaussianBlur stdDeviation="5"/>
<feComposite in2="hardAlpha" operator="arithmetic" k2="-1" k3="1"/>
<feColorMatrix type="matrix" values="0 0 0 0 1 0 0 0 0 1 0 0 0 0 1 0 0 0 0.05 0"/>
<feBlend mode="normal" in2="effect1_innerShadow_13_7459" result="effect2_innerShadow_13_7459"/>
</filter>
<filter id="filter4_ii_13_7459" x="218" y="-2" width="104" height="105" filterUnits="userSpaceOnUse" color-interpolation-filters="sRGB">
<feFlood flood-opacity="0" result="BackgroundImageFix"/>
<feBlend mode="normal" in="SourceGraphic" in2="BackgroundImageFix" result="shape"/>
<feColorMatrix in="SourceAlpha" type="matrix" values="0 0 0 0 0 0 0 0 0 0 0 0 0 0 0 0 0 0 127 0" result="hardAlpha"/>
<feOffset dx="2" dy="3"/>
<feGaussianBlur stdDeviation="5"/>
<feComposite in2="hardAlpha" operator="arithmetic" k2="-1" k3="1"/>
<feColorMatrix type="matrix" values="0 0 0 0 0.0255 0 0 0 0 0.0285361 0 0 0 0 0.0345 0 0 0 1 0"/>
<feBlend mode="normal" in2="shape" result="effect1_innerShadow_13_7459"/>
<feColorMatrix in="SourceAlpha" type="matrix" values="0 0 0 0 0 0 0 0 0 0 0 0 0 0 0 0 0 0 127 0" result="hardAlpha"/>
<feOffset dx="-2" dy="-2"/>
<feGaussianBlur stdDeviation="5"/>
<feComposite in2="hardAlpha" operator="arithmetic" k2="-1" k3="1"/>
<feColorMatrix type="matrix" values="0 0 0 0 1 0 0 0 0 1 0 0 0 0 1 0 0 0 0.05 0"/>
<feBlend mode="normal" in2="effect1_innerShadow_13_7459" result="effect2_innerShadow_13_7459"/>
</filter>
<filter id="filter5_ii_13_7459" x="218" y="108" width="104" height="105" filterUnits="userSpaceOnUse" color-interpolation-filters="sRGB">
<feFlood flood-opacity="0" result="BackgroundImageFix"/>
<feBlend mode="normal" in="SourceGraphic" in2="BackgroundImageFix" result="shape"/>
<feColorMatrix in="SourceAlpha" type="matrix" values="0 0 0 0 0 0 0 0 0 0 0 0 0 0 0 0 0 0 127 0" result="hardAlpha"/>
<feOffset dx="2" dy="3"/>
<feGaussianBlur stdDeviation="5"/>
<feComposite in2="hardAlpha" operator="arithmetic" k2="-1" k3="1"/>
<feColorMatrix type="matrix" values="0 0 0 0 0.0255 0 0 0 0 0.0285361 0 0 0 0 0.0345 0 0 0 1 0"/>
<feBlend mode="normal" in2="shape" result="effect1_innerShadow_13_7459"/>
<feColorMatrix in="SourceAlpha" type="matrix" values="0 0 0 0 0 0 0 0 0 0 0 0 0 0 0 0 0 0 127 0" result="hardAlpha"/>
<feOffset dx="-2" dy="-2"/>
<feGaussianBlur stdDeviation="5"/>
<feComposite in2="hardAlpha" operator="arithmetic" k2="-1" k3="1"/>
<feColorMatrix type="matrix" values="0 0 0 0 1 0 0 0 0 1 0 0 0 0 1 0 0 0 0.05 0"/>
<feBlend mode="normal" in2="effect1_innerShadow_13_7459" result="effect2_innerShadow_13_7459"/>
</filter>
<filter id="filter6_ii_13_7459" x="328" y="-2" width="104" height="105" filterUnits="userSpaceOnUse" color-interpolation-filters="sRGB">
<feFlood flood-opacity="0" result="BackgroundImageFix"/>
<feBlend mode="normal" in="SourceGraphic" in2="BackgroundImageFix" result="shape"/>
<feColorMatrix in="SourceAlpha" type="matrix" values="0 0 0 0 0 0 0 0 0 0 0 0 0 0 0 0 0 0 127 0" result="hardAlpha"/>
<feOffset dx="2" dy="3"/>
<feGaussianBlur stdDeviation="5"/>
<feComposite in2="hardAlpha" operator="arithmetic" k2="-1" k3="1"/>
<feColorMatrix type="matrix" values="0 0 0 0 0.0255 0 0 0 0 0.0285361 0 0 0 0 0.0345 0 0 0 1 0"/>
<feBlend mode="normal" in2="shape" result="effect1_innerShadow_13_7459"/>
<feColorMatrix in="SourceAlpha" type="matrix" values="0 0 0 0 0 0 0 0 0 0 0 0 0 0 0 0 0 0 127 0" result="hardAlpha"/>
<feOffset dx="-2" dy="-2"/>
<feGaussianBlur stdDeviation="5"/>
<feComposite in2="hardAlpha" operator="arithmetic" k2="-1" k3="1"/>
<feColorMatrix type="matrix" values="0 0 0 0 1 0 0 0 0 1 0 0 0 0 1 0 0 0 0.05 0"/>
<feBlend mode="normal" in2="effect1_innerShadow_13_7459" result="effect2_innerShadow_13_7459"/>
</filter>
<filter id="filter7_ii_13_7459" x="328" y="108" width="104" height="105" filterUnits="userSpaceOnUse" color-interpolation-filters="sRGB">
<feFlood flood-opacity="0" result="BackgroundImageFix"/>
<feBlend mode="normal" in="SourceGraphic" in2="BackgroundImageFix" result="shape"/>
<feColorMatrix in="SourceAlpha" type="matrix" values="0 0 0 0 0 0 0 0 0 0 0 0 0 0 0 0 0 0 127 0" result="hardAlpha"/>
<feOffset dx="2" dy="3"/>
<feGaussianBlur stdDeviation="5"/>
<feComposite in2="hardAlpha" operator="arithmetic" k2="-1" k3="1"/>
<feColorMatrix type="matrix" values="0 0 0 0 0.0255 0 0 0 0 0.0285361 0 0 0 0 0.0345 0 0 0 1 0"/>
<feBlend mode="normal" in2="shape" result="effect1_innerShadow_13_7459"/>
<feColorMatrix in="SourceAlpha" type="matrix" values="0 0 0 0 0 0 0 0 0 0 0 0 0 0 0 0 0 0 127 0" result="hardAlpha"/>
<feOffset dx="-2" dy="-2"/>
<feGaussianBlur stdDeviation="5"/>
<feComposite in2="hardAlpha" operator="arithmetic" k2="-1" k3="1"/>
<feColorMatrix type="matrix" values="0 0 0 0 1 0 0 0 0 1 0 0 0 0 1 0 0 0 0.05 0"/>
<feBlend mode="normal" in2="effect1_innerShadow_13_7459" result="effect2_innerShadow_13_7459"/>
</filter>
<filter id="filter8_ii_13_7459" x="438" y="-2" width="104" height="105" filterUnits="userSpaceOnUse" color-interpolation-filters="sRGB">
<feFlood flood-opacity="0" result="BackgroundImageFix"/>
<feBlend mode="normal" in="SourceGraphic" in2="BackgroundImageFix" result="shape"/>
<feColorMatrix in="SourceAlpha" type="matrix" values="0 0 0 0 0 0 0 0 0 0 0 0 0 0 0 0 0 0 127 0" result="hardAlpha"/>
<feOffset dx="2" dy="3"/>
<feGaussianBlur stdDeviation="5"/>
<feComposite in2="hardAlpha" operator="arithmetic" k2="-1" k3="1"/>
<feColorMatrix type="matrix" values="0 0 0 0 0.0255 0 0 0 0 0.0285361 0 0 0 0 0.0345 0 0 0 1 0"/>
<feBlend mode="normal" in2="shape" result="effect1_innerShadow_13_7459"/>
<feColorMatrix in="SourceAlpha" type="matrix" values="0 0 0 0 0 0 0 0 0 0 0 0 0 0 0 0 0 0 127 0" result="hardAlpha"/>
<feOffset dx="-2" dy="-2"/>
<feGaussianBlur stdDeviation="5"/>
<feComposite in2="hardAlpha" operator="arithmetic" k2="-1" k3="1"/>
<feColorMatrix type="matrix" values="0 0 0 0 1 0 0 0 0 1 0 0 0 0 1 0 0 0 0.05 0"/>
<feBlend mode="normal" in2="effect1_innerShadow_13_7459" result="effect2_innerShadow_13_7459"/>
</filter>
<filter id="filter9_ii_13_7459" x="438" y="108" width="104" height="105" filterUnits="userSpaceOnUse" color-interpolation-filters="sRGB">
<feFlood flood-opacity="0" result="BackgroundImageFix"/>
<feBlend mode="normal" in="SourceGraphic" in2="BackgroundImageFix" result="shape"/>
<feColorMatrix in="SourceAlpha" type="matrix" values="0 0 0 0 0 0 0 0 0 0 0 0 0 0 0 0 0 0 127 0" result="hardAlpha"/>
<feOffset dx="2" dy="3"/>
<feGaussianBlur stdDeviation="5"/>
<feComposite in2="hardAlpha" operator="arithmetic" k2="-1" k3="1"/>
<feColorMatrix type="matrix" values="0 0 0 0 0.0255 0 0 0 0 0.0285361 0 0 0 0 0.0345 0 0 0 1 0"/>
<feBlend mode="normal" in2="shape" result="effect1_innerShadow_13_7459"/>
<feColorMatrix in="SourceAlpha" type="matrix" values="0 0 0 0 0 0 0 0 0 0 0 0 0 0 0 0 0 0 127 0" result="hardAlpha"/>
<feOffset dx="-2" dy="-2"/>
<feGaussianBlur stdDeviation="5"/>
<feComposite in2="hardAlpha" operator="arithmetic" k2="-1" k3="1"/>
<feColorMatrix type="matrix" values="0 0 0 0 1 0 0 0 0 1 0 0 0 0 1 0 0 0 0.05 0"/>
<feBlend mode="normal" in2="effect1_innerShadow_13_7459" result="effect2_innerShadow_13_7459"/>
</filter>
<filter id="filter10_ii_13_7459" x="548" y="-2" width="104" height="105" filterUnits="userSpaceOnUse" color-interpolation-filters="sRGB">
<feFlood flood-opacity="0" result="BackgroundImageFix"/>
<feBlend mode="normal" in="SourceGraphic" in2="BackgroundImageFix" result="shape"/>
<feColorMatrix in="SourceAlpha" type="matrix" values="0 0 0 0 0 0 0 0 0 0 0 0 0 0 0 0 0 0 127 0" result="hardAlpha"/>
<feOffset dx="2" dy="3"/>
<feGaussianBlur stdDeviation="5"/>
<feComposite in2="hardAlpha" operator="arithmetic" k2="-1" k3="1"/>
<feColorMatrix type="matrix" values="0 0 0 0 0.0255 0 0 0 0 0.0285361 0 0 0 0 0.0345 0 0 0 1 0"/>
<feBlend mode="normal" in2="shape" result="effect1_innerShadow_13_7459"/>
<feColorMatrix in="SourceAlpha" type="matrix" values="0 0 0 0 0 0 0 0 0 0 0 0 0 0 0 0 0 0 127 0" result="hardAlpha"/>
<feOffset dx="-2" dy="-2"/>
<feGaussianBlur stdDeviation="5"/>
<feComposite in2="hardAlpha" operator="arithmetic" k2="-1" k3="1"/>
<feColorMatrix type="matrix" values="0 0 0 0 1 0 0 0 0 1 0 0 0 0 1 0 0 0 0.05 0"/>
<feBlend mode="normal" in2="effect1_innerShadow_13_7459" result="effect2_innerShadow_13_7459"/>
</filter>
<filter id="filter11_ii_13_7459" x="548" y="108" width="104" height="105" filterUnits="userSpaceOnUse" color-interpolation-filters="sRGB">
<feFlood flood-opacity="0" result="BackgroundImageFix"/>
<feBlend mode="normal" in="SourceGraphic" in2="BackgroundImageFix" result="shape"/>
<feColorMatrix in="SourceAlpha" type="matrix" values="0 0 0 0 0 0 0 0 0 0 0 0 0 0 0 0 0 0 127 0" result="hardAlpha"/>
<feOffset dx="2" dy="3"/>
<feGaussianBlur stdDeviation="5"/>
<feComposite in2="hardAlpha" operator="arithmetic" k2="-1" k3="1"/>
<feColorMatrix type="matrix" values="0 0 0 0 0.0255 0 0 0 0 0.0285361 0 0 0 0 0.0345 0 0 0 1 0"/>
<feBlend mode="normal" in2="shape" result="effect1_innerShadow_13_7459"/>
<feColorMatrix in="SourceAlpha" type="matrix" values="0 0 0 0 0 0 0 0 0 0 0 0 0 0 0 0 0 0 127 0" result="hardAlpha"/>
<feOffset dx="-2" dy="-2"/>
<feGaussianBlur stdDeviation="5"/>
<feComposite in2="hardAlpha" operator="arithmetic" k2="-1" k3="1"/>
<feColorMatrix type="matrix" values="0 0 0 0 1 0 0 0 0 1 0 0 0 0 1 0 0 0 0.05 0"/>
<feBlend mode="normal" in2="effect1_innerShadow_13_7459" result="effect2_innerShadow_13_7459"/>
</filter>
<filter id="filter12_ii_13_7459" x="658" y="-2" width="104" height="105" filterUnits="userSpaceOnUse" color-interpolation-filters="sRGB">
<feFlood flood-opacity="0" result="BackgroundImageFix"/>
<feBlend mode="normal" in="SourceGraphic" in2="BackgroundImageFix" result="shape"/>
<feColorMatrix in="SourceAlpha" type="matrix" values="0 0 0 0 0 0 0 0 0 0 0 0 0 0 0 0 0 0 127 0" result="hardAlpha"/>
<feOffset dx="2" dy="3"/>
<feGaussianBlur stdDeviation="5"/>
<feComposite in2="hardAlpha" operator="arithmetic" k2="-1" k3="1"/>
<feColorMatrix type="matrix" values="0 0 0 0 0.0255 0 0 0 0 0.0285361 0 0 0 0 0.0345 0 0 0 1 0"/>
<feBlend mode="normal" in2="shape" result="effect1_innerShadow_13_7459"/>
<feColorMatrix in="SourceAlpha" type="matrix" values="0 0 0 0 0 0 0 0 0 0 0 0 0 0 0 0 0 0 127 0" result="hardAlpha"/>
<feOffset dx="-2" dy="-2"/>
<feGaussianBlur stdDeviation="5"/>
<feComposite in2="hardAlpha" operator="arithmetic" k2="-1" k3="1"/>
<feColorMatrix type="matrix" values="0 0 0 0 1 0 0 0 0 1 0 0 0 0 1 0 0 0 0.05 0"/>
<feBlend mode="normal" in2="effect1_innerShadow_13_7459" result="effect2_innerShadow_13_7459"/>
</filter>
<filter id="filter13_ii_13_7459" x="658" y="108" width="104" height="105" filterUnits="userSpaceOnUse" color-interpolation-filters="sRGB">
<feFlood flood-opacity="0" result="BackgroundImageFix"/>
<feBlend mode="normal" in="SourceGraphic" in2="BackgroundImageFix" result="shape"/>
<feColorMatrix in="SourceAlpha" type="matrix" values="0 0 0 0 0 0 0 0 0 0 0 0 0 0 0 0 0 0 127 0" result="hardAlpha"/>
<feOffset dx="2" dy="3"/>
<feGaussianBlur stdDeviation="5"/>
<feComposite in2="hardAlpha" operator="arithmetic" k2="-1" k3="1"/>
<feColorMatrix type="matrix" values="0 0 0 0 0.0255 0 0 0 0 0.0285361 0 0 0 0 0.0345 0 0 0 1 0"/>
<feBlend mode="normal" in2="shape" result="effect1_innerShadow_13_7459"/>
<feColorMatrix in="SourceAlpha" type="matrix" values="0 0 0 0 0 0 0 0 0 0 0 0 0 0 0 0 0 0 127 0" result="hardAlpha"/>
<feOffset dx="-2" dy="-2"/>
<feGaussianBlur stdDeviation="5"/>
<feComposite in2="hardAlpha" operator="arithmetic" k2="-1" k3="1"/>
<feColorMatrix type="matrix" values="0 0 0 0 1 0 0 0 0 1 0 0 0 0 1 0 0 0 0.05 0"/>
<feBlend mode="normal" in2="effect1_innerShadow_13_7459" result="effect2_innerShadow_13_7459"/>
</filter>
<filter id="filter14_ii_13_7459" x="768" y="-2" width="104" height="105" filterUnits="userSpaceOnUse" color-interpolation-filters="sRGB">
<feFlood flood-opacity="0" result="BackgroundImageFix"/>
<feBlend mode="normal" in="SourceGraphic" in2="BackgroundImageFix" result="shape"/>
<feColorMatrix in="SourceAlpha" type="matrix" values="0 0 0 0 0 0 0 0 0 0 0 0 0 0 0 0 0 0 127 0" result="hardAlpha"/>
<feOffset dx="2" dy="3"/>
<feGaussianBlur stdDeviation="5"/>
<feComposite in2="hardAlpha" operator="arithmetic" k2="-1" k3="1"/>
<feColorMatrix type="matrix" values="0 0 0 0 0.0255 0 0 0 0 0.0285361 0 0 0 0 0.0345 0 0 0 1 0"/>
<feBlend mode="normal" in2="shape" result="effect1_innerShadow_13_7459"/>
<feColorMatrix in="SourceAlpha" type="matrix" values="0 0 0 0 0 0 0 0 0 0 0 0 0 0 0 0 0 0 127 0" result="hardAlpha"/>
<feOffset dx="-2" dy="-2"/>
<feGaussianBlur stdDeviation="5"/>
<feComposite in2="hardAlpha" operator="arithmetic" k2="-1" k3="1"/>
<feColorMatrix type="matrix" values="0 0 0 0 1 0 0 0 0 1 0 0 0 0 1 0 0 0 0.05 0"/>
<feBlend mode="normal" in2="effect1_innerShadow_13_7459" result="effect2_innerShadow_13_7459"/>
</filter>
<filter id="filter15_ii_13_7459" x="768" y="108" width="104" height="105" filterUnits="userSpaceOnUse" color-interpolation-filters="sRGB">
<feFlood flood-opacity="0" result="BackgroundImageFix"/>
<feBlend mode="normal" in="SourceGraphic" in2="BackgroundImageFix" result="shape"/>
<feColorMatrix in="SourceAlpha" type="matrix" values="0 0 0 0 0 0 0 0 0 0 0 0 0 0 0 0 0 0 127 0" result="hardAlpha"/>
<feOffset dx="2" dy="3"/>
<feGaussianBlur stdDeviation="5"/>
<feComposite in2="hardAlpha" operator="arithmetic" k2="-1" k3="1"/>
<feColorMatrix type="matrix" values="0 0 0 0 0.0255 0 0 0 0 0.0285361 0 0 0 0 0.0345 0 0 0 1 0"/>
<feBlend mode="normal" in2="shape" result="effect1_innerShadow_13_7459"/>
<feColorMatrix in="SourceAlpha" type="matrix" values="0 0 0 0 0 0 0 0 0 0 0 0 0 0 0 0 0 0 127 0" result="hardAlpha"/>
<feOffset dx="-2" dy="-2"/>
<feGaussianBlur stdDeviation="5"/>
<feComposite in2="hardAlpha" operator="arithmetic" k2="-1" k3="1"/>
<feColorMatrix type="matrix" values="0 0 0 0 1 0 0 0 0 1 0 0 0 0 1 0 0 0 0.05 0"/>
<feBlend mode="normal" in2="effect1_innerShadow_13_7459" result="effect2_innerShadow_13_7459"/>
</filter>
<filter id="filter16_ii_13_7459" x="878" y="-2" width="104" height="105" filterUnits="userSpaceOnUse" color-interpolation-filters="sRGB">
<feFlood flood-opacity="0" result="BackgroundImageFix"/>
<feBlend mode="normal" in="SourceGraphic" in2="BackgroundImageFix" result="shape"/>
<feColorMatrix in="SourceAlpha" type="matrix" values="0 0 0 0 0 0 0 0 0 0 0 0 0 0 0 0 0 0 127 0" result="hardAlpha"/>
<feOffset dx="2" dy="3"/>
<feGaussianBlur stdDeviation="5"/>
<feComposite in2="hardAlpha" operator="arithmetic" k2="-1" k3="1"/>
<feColorMatrix type="matrix" values="0 0 0 0 0.0255 0 0 0 0 0.0285361 0 0 0 0 0.0345 0 0 0 1 0"/>
<feBlend mode="normal" in2="shape" result="effect1_innerShadow_13_7459"/>
<feColorMatrix in="SourceAlpha" type="matrix" values="0 0 0 0 0 0 0 0 0 0 0 0 0 0 0 0 0 0 127 0" result="hardAlpha"/>
<feOffset dx="-2" dy="-2"/>
<feGaussianBlur stdDeviation="5"/>
<feComposite in2="hardAlpha" operator="arithmetic" k2="-1" k3="1"/>
<feColorMatrix type="matrix" values="0 0 0 0 1 0 0 0 0 1 0 0 0 0 1 0 0 0 0.05 0"/>
<feBlend mode="normal" in2="effect1_innerShadow_13_7459" result="effect2_innerShadow_13_7459"/>
</filter>
<filter id="filter17_ii_13_7459" x="878" y="108" width="104" height="105" filterUnits="userSpaceOnUse" color-interpolation-filters="sRGB">
<feFlood flood-opacity="0" result="BackgroundImageFix"/>
<feBlend mode="normal" in="SourceGraphic" in2="BackgroundImageFix" result="shape"/>
<feColorMatrix in="SourceAlpha" type="matrix" values="0 0 0 0 0 0 0 0 0 0 0 0 0 0 0 0 0 0 127 0" result="hardAlpha"/>
<feOffset dx="2" dy="3"/>
<feGaussianBlur stdDeviation="5"/>
<feComposite in2="hardAlpha" operator="arithmetic" k2="-1" k3="1"/>
<feColorMatrix type="matrix" values="0 0 0 0 0.0255 0 0 0 0 0.0285361 0 0 0 0 0.0345 0 0 0 1 0"/>
<feBlend mode="normal" in2="shape" result="effect1_innerShadow_13_7459"/>
<feColorMatrix in="SourceAlpha" type="matrix" values="0 0 0 0 0 0 0 0 0 0 0 0 0 0 0 0 0 0 127 0" result="hardAlpha"/>
<feOffset dx="-2" dy="-2"/>
<feGaussianBlur stdDeviation="5"/>
<feComposite in2="hardAlpha" operator="arithmetic" k2="-1" k3="1"/>
<feColorMatrix type="matrix" values="0 0 0 0 1 0 0 0 0 1 0 0 0 0 1 0 0 0 0.05 0"/>
<feBlend mode="normal" in2="effect1_innerShadow_13_7459" result="effect2_innerShadow_13_7459"/>
</filter>
<linearGradient id="paint0_linear_13_7459" x1="190.179" y1="143.75" x2="0.271277" y2="33.289" gradientUnits="userSpaceOnUse">
<stop stop-color="#494D51"/>
<stop offset="0.962135" stop-color="#2D3035"/>
</linearGradient>
<linearGradient id="paint1_linear_13_7459" x1="190.179" y1="253.75" x2="0.271277" y2="143.289" gradientUnits="userSpaceOnUse">
<stop stop-color="#494D51"/>
<stop offset="0.962135" stop-color="#2D3035"/>
</linearGradient>
<linearGradient id="paint2_linear_13_7459" x1="300.179" y1="143.75" x2="110.271" y2="33.289" gradientUnits="userSpaceOnUse">
<stop stop-color="#494D51"/>
<stop offset="0.962135" stop-color="#2D3035"/>
</linearGradient>
<linearGradient id="paint3_linear_13_7459" x1="300.179" y1="253.75" x2="110.271" y2="143.289" gradientUnits="userSpaceOnUse">
<stop stop-color="#494D51"/>
<stop offset="0.962135" stop-color="#2D3035"/>
</linearGradient>
<linearGradient id="paint4_linear_13_7459" x1="410.179" y1="143.75" x2="220.271" y2="33.289" gradientUnits="userSpaceOnUse">
<stop stop-color="#494D51"/>
<stop offset="0.962135" stop-color="#2D3035"/>
</linearGradient>
<linearGradient id="paint5_linear_13_7459" x1="410.179" y1="253.75" x2="220.271" y2="143.289" gradientUnits="userSpaceOnUse">
<stop stop-color="#494D51"/>
<stop offset="0.962135" stop-color="#2D3035"/>
</linearGradient>
<linearGradient id="paint6_linear_13_7459" x1="520.179" y1="143.75" x2="330.271" y2="33.289" gradientUnits="userSpaceOnUse">
<stop stop-color="#494D51"/>
<stop offset="0.962135" stop-color="#2D3035"/>
</linearGradient>
<linearGradient id="paint7_linear_13_7459" x1="520.179" y1="253.75" x2="330.271" y2="143.289" gradientUnits="userSpaceOnUse">
<stop stop-color="#494D51"/>
<stop offset="0.962135" stop-color="#2D3035"/>
</linearGradient>
<linearGradient id="paint8_linear_13_7459" x1="630.179" y1="143.75" x2="440.271" y2="33.289" gradientUnits="userSpaceOnUse">
<stop stop-color="#494D51"/>
<stop offset="0.962135" stop-color="#2D3035"/>
</linearGradient>
<linearGradient id="paint9_linear_13_7459" x1="630.179" y1="253.75" x2="440.271" y2="143.289" gradientUnits="userSpaceOnUse">
<stop stop-color="#494D51"/>
<stop offset="0.962135" stop-color="#2D3035"/>
</linearGradient>
<linearGradient id="paint10_linear_13_7459" x1="740.179" y1="143.75" x2="550.271" y2="33.289" gradientUnits="userSpaceOnUse">
<stop stop-color="#494D51"/>
<stop offset="0.962135" stop-color="#2D3035"/>
</linearGradient>
<linearGradient id="paint11_linear_13_7459" x1="740.179" y1="253.75" x2="550.271" y2="143.289" gradientUnits="userSpaceOnUse">
<stop stop-color="#494D51"/>
<stop offset="0.962135" stop-color="#2D3035"/>
</linearGradient>
<linearGradient id="paint12_linear_13_7459" x1="850.179" y1="143.75" x2="660.271" y2="33.289" gradientUnits="userSpaceOnUse">
<stop stop-color="#494D51"/>
<stop offset="0.962135" stop-color="#2D3035"/>
</linearGradient>
<linearGradient id="paint13_linear_13_7459" x1="850.179" y1="253.75" x2="660.271" y2="143.289" gradientUnits="userSpaceOnUse">
<stop stop-color="#494D51"/>
<stop offset="0.962135" stop-color="#2D3035"/>
</linearGradient>
<linearGradient id="paint14_linear_13_7459" x1="960.179" y1="143.75" x2="770.271" y2="33.289" gradientUnits="userSpaceOnUse">
<stop stop-color="#494D51"/>
<stop offset="0.962135" stop-color="#2D3035"/>
</linearGradient>
<linearGradient id="paint15_linear_13_7459" x1="960.179" y1="253.75" x2="770.271" y2="143.289" gradientUnits="userSpaceOnUse">
<stop stop-color="#494D51"/>
<stop offset="0.962135" stop-color="#2D3035"/>
</linearGradient>
<linearGradient id="paint16_linear_13_7459" x1="1070.18" y1="143.75" x2="880.271" y2="33.289" gradientUnits="userSpaceOnUse">
<stop stop-color="#494D51"/>
<stop offset="0.962135" stop-color="#2D3035"/>
</linearGradient>
<linearGradient id="paint17_linear_13_7459" x1="1070.18" y1="253.75" x2="880.271" y2="143.289" gradientUnits="userSpaceOnUse">
<stop stop-color="#494D51"/>
<stop offset="0.962135" stop-color="#2D3035"/>
</linearGradient>
<clipPath id="clip0_13_7459">
<rect width="44" height="47" fill="white" transform="translate(28 26)"/>
</clipPath>
<clipPath id="clip1_13_7459">
<rect width="44" height="47" fill="white" transform="translate(28 136)"/>
</clipPath>
<clipPath id="clip2_13_7459">
<rect width="44" height="47" fill="white" transform="translate(138 26)"/>
</clipPath>
<clipPath id="clip3_13_7459">
<rect width="44" height="47" fill="white" transform="translate(138 136)"/>
</clipPath>
<clipPath id="clip4_13_7459">
<rect width="44" height="47" fill="white" transform="translate(248 26)"/>
</clipPath>
<clipPath id="clip5_13_7459">
<rect width="44" height="47" fill="white" transform="translate(248 136)"/>
</clipPath>
<clipPath id="clip6_13_7459">
<rect width="44" height="47" fill="white" transform="translate(358 26)"/>
</clipPath>
<clipPath id="clip7_13_7459">
<rect width="44" height="47" fill="white" transform="translate(358 136)"/>
</clipPath>
<clipPath id="clip8_13_7459">
<rect width="44" height="47" fill="white" transform="translate(468 26)"/>
</clipPath>
<clipPath id="clip9_13_7459">
<rect width="44" height="47" fill="white" transform="translate(468 136)"/>
</clipPath>
<clipPath id="clip10_13_7459">
<rect width="44" height="47" fill="white" transform="translate(578 26)"/>
</clipPath>
<clipPath id="clip11_13_7459">
<rect width="44" height="47" fill="white" transform="translate(578 136)"/>
</clipPath>
<clipPath id="clip12_13_7459">
<rect width="44" height="47" fill="white" transform="translate(688 26)"/>
</clipPath>
<clipPath id="clip13_13_7459">
<rect width="44" height="47" fill="white" transform="translate(688 136)"/>
</clipPath>
<clipPath id="clip14_13_7459">
<rect width="44" height="47" fill="white" transform="translate(798 26)"/>
</clipPath>
<clipPath id="clip15_13_7459">
<rect width="44" height="47" fill="white" transform="translate(798 136)"/>
</clipPath>
<clipPath id="clip16_13_7459">
<rect width="44" height="47" fill="white" transform="translate(908 26)"/>
</clipPath>
<clipPath id="clip17_13_7459">
<rect width="44" height="47" fill="white" transform="translate(908 136)"/>
</clipPath>
</defs>
</svg>
