<svg width="1048" height="130" viewBox="0 0 1048 130" fill="none" xmlns="http://www.w3.org/2000/svg">
<g filter="url(#filter0_ii_23_7819)">
<rect width="388" height="130" rx="12.454" transform="matrix(-1 0 0 1 388 0)" fill="url(#paint0_linear_23_7819)"/>
</g>
<path d="M118.594 70.875C119.281 71.2396 120.062 71.4219 120.938 71.4219C121.948 71.4219 122.771 71.2656 123.406 70.9531C124.042 70.6406 124.547 70.2604 124.922 69.8125C125.307 69.3646 125.594 68.8958 125.781 68.4062C125.969 67.9167 126.115 67.4896 126.219 67.125H130.984C130.724 68.5625 130.292 69.8125 129.688 70.875C129.083 71.9271 128.349 72.8021 127.484 73.5C126.62 74.1979 125.646 74.7188 124.562 75.0625C123.49 75.4062 122.344 75.5781 121.125 75.5781C119.417 75.5781 117.901 75.2969 116.578 74.7344C115.266 74.1615 114.156 73.349 113.25 72.2969C112.354 71.2448 111.672 69.9792 111.203 68.5C110.734 67.0104 110.5 65.349 110.5 63.5156C110.5 62.099 110.635 60.8177 110.906 59.6719C111.177 58.526 111.552 57.5104 112.031 56.625C112.521 55.7292 113.094 54.9583 113.75 54.3125C114.406 53.6562 115.12 53.1198 115.891 52.7031C116.672 52.276 117.49 51.9635 118.344 51.7656C119.198 51.5573 120.062 51.4531 120.938 51.4531C122.188 51.4531 123.297 51.5833 124.266 51.8438C125.234 52.1042 126.083 52.4531 126.812 52.8906C127.542 53.3281 128.161 53.8281 128.672 54.3906C129.193 54.9531 129.615 55.5365 129.938 56.1406C130.271 56.7344 130.516 57.3333 130.672 57.9375C130.839 58.5312 130.943 59.0781 130.984 59.5781H126.188C126.125 59.3594 126.047 59.1094 125.953 58.8281C125.859 58.5365 125.729 58.2448 125.562 57.9531C125.406 57.6615 125.203 57.375 124.953 57.0938C124.714 56.8125 124.411 56.5625 124.047 56.3438C123.682 56.125 123.245 55.9479 122.734 55.8125C122.224 55.6771 121.625 55.6094 120.938 55.6094C120.646 55.6094 120.302 55.6458 119.906 55.7188C119.51 55.7917 119.104 55.9323 118.688 56.1406C118.271 56.3385 117.859 56.6198 117.453 56.9844C117.047 57.349 116.682 57.8281 116.359 58.4219C116.047 59.0052 115.792 59.7135 115.594 60.5469C115.396 61.3802 115.297 62.3698 115.297 63.5156C115.297 64.7552 115.427 65.8646 115.688 66.8438C115.948 67.8229 116.323 68.651 116.812 69.3281C117.302 70.0052 117.896 70.5208 118.594 70.875ZM145.25 75V64.7344H145.172L139.156 75H134.328V57.9688H138.75V68.4688H138.812L145.016 57.9688H149.656V75H145.25ZM166.312 57.9688H172.766V75H168.609V61.2969H168.547L165.344 75H161.312L158.125 61.2969H158.047V75H153.891V57.9688H160.547L163.422 70.3281H163.5L166.312 57.9688ZM177.016 57.9688H192.344V75H187.938V61.5625H181.438V75H177.016V57.9688ZM209.828 57.9688V61.5625H204.672V75H200.266V61.5625H195.109V57.9688H209.828ZM216.641 74.8438C215.568 74.3958 214.651 73.7708 213.891 72.9688C213.141 72.1667 212.562 71.2135 212.156 70.1094C211.76 69.0052 211.562 67.7969 211.562 66.4844C211.562 65.1719 211.76 63.9635 212.156 62.8594C212.562 61.7552 213.141 60.8073 213.891 60.0156C214.651 59.2135 215.568 58.5885 216.641 58.1406C217.714 57.6927 218.922 57.4688 220.266 57.4688C221.63 57.4688 222.849 57.6927 223.922 58.1406C225.005 58.5885 225.917 59.2135 226.656 60.0156C227.406 60.8073 227.979 61.7552 228.375 62.8594C228.771 63.9635 228.969 65.1719 228.969 66.4844C228.969 67.7969 228.771 69.0052 228.375 70.1094C227.979 71.2135 227.406 72.1667 226.656 72.9688C225.917 73.7708 225.005 74.3958 223.922 74.8438C222.849 75.2917 221.63 75.5156 220.266 75.5156C218.922 75.5156 217.714 75.2917 216.641 74.8438ZM216.391 68.3906C216.526 69.026 216.755 69.5938 217.078 70.0938C217.401 70.5833 217.823 70.9792 218.344 71.2812C218.865 71.5833 219.505 71.7344 220.266 71.7344C221.057 71.7344 221.714 71.5885 222.234 71.2969C222.766 70.9948 223.188 70.6042 223.5 70.125C223.812 69.6354 224.031 69.0781 224.156 68.4531C224.292 67.8177 224.359 67.1615 224.359 66.4844C224.359 65.8177 224.292 65.1667 224.156 64.5312C224.031 63.8958 223.812 63.3385 223.5 62.8594C223.188 62.3698 222.766 61.9792 222.234 61.6875C221.714 61.3854 221.057 61.2344 220.266 61.2344C219.505 61.2344 218.865 61.3854 218.344 61.6875C217.823 61.9896 217.401 62.3906 217.078 62.8906C216.755 63.3802 216.521 63.9427 216.375 64.5781C216.24 65.2031 216.172 65.8385 216.172 66.4844C216.172 67.1302 216.245 67.7656 216.391 68.3906ZM244.594 57.9688H251.047V75H246.891V61.2969H246.828L243.625 75H239.594L236.406 61.2969H236.328V75H232.172V57.9688H238.828L241.703 70.3281H241.781L244.594 57.9688ZM266.562 64.2188C267.385 64.4375 268.083 64.776 268.656 65.2344C269.229 65.6927 269.667 66.276 269.969 66.9844C270.271 67.6823 270.422 68.5104 270.422 69.4688C270.422 70.3333 270.297 71.0729 270.047 71.6875C269.797 72.3021 269.474 72.8177 269.078 73.2344C268.693 73.6406 268.26 73.9635 267.781 74.2031C267.302 74.4323 266.833 74.6094 266.375 74.7344C265.917 74.849 265.49 74.9219 265.094 74.9531C264.708 74.9844 264.411 75 264.203 75H255.297V57.9688H259.719V63.8906H263.734C264.786 63.8906 265.729 64 266.562 64.2188ZM276.797 57.9688V75H272.375V57.9688H276.797ZM262.578 67.2188H259.719V71.6719H262.953C263.297 71.6719 263.635 71.6458 263.969 71.5938C264.312 71.5312 264.62 71.4219 264.891 71.2656C265.172 71.099 265.396 70.875 265.562 70.5938C265.729 70.3021 265.812 69.9271 265.812 69.4688C265.812 69.0208 265.724 68.651 265.547 68.3594C265.38 68.0677 265.146 67.8385 264.844 67.6719C264.552 67.5052 264.208 67.3906 263.812 67.3281C263.427 67.2552 263.016 67.2188 262.578 67.2188Z" fill="#67BCFA"/>
<g filter="url(#filter1_ii_23_7819)">
<rect width="320" height="60" rx="12.454" transform="matrix(-1 0 0 1 718 0)" fill="url(#paint1_linear_23_7819)"/>
</g>
<path d="M440.93 10.6445H450.949V25H447.951V13.1152H443.742L443.752 15.2832C443.758 16.5918 443.729 17.7474 443.664 18.75C443.605 19.7461 443.508 20.6152 443.371 21.3574C443.241 22.0931 443.072 22.7116 442.863 23.2129C442.661 23.7142 442.421 24.1178 442.141 24.4238C441.861 24.7233 441.542 24.9382 441.184 25.0684C440.826 25.1986 440.432 25.2637 440.002 25.2637C439.65 25.2637 439.338 25.2409 439.064 25.1953C438.798 25.1562 438.531 25.0814 438.264 24.9707L438.254 22.2266C438.345 22.2721 438.439 22.3112 438.537 22.3438C438.641 22.3698 438.742 22.3926 438.84 22.4121C438.938 22.4251 439.025 22.4349 439.104 22.4414C439.188 22.4479 439.253 22.4512 439.299 22.4512C439.475 22.4512 439.637 22.4284 439.787 22.3828C439.943 22.3307 440.08 22.2233 440.197 22.0605C440.321 21.8978 440.428 21.6634 440.52 21.3574C440.611 21.0514 440.686 20.6445 440.744 20.1367C440.809 19.6289 440.855 19.0007 440.881 18.252C440.913 17.5033 440.93 16.6081 440.93 15.5664V10.6445ZM463.068 14.043C463.954 14.043 464.719 14.1895 465.363 14.4824C466.008 14.7689 466.538 15.166 466.955 15.6738C467.378 16.1816 467.691 16.7773 467.893 17.4609C468.094 18.1445 468.195 18.877 468.195 19.6582C468.195 20.1074 468.156 20.5599 468.078 21.0156C468 21.4648 467.876 21.901 467.707 22.3242C467.538 22.7409 467.32 23.1315 467.053 23.4961C466.786 23.8607 466.464 24.1797 466.086 24.4531C465.708 24.7201 465.269 24.9316 464.768 25.0879C464.266 25.2441 463.7 25.3223 463.068 25.3223C462.424 25.3223 461.815 25.2409 461.242 25.0781C460.669 24.9154 460.158 24.6517 459.709 24.2871C459.266 23.916 458.898 23.431 458.605 22.832C458.312 22.2331 458.12 21.4941 458.029 20.6152H456.193V25H453.43V14.3555H456.193V18.5352H458.029C458.146 17.7539 458.352 17.0801 458.645 16.5137C458.938 15.9473 459.302 15.4818 459.738 15.1172C460.174 14.7461 460.673 14.4759 461.232 14.3066C461.799 14.1309 462.411 14.043 463.068 14.043ZM460.92 20.9766C461.005 21.3802 461.138 21.7285 461.32 22.0215C461.503 22.3145 461.737 22.5456 462.023 22.7148C462.316 22.8776 462.665 22.959 463.068 22.959C463.472 22.959 463.817 22.8776 464.104 22.7148C464.39 22.5456 464.621 22.3145 464.797 22.0215C464.979 21.7285 465.109 21.3835 465.188 20.9863C465.272 20.5827 465.314 20.1465 465.314 19.6777C465.314 19.2155 465.272 18.7858 465.188 18.3887C465.109 17.985 464.979 17.6367 464.797 17.3438C464.621 17.0508 464.39 16.8197 464.104 16.6504C463.817 16.4811 463.472 16.3965 463.068 16.3965C462.665 16.3965 462.316 16.4811 462.023 16.6504C461.737 16.8197 461.503 17.0508 461.32 17.3438C461.138 17.6367 461.005 17.985 460.92 18.3887C460.835 18.7858 460.793 19.2155 460.793 19.6777C460.793 20.1465 460.835 20.5794 460.92 20.9766ZM476.604 10.7422C476.753 10.6576 476.848 10.5697 476.887 10.4785H479.387C479.393 11.0254 479.299 11.4746 479.104 11.8262C478.908 12.1712 478.648 12.4512 478.322 12.666C478.003 12.8743 477.632 13.0273 477.209 13.125C476.792 13.2161 476.363 13.278 475.92 13.3105C475.614 13.3366 475.298 13.3789 474.973 13.4375C474.647 13.4896 474.328 13.5742 474.016 13.6914C473.703 13.8021 473.407 13.9518 473.127 14.1406C472.847 14.3229 472.596 14.5508 472.375 14.8242C472.154 15.0977 471.971 15.4232 471.828 15.8008C471.685 16.1784 471.597 16.6211 471.564 17.1289C471.669 16.7904 471.835 16.4714 472.062 16.1719C472.29 15.8659 472.574 15.6022 472.912 15.3809C473.257 15.153 473.654 14.974 474.104 14.8438C474.553 14.707 475.051 14.6387 475.598 14.6387C476.327 14.6387 476.984 14.7624 477.57 15.0098C478.156 15.2507 478.654 15.5924 479.064 16.0352C479.475 16.4779 479.787 17.0117 480.002 17.6367C480.223 18.2617 480.334 18.9551 480.334 19.7168C480.334 20.5632 480.207 21.3314 479.953 22.0215C479.706 22.7116 479.348 23.304 478.879 23.7988C478.417 24.2871 477.85 24.668 477.18 24.9414C476.509 25.2083 475.754 25.3418 474.914 25.3418C473.69 25.3418 472.678 25.0911 471.877 24.5898C471.076 24.0885 470.461 23.2715 470.031 22.1387C469.888 21.7546 469.777 21.3477 469.699 20.918C469.621 20.4883 469.562 20.0846 469.523 19.707C469.491 19.3294 469.471 19.0007 469.465 18.7207C469.458 18.4408 469.455 18.2552 469.455 18.1641C469.455 17.1484 469.572 16.2207 469.807 15.3809C470.041 14.5345 470.412 13.7988 470.92 13.1738C471.434 12.5488 472.092 12.0443 472.893 11.6602C473.7 11.276 474.676 11.0319 475.822 10.9277C476.187 10.8952 476.447 10.8333 476.604 10.7422ZM475.012 16.6895C474.536 16.6895 474.13 16.7708 473.791 16.9336C473.459 17.0898 473.186 17.3047 472.971 17.5781C472.756 17.8516 472.6 18.1706 472.502 18.5352C472.404 18.8932 472.355 19.2741 472.355 19.6777C472.355 20.0814 472.398 20.4818 472.482 20.8789C472.574 21.2695 472.72 21.6211 472.922 21.9336C473.124 22.2396 473.387 22.487 473.713 22.6758C474.038 22.8646 474.439 22.959 474.914 22.959C475.415 22.959 475.829 22.8678 476.154 22.6855C476.486 22.4967 476.75 22.2526 476.945 21.9531C477.141 21.6471 477.277 21.2988 477.355 20.9082C477.434 20.5111 477.473 20.1009 477.473 19.6777C477.473 19.2611 477.427 18.8704 477.336 18.5059C477.245 18.1413 477.102 17.8255 476.906 17.5586C476.711 17.2852 476.457 17.0736 476.145 16.9238C475.832 16.7676 475.454 16.6895 475.012 16.6895ZM487.18 18.3594C487.277 18.3464 487.382 18.3268 487.492 18.3008C487.609 18.2747 487.717 18.2324 487.814 18.1738C487.912 18.1087 487.993 18.0241 488.059 17.9199C488.124 17.8092 488.156 17.6628 488.156 17.4805C488.156 17.3047 488.127 17.1452 488.068 17.002C488.016 16.8522 487.925 16.7253 487.795 16.6211C487.665 16.5104 487.489 16.4258 487.268 16.3672C487.053 16.3086 486.783 16.2793 486.457 16.2793C486.086 16.2793 485.786 16.3184 485.559 16.3965C485.337 16.4681 485.161 16.5723 485.031 16.709C484.901 16.8392 484.807 16.9954 484.748 17.1777C484.689 17.3535 484.647 17.5423 484.621 17.7441H481.857C481.857 17.6139 481.877 17.4349 481.916 17.207C481.962 16.9727 482.04 16.7188 482.15 16.4453C482.268 16.1719 482.427 15.8952 482.629 15.6152C482.837 15.3353 483.107 15.0814 483.439 14.8535C483.778 14.6191 484.188 14.4271 484.67 14.2773C485.152 14.1276 485.728 14.0495 486.398 14.043C487.349 14.043 488.117 14.1406 488.703 14.3359C489.296 14.5247 489.755 14.7754 490.08 15.0879C490.412 15.3939 490.633 15.7389 490.744 16.123C490.861 16.5007 490.92 16.8783 490.92 17.2559V22.9004C490.92 23.2194 490.936 23.4831 490.969 23.6914C491.008 23.8932 491.057 24.056 491.115 24.1797C491.174 24.2969 491.239 24.3848 491.311 24.4434C491.389 24.4954 491.47 24.5345 491.555 24.5605V25H488.498C488.446 24.8763 488.387 24.7135 488.322 24.5117C488.264 24.3034 488.234 24.0527 488.234 23.7598C488.02 23.9811 487.808 24.1862 487.6 24.375C487.398 24.5638 487.17 24.7298 486.916 24.873C486.662 25.0098 486.369 25.1172 486.037 25.1953C485.705 25.2799 485.305 25.3223 484.836 25.3223C484.361 25.3223 483.921 25.2507 483.518 25.1074C483.12 24.9707 482.775 24.7656 482.482 24.4922C482.189 24.2188 481.962 23.877 481.799 23.4668C481.636 23.0566 481.555 22.5814 481.555 22.041C481.555 21.6048 481.623 21.2012 481.76 20.8301C481.896 20.4525 482.089 20.1237 482.336 19.8438C482.59 19.5573 482.896 19.3229 483.254 19.1406C483.618 18.9518 484.025 18.8249 484.475 18.7598L487.18 18.3594ZM485.168 23.2812C485.337 23.3333 485.52 23.3594 485.715 23.3594C485.819 23.3594 485.952 23.3496 486.115 23.3301C486.278 23.304 486.451 23.2585 486.633 23.1934C486.815 23.1283 486.997 23.0404 487.18 22.9297C487.362 22.8125 487.525 22.6628 487.668 22.4805C487.811 22.2982 487.928 22.0768 488.02 21.8164C488.111 21.5495 488.156 21.237 488.156 20.8789V19.8047C487.987 19.8958 487.818 19.9805 487.648 20.0586C487.479 20.1302 487.255 20.1921 486.975 20.2441L486.242 20.3809C485.923 20.4395 485.643 20.5078 485.402 20.5859C485.161 20.6641 484.96 20.7682 484.797 20.8984C484.641 21.0221 484.52 21.1751 484.436 21.3574C484.357 21.5397 484.318 21.7676 484.318 22.041C484.318 22.2689 484.354 22.4674 484.426 22.6367C484.497 22.7995 484.595 22.9362 484.719 23.0469C484.849 23.151 484.999 23.2292 485.168 23.2812ZM493.889 20.8301C493.993 20.6803 494.136 20.5501 494.318 20.4395C494.501 20.3288 494.745 20.2279 495.051 20.1367C494.953 20.1107 494.842 20.0749 494.719 20.0293C494.602 19.9772 494.475 19.9121 494.338 19.834C494.208 19.7493 494.074 19.6452 493.938 19.5215C493.807 19.3913 493.684 19.2318 493.566 19.043C493.482 18.9193 493.413 18.7891 493.361 18.6523C493.316 18.5091 493.28 18.3724 493.254 18.2422C493.228 18.1055 493.212 17.9785 493.205 17.8613C493.199 17.7441 493.195 17.6432 493.195 17.5586C493.195 17.181 493.241 16.8457 493.332 16.5527C493.423 16.2533 493.54 15.9928 493.684 15.7715C493.827 15.5501 493.99 15.3613 494.172 15.2051C494.354 15.0488 494.54 14.9219 494.729 14.8242C494.937 14.707 495.168 14.6191 495.422 14.5605C495.676 14.4954 495.923 14.4499 496.164 14.4238C496.405 14.3913 496.63 14.3717 496.838 14.3652C497.046 14.3587 497.209 14.3555 497.326 14.3555H503.049V25H500.275V21.084H498.469C498.072 21.084 497.73 21.1003 497.443 21.1328C497.163 21.1589 496.932 21.2272 496.75 21.3379C496.568 21.4421 496.428 21.5983 496.33 21.8066C496.239 22.015 496.187 22.2982 496.174 22.6562L496.135 23.6816C496.122 23.8314 496.102 24.0267 496.076 24.2676C496.057 24.5085 495.995 24.7526 495.891 25H492.971C493.055 24.8568 493.124 24.7201 493.176 24.5898C493.228 24.4531 493.267 24.3229 493.293 24.1992C493.326 24.069 493.348 23.9388 493.361 23.8086C493.381 23.6784 493.397 23.5417 493.41 23.3984L493.547 22.1191C493.579 21.8327 493.618 21.5853 493.664 21.377C493.71 21.1686 493.785 20.9863 493.889 20.8301ZM496.271 18.5645C496.382 18.7402 496.525 18.8704 496.701 18.9551C496.883 19.0397 497.085 19.0885 497.307 19.1016C497.528 19.1146 497.749 19.1211 497.971 19.1211H500.275V16.4355H498.049C497.814 16.4355 497.58 16.4421 497.346 16.4551C497.111 16.4681 496.9 16.5202 496.711 16.6113C496.529 16.696 496.379 16.8327 496.262 17.0215C496.151 17.2038 496.096 17.4642 496.096 17.8027C496.096 18.1348 496.154 18.3887 496.271 18.5645ZM515.607 22.959C515.926 22.959 516.203 22.8971 516.438 22.7734C516.672 22.6432 516.867 22.4837 517.023 22.2949C517.18 22.1061 517.294 21.9043 517.365 21.6895C517.443 21.4746 517.482 21.2793 517.482 21.1035H520.363C520.363 21.2793 520.331 21.5072 520.266 21.7871C520.207 22.0671 520.106 22.3633 519.963 22.6758C519.82 22.9883 519.628 23.304 519.387 23.623C519.152 23.9355 518.856 24.2188 518.498 24.4727C518.146 24.7201 517.733 24.9219 517.258 25.0781C516.783 25.2409 516.232 25.3223 515.607 25.3223C514.794 25.3223 514.074 25.1986 513.449 24.9512C512.831 24.7038 512.31 24.3424 511.887 23.8672C511.47 23.3854 511.151 22.793 510.93 22.0898C510.715 21.3867 510.607 20.5827 510.607 19.6777C510.607 18.7728 510.725 17.972 510.959 17.2754C511.2 16.5723 511.538 15.9831 511.975 15.5078C512.411 15.026 512.935 14.6615 513.547 14.4141C514.165 14.1667 514.852 14.043 515.607 14.043C515.933 14.043 516.268 14.069 516.613 14.1211C516.965 14.1732 517.31 14.2643 517.648 14.3945C517.987 14.5182 518.309 14.681 518.615 14.8828C518.928 15.0846 519.204 15.3385 519.445 15.6445C519.693 15.944 519.895 16.2988 520.051 16.709C520.214 17.1126 520.318 17.5814 520.363 18.1152H517.482C517.43 17.8353 517.359 17.5911 517.268 17.3828C517.176 17.168 517.056 16.9889 516.906 16.8457C516.763 16.696 516.584 16.5853 516.369 16.5137C516.161 16.4355 515.907 16.3965 515.607 16.3965C515.145 16.3965 514.774 16.5039 514.494 16.7188C514.221 16.9336 514.009 17.2038 513.859 17.5293C513.71 17.8548 513.609 18.2096 513.557 18.5938C513.511 18.9779 513.488 19.3392 513.488 19.6777C513.488 20.0293 513.508 20.4004 513.547 20.791C513.586 21.1751 513.677 21.5299 513.82 21.8555C513.964 22.1745 514.175 22.4382 514.455 22.6465C514.735 22.8548 515.119 22.959 515.607 22.959ZM530.656 14.3555V16.6016H527.434V25H524.68V16.6016H521.457V14.3555H530.656ZM534.709 25.0098C534.084 24.7949 533.537 24.4596 533.068 24.0039C532.606 23.5417 532.242 22.946 531.975 22.2168C531.708 21.4876 531.574 20.6022 531.574 19.5605C531.574 18.8379 531.669 18.1445 531.857 17.4805C532.053 16.8099 532.352 16.2207 532.756 15.7129C533.166 15.2051 533.687 14.8014 534.318 14.502C534.956 14.196 535.721 14.043 536.613 14.043C537.557 14.043 538.352 14.1992 538.996 14.5117C539.641 14.8177 540.158 15.2539 540.549 15.8203C540.946 16.3867 541.229 17.0703 541.398 17.8711C541.568 18.6719 541.652 19.5605 541.652 20.5371H534.357C534.357 20.6348 534.367 20.765 534.387 20.9277C534.406 21.0905 534.445 21.2663 534.504 21.4551C534.562 21.6439 534.647 21.8359 534.758 22.0312C534.868 22.2201 535.015 22.3926 535.197 22.5488C535.386 22.7051 535.614 22.832 535.881 22.9297C536.154 23.0273 536.48 23.0762 536.857 23.0762C537.053 23.0762 537.245 23.0501 537.434 22.998C537.629 22.9395 537.808 22.8581 537.971 22.7539C538.133 22.6432 538.273 22.513 538.391 22.3633C538.514 22.207 538.602 22.0312 538.654 21.8359H541.516C541.516 22.0312 541.473 22.2559 541.389 22.5098C541.304 22.7572 541.174 23.0111 540.998 23.2715C540.829 23.5254 540.614 23.776 540.354 24.0234C540.093 24.2708 539.784 24.4922 539.426 24.6875C539.068 24.8763 538.661 25.0293 538.205 25.1465C537.756 25.2637 537.255 25.3223 536.701 25.3223C535.992 25.3223 535.327 25.2181 534.709 25.0098ZM535.197 16.7773C534.982 16.9661 534.803 17.2168 534.66 17.5293C534.523 17.8418 534.455 18.2324 534.455 18.7012H538.781C538.781 18.2324 538.71 17.8418 538.566 17.5293C538.43 17.2168 538.254 16.9694 538.039 16.7871C537.831 16.5983 537.6 16.4681 537.346 16.3965C537.092 16.3184 536.848 16.2793 536.613 16.2793C536.385 16.2793 536.145 16.3184 535.891 16.3965C535.637 16.4681 535.406 16.5951 535.197 16.7773ZM543.508 14.3555H553.088V25H550.334V16.6016H546.271V25H543.508V14.3555ZM558.068 25.0098C557.443 24.7949 556.896 24.4596 556.428 24.0039C555.965 23.5417 555.601 22.946 555.334 22.2168C555.067 21.4876 554.934 20.6022 554.934 19.5605C554.934 18.8379 555.028 18.1445 555.217 17.4805C555.412 16.8099 555.712 16.2207 556.115 15.7129C556.525 15.2051 557.046 14.8014 557.678 14.502C558.316 14.196 559.081 14.043 559.973 14.043C560.917 14.043 561.711 14.1992 562.355 14.5117C563 14.8177 563.518 15.2539 563.908 15.8203C564.305 16.3867 564.589 17.0703 564.758 17.8711C564.927 18.6719 565.012 19.5605 565.012 20.5371H557.717C557.717 20.6348 557.727 20.765 557.746 20.9277C557.766 21.0905 557.805 21.2663 557.863 21.4551C557.922 21.6439 558.007 21.8359 558.117 22.0312C558.228 22.2201 558.374 22.3926 558.557 22.5488C558.745 22.7051 558.973 22.832 559.24 22.9297C559.514 23.0273 559.839 23.0762 560.217 23.0762C560.412 23.0762 560.604 23.0501 560.793 22.998C560.988 22.9395 561.167 22.8581 561.33 22.7539C561.493 22.6432 561.633 22.513 561.75 22.3633C561.874 22.207 561.962 22.0312 562.014 21.8359H564.875C564.875 22.0312 564.833 22.2559 564.748 22.5098C564.663 22.7572 564.533 23.0111 564.357 23.2715C564.188 23.5254 563.973 23.776 563.713 24.0234C563.452 24.2708 563.143 24.4922 562.785 24.6875C562.427 24.8763 562.02 25.0293 561.564 25.1465C561.115 25.2637 560.614 25.3223 560.061 25.3223C559.351 25.3223 558.687 25.2181 558.068 25.0098ZM558.557 16.7773C558.342 16.9661 558.163 17.2168 558.02 17.5293C557.883 17.8418 557.814 18.2324 557.814 18.7012H562.141C562.141 18.2324 562.069 17.8418 561.926 17.5293C561.789 17.2168 561.613 16.9694 561.398 16.7871C561.19 16.5983 560.959 16.4681 560.705 16.3965C560.451 16.3184 560.207 16.2793 559.973 16.2793C559.745 16.2793 559.504 16.3184 559.25 16.3965C558.996 16.4681 558.765 16.5951 558.557 16.7773ZM573.693 20.4395H569.631V25H566.867V14.3555H569.631V18.2031H573.693V14.3555H576.447V25H573.693V20.4395ZM585.52 24.9707C585.272 24.9902 585.083 25 584.953 25H579.074V14.3555H581.838V18.0566H584.66C585.318 18.0566 585.904 18.125 586.418 18.2617C586.939 18.3984 587.378 18.61 587.736 18.8965C588.094 19.1829 588.368 19.5475 588.557 19.9902C588.745 20.4264 588.84 20.944 588.84 21.543C588.84 22.0833 588.762 22.5456 588.605 22.9297C588.449 23.3138 588.247 23.6361 588 23.8965C587.759 24.1504 587.489 24.3522 587.189 24.502C586.89 24.6452 586.597 24.7559 586.311 24.834C586.024 24.9056 585.76 24.9512 585.52 24.9707ZM585.363 20.4199C585.174 20.3158 584.956 20.2441 584.709 20.2051C584.468 20.1595 584.211 20.1367 583.938 20.1367H581.838V22.9199H584.172C584.387 22.9199 584.598 22.9036 584.807 22.8711C585.021 22.832 585.214 22.7637 585.383 22.666C585.559 22.5618 585.699 22.4219 585.803 22.2461C585.907 22.0638 585.959 21.8294 585.959 21.543C585.959 21.263 585.904 21.0319 585.793 20.8496C585.689 20.6673 585.546 20.5241 585.363 20.4199ZM604.504 14.3555V16.6016H601.281V25H598.527V16.6016H595.305V14.3555H604.504ZM606.662 20.8301C606.766 20.6803 606.91 20.5501 607.092 20.4395C607.274 20.3288 607.518 20.2279 607.824 20.1367C607.727 20.1107 607.616 20.0749 607.492 20.0293C607.375 19.9772 607.248 19.9121 607.111 19.834C606.981 19.7493 606.848 19.6452 606.711 19.5215C606.581 19.3913 606.457 19.2318 606.34 19.043C606.255 18.9193 606.187 18.7891 606.135 18.6523C606.089 18.5091 606.053 18.3724 606.027 18.2422C606.001 18.1055 605.985 17.9785 605.979 17.8613C605.972 17.7441 605.969 17.6432 605.969 17.5586C605.969 17.181 606.014 16.8457 606.105 16.5527C606.197 16.2533 606.314 15.9928 606.457 15.7715C606.6 15.5501 606.763 15.3613 606.945 15.2051C607.128 15.0488 607.313 14.9219 607.502 14.8242C607.71 14.707 607.941 14.6191 608.195 14.5605C608.449 14.4954 608.697 14.4499 608.938 14.4238C609.178 14.3913 609.403 14.3717 609.611 14.3652C609.82 14.3587 609.982 14.3555 610.1 14.3555H615.822V25H613.049V21.084H611.242C610.845 21.084 610.503 21.1003 610.217 21.1328C609.937 21.1589 609.706 21.2272 609.523 21.3379C609.341 21.4421 609.201 21.5983 609.104 21.8066C609.012 22.015 608.96 22.2982 608.947 22.6562L608.908 23.6816C608.895 23.8314 608.876 24.0267 608.85 24.2676C608.83 24.5085 608.768 24.7526 608.664 25H605.744C605.829 24.8568 605.897 24.7201 605.949 24.5898C606.001 24.4531 606.04 24.3229 606.066 24.1992C606.099 24.069 606.122 23.9388 606.135 23.8086C606.154 23.6784 606.171 23.5417 606.184 23.3984L606.32 22.1191C606.353 21.8327 606.392 21.5853 606.438 21.377C606.483 21.1686 606.558 20.9863 606.662 20.8301ZM609.045 18.5645C609.156 18.7402 609.299 18.8704 609.475 18.9551C609.657 19.0397 609.859 19.0885 610.08 19.1016C610.301 19.1146 610.523 19.1211 610.744 19.1211H613.049V16.4355H610.822C610.588 16.4355 610.354 16.4421 610.119 16.4551C609.885 16.4681 609.673 16.5202 609.484 16.6113C609.302 16.696 609.152 16.8327 609.035 17.0215C608.924 17.2038 608.869 17.4642 608.869 17.8027C608.869 18.1348 608.928 18.3887 609.045 18.5645ZM630.314 14.3555H633.469L629.895 19.2773L633.654 25H630.314L627.395 20.4785H626.867V25H624.113V20.4785H623.508L620.51 25H617.287L621.066 19.2773L617.531 14.3555H620.695L623.596 18.584H624.113V14.3555H626.867V18.584H627.395L630.314 14.3555ZM637.463 25.0098C636.838 24.7949 636.291 24.4596 635.822 24.0039C635.36 23.5417 634.995 22.946 634.729 22.2168C634.462 21.4876 634.328 20.6022 634.328 19.5605C634.328 18.8379 634.423 18.1445 634.611 17.4805C634.807 16.8099 635.106 16.2207 635.51 15.7129C635.92 15.2051 636.441 14.8014 637.072 14.502C637.71 14.196 638.475 14.043 639.367 14.043C640.311 14.043 641.105 14.1992 641.75 14.5117C642.395 14.8177 642.912 15.2539 643.303 15.8203C643.7 16.3867 643.983 17.0703 644.152 17.8711C644.322 18.6719 644.406 19.5605 644.406 20.5371H637.111C637.111 20.6348 637.121 20.765 637.141 20.9277C637.16 21.0905 637.199 21.2663 637.258 21.4551C637.316 21.6439 637.401 21.8359 637.512 22.0312C637.622 22.2201 637.769 22.3926 637.951 22.5488C638.14 22.7051 638.368 22.832 638.635 22.9297C638.908 23.0273 639.234 23.0762 639.611 23.0762C639.807 23.0762 639.999 23.0501 640.188 22.998C640.383 22.9395 640.562 22.8581 640.725 22.7539C640.887 22.6432 641.027 22.513 641.145 22.3633C641.268 22.207 641.356 22.0312 641.408 21.8359H644.27C644.27 22.0312 644.227 22.2559 644.143 22.5098C644.058 22.7572 643.928 23.0111 643.752 23.2715C643.583 23.5254 643.368 23.776 643.107 24.0234C642.847 24.2708 642.538 24.4922 642.18 24.6875C641.822 24.8763 641.415 25.0293 640.959 25.1465C640.51 25.2637 640.008 25.3223 639.455 25.3223C638.745 25.3223 638.081 25.2181 637.463 25.0098ZM637.951 16.7773C637.736 16.9661 637.557 17.2168 637.414 17.5293C637.277 17.8418 637.209 18.2324 637.209 18.7012H641.535C641.535 18.2324 641.464 17.8418 641.32 17.5293C641.184 17.2168 641.008 16.9694 640.793 16.7871C640.585 16.5983 640.354 16.4681 640.1 16.3965C639.846 16.3184 639.602 16.2793 639.367 16.2793C639.139 16.2793 638.898 16.3184 638.645 16.3965C638.391 16.4681 638.16 16.5951 637.951 16.7773ZM650.627 22.959C650.946 22.959 651.223 22.8971 651.457 22.7734C651.691 22.6432 651.887 22.4837 652.043 22.2949C652.199 22.1061 652.313 21.9043 652.385 21.6895C652.463 21.4746 652.502 21.2793 652.502 21.1035H655.383C655.383 21.2793 655.35 21.5072 655.285 21.7871C655.227 22.0671 655.126 22.3633 654.982 22.6758C654.839 22.9883 654.647 23.304 654.406 23.623C654.172 23.9355 653.876 24.2188 653.518 24.4727C653.166 24.7201 652.753 24.9219 652.277 25.0781C651.802 25.2409 651.252 25.3223 650.627 25.3223C649.813 25.3223 649.094 25.1986 648.469 24.9512C647.85 24.7038 647.329 24.3424 646.906 23.8672C646.49 23.3854 646.171 22.793 645.949 22.0898C645.734 21.3867 645.627 20.5827 645.627 19.6777C645.627 18.7728 645.744 17.972 645.979 17.2754C646.219 16.5723 646.558 15.9831 646.994 15.5078C647.43 15.026 647.954 14.6615 648.566 14.4141C649.185 14.1667 649.872 14.043 650.627 14.043C650.952 14.043 651.288 14.069 651.633 14.1211C651.984 14.1732 652.329 14.2643 652.668 14.3945C653.007 14.5182 653.329 14.681 653.635 14.8828C653.947 15.0846 654.224 15.3385 654.465 15.6445C654.712 15.944 654.914 16.2988 655.07 16.709C655.233 17.1126 655.337 17.5814 655.383 18.1152H652.502C652.45 17.8353 652.378 17.5911 652.287 17.3828C652.196 17.168 652.076 16.9889 651.926 16.8457C651.783 16.696 651.604 16.5853 651.389 16.5137C651.18 16.4355 650.926 16.3965 650.627 16.3965C650.165 16.3965 649.794 16.5039 649.514 16.7188C649.24 16.9336 649.029 17.2038 648.879 17.5293C648.729 17.8548 648.628 18.2096 648.576 18.5938C648.531 18.9779 648.508 19.3392 648.508 19.6777C648.508 20.0293 648.527 20.4004 648.566 20.791C648.605 21.1751 648.697 21.5299 648.84 21.8555C648.983 22.1745 649.195 22.4382 649.475 22.6465C649.755 22.8548 650.139 22.959 650.627 22.959ZM665.676 14.3555V16.6016H662.453V25H659.699V16.6016H656.477V14.3555H665.676ZM674.221 25V18.584H674.172L670.412 25H667.395V14.3555H670.158V20.918H670.197L674.074 14.3555H676.975V25H674.221ZM530.178 53.0332L529.484 52.0859C529.035 51.513 528.557 50.6602 528.049 49.5273C527.144 47.5026 526.691 45.5104 526.691 43.5508C526.691 41.7669 527.072 39.9961 527.834 38.2383C528.348 37.0404 529.1 35.7513 530.09 34.3711H532.189L531.594 35.4648C530.773 36.9688 530.204 38.5443 529.885 40.1914C529.676 41.2721 529.572 42.4505 529.572 43.7266C529.572 45.7188 529.862 47.5514 530.441 49.2246C530.78 50.2142 531.379 51.4837 532.238 53.0332H530.178ZM543.771 43.4531L533.195 46.3242V43.7266L539.631 42.2031L533.195 40.6992V38.1016L543.771 40.9727V43.4531ZM543.771 49H533.195V46.5977H543.771V49ZM551.027 49H548.176V39.2344H544.846V37.3398C545.725 37.3008 546.34 37.2422 546.691 37.1641C547.251 37.0404 547.707 36.793 548.059 36.4219C548.299 36.168 548.482 35.8294 548.605 35.4062C548.677 35.1523 548.713 34.9635 548.713 34.8398H551.027V49ZM560.1 49.3516C558.296 49.3516 557.03 48.7201 556.301 47.457C555.578 46.194 555.217 44.3939 555.217 42.0566C555.217 39.7194 555.578 37.916 556.301 36.6465C557.03 35.377 558.296 34.7422 560.1 34.7422C561.903 34.7422 563.169 35.377 563.898 36.6465C564.621 37.916 564.982 39.7194 564.982 42.0566C564.982 44.3939 564.618 46.194 563.889 47.457C563.166 48.7201 561.903 49.3516 560.1 49.3516ZM561.73 45.7871C561.984 44.9277 562.111 43.6842 562.111 42.0566C562.111 40.3509 561.981 39.0879 561.721 38.2676C561.467 37.4473 560.926 37.0371 560.1 37.0371C559.273 37.0371 558.726 37.4473 558.459 38.2676C558.192 39.0879 558.059 40.3509 558.059 42.0566C558.059 43.6842 558.192 44.931 558.459 45.7969C558.726 46.6562 559.273 47.0859 560.1 47.0859C560.926 47.0859 561.47 46.653 561.73 45.7871ZM575.676 45.6504C575.676 44.6413 576.031 43.7819 576.74 43.0723C577.45 42.3691 578.306 42.0176 579.309 42.0176C580.311 42.0176 581.167 42.3724 581.877 43.082C582.587 43.7917 582.941 44.6478 582.941 45.6504C582.941 46.653 582.587 47.5091 581.877 48.2188C581.167 48.9284 580.311 49.2832 579.309 49.2832C578.306 49.2832 577.45 48.9284 576.74 48.2188C576.031 47.5091 575.676 46.653 575.676 45.6504ZM567.248 41.1094C566.538 40.3997 566.184 39.5436 566.184 38.541C566.184 37.5384 566.538 36.6823 567.248 35.9727C567.958 35.263 568.814 34.9082 569.816 34.9082C570.819 34.9082 571.675 35.263 572.385 35.9727C573.094 36.6823 573.449 37.5384 573.449 38.541C573.449 39.5436 573.094 40.3997 572.385 41.1094C571.682 41.819 570.826 42.1738 569.816 42.1738C568.814 42.1738 567.958 41.819 567.248 41.1094ZM571.35 49.3711H569.836L577.756 34.8398H579.24L571.35 49.3711ZM578.215 46.7441C578.514 47.0501 578.879 47.2031 579.309 47.2031C579.738 47.2031 580.103 47.0534 580.402 46.7539C580.708 46.4479 580.861 46.0801 580.861 45.6504C580.861 45.2207 580.708 44.8561 580.402 44.5566C580.103 44.2507 579.738 44.0977 579.309 44.0977C578.879 44.0977 578.511 44.2507 578.205 44.5566C577.906 44.8561 577.756 45.2207 577.756 45.6504C577.756 46.0801 577.909 46.4447 578.215 46.7441ZM568.723 39.6348C569.022 39.9408 569.387 40.0938 569.816 40.0938C570.246 40.0938 570.611 39.944 570.91 39.6445C571.216 39.3385 571.369 38.9707 571.369 38.541C571.369 38.1113 571.216 37.7467 570.91 37.4473C570.611 37.1413 570.246 36.9883 569.816 36.9883C569.387 36.9883 569.019 37.1413 568.713 37.4473C568.413 37.7467 568.264 38.1113 568.264 38.541C568.264 38.9707 568.417 39.3353 568.723 39.6348ZM586.477 52.0859L585.783 53.0332H583.723C584.582 51.4837 585.181 50.2142 585.52 49.2246C586.099 47.5514 586.389 45.7188 586.389 43.7266C586.389 42.4505 586.285 41.2721 586.076 40.1914C585.757 38.5443 585.188 36.9688 584.367 35.4648L583.771 34.3711H585.871C586.861 35.7513 587.613 37.0404 588.127 38.2383C588.889 39.9961 589.27 41.7669 589.27 43.5508C589.27 45.5104 588.817 47.5026 587.912 49.5273C587.404 50.6602 586.926 51.513 586.477 52.0859Z" fill="#67BCFA"/>
<g filter="url(#filter2_ii_23_7819)">
<rect width="155" height="60" rx="12.454" transform="matrix(-1 0 0 1 553 70)" fill="url(#paint2_linear_23_7819)"/>
</g>
<path d="M458.137 88.7109H451.145V92.4121H459.113V95H448.205V80.6055H458.762V83.1543H451.145V86.2109H458.137V88.7109ZM461.291 80.6055H464.074V95H461.291V80.6055ZM475.676 85.7031C476.574 86.8294 477.023 88.1608 477.023 89.6973C477.023 91.2598 476.574 92.5977 475.676 93.7109C474.777 94.8177 473.413 95.3711 471.584 95.3711C469.755 95.3711 468.391 94.8177 467.492 93.7109C466.594 92.5977 466.145 91.2598 466.145 89.6973C466.145 88.1608 466.594 86.8294 467.492 85.7031C468.391 84.5768 469.755 84.0137 471.584 84.0137C473.413 84.0137 474.777 84.5768 475.676 85.7031ZM471.574 86.3672C470.76 86.3672 470.132 86.6569 469.689 87.2363C469.253 87.8092 469.035 88.6296 469.035 89.6973C469.035 90.765 469.253 91.5885 469.689 92.168C470.132 92.7474 470.76 93.0371 471.574 93.0371C472.388 93.0371 473.013 92.7474 473.449 92.168C473.885 91.5885 474.104 90.765 474.104 89.6973C474.104 88.6296 473.885 87.8092 473.449 87.2363C473.013 86.6569 472.388 86.3672 471.574 86.3672ZM485.363 89.3555H482.258V95H479.318V80.6055H486.379C487.388 80.625 488.163 80.7487 488.703 80.9766C489.25 81.2044 489.712 81.5397 490.09 81.9824C490.402 82.347 490.65 82.7507 490.832 83.1934C491.014 83.6361 491.105 84.1406 491.105 84.707C491.105 85.3906 490.933 86.0645 490.588 86.7285C490.243 87.3861 489.673 87.8516 488.879 88.125C489.543 88.3919 490.012 88.7728 490.285 89.2676C490.565 89.7559 490.705 90.5046 490.705 91.5137V92.4805C490.705 93.138 490.731 93.584 490.783 93.8184C490.861 94.1895 491.044 94.4629 491.33 94.6387V95H488.02C487.928 94.681 487.863 94.4238 487.824 94.2285C487.746 93.8249 487.704 93.4115 487.697 92.9883L487.678 91.6504C487.665 90.7324 487.495 90.1204 487.17 89.8145C486.851 89.5085 486.249 89.3555 485.363 89.3555ZM487.189 86.7383C487.788 86.4648 488.088 85.9245 488.088 85.1172C488.088 84.2448 487.798 83.6589 487.219 83.3594C486.893 83.1901 486.405 83.1055 485.754 83.1055H482.258V86.9727H485.666C486.343 86.9727 486.851 86.8945 487.189 86.7383ZM503.166 80.625V95H500.461V93.5254C500.064 94.1569 499.611 94.6159 499.104 94.9023C498.596 95.1888 497.964 95.332 497.209 95.332C495.965 95.332 494.917 94.8307 494.064 93.8281C493.218 92.819 492.795 91.5267 492.795 89.9512C492.795 88.1348 493.212 86.7057 494.045 85.6641C494.885 84.6224 496.005 84.1016 497.404 84.1016C498.049 84.1016 498.622 84.2448 499.123 84.5312C499.624 84.8112 500.031 85.2018 500.344 85.7031V80.625H503.166ZM495.666 89.7461C495.666 90.7292 495.861 91.5137 496.252 92.0996C496.636 92.6921 497.222 92.9883 498.01 92.9883C498.798 92.9883 499.396 92.6953 499.807 92.1094C500.217 91.5234 500.422 90.765 500.422 89.834C500.422 88.5319 500.093 87.6009 499.436 87.041C499.032 86.7025 498.563 86.5332 498.029 86.5332C497.215 86.5332 496.617 86.8424 496.232 87.4609C495.855 88.0729 495.666 88.8346 495.666 89.7461ZM444.543 123.033L443.85 122.086C443.4 121.513 442.922 120.66 442.414 119.527C441.509 117.503 441.057 115.51 441.057 113.551C441.057 111.767 441.438 109.996 442.199 108.238C442.714 107.04 443.465 105.751 444.455 104.371H446.555L445.959 105.465C445.139 106.969 444.569 108.544 444.25 110.191C444.042 111.272 443.938 112.451 443.938 113.727C443.938 115.719 444.227 117.551 444.807 119.225C445.145 120.214 445.744 121.484 446.604 123.033H444.543ZM453.156 110.416C452.212 110.416 451.564 110.816 451.213 111.617C451.031 112.04 450.939 112.581 450.939 113.238V119H448.166V108.375H450.852V109.928C451.21 109.381 451.548 108.987 451.867 108.746C452.44 108.316 453.166 108.102 454.045 108.102C455.145 108.102 456.044 108.391 456.74 108.971C457.443 109.544 457.795 110.497 457.795 111.832V119H454.943V112.525C454.943 111.965 454.868 111.536 454.719 111.236C454.445 110.689 453.924 110.416 453.156 110.416ZM470.363 110.143V112.711H459.787V110.143H470.363ZM459.787 117.271V114.703H470.363V117.271H459.787ZM474.582 107.662C474.27 108.079 474.12 108.635 474.133 109.332H471.535C471.561 108.629 471.682 107.962 471.896 107.33C472.124 106.777 472.482 106.266 472.971 105.797C473.335 105.465 473.768 105.211 474.27 105.035C474.771 104.859 475.386 104.771 476.115 104.771C477.469 104.771 478.56 105.123 479.387 105.826C480.22 106.523 480.637 107.46 480.637 108.639C480.637 109.472 480.389 110.175 479.895 110.748C479.582 111.106 479.257 111.35 478.918 111.48C479.172 111.48 479.536 111.699 480.012 112.135C480.721 112.792 481.076 113.691 481.076 114.83C481.076 116.028 480.66 117.083 479.826 117.994C478.999 118.899 477.772 119.352 476.145 119.352C474.139 119.352 472.746 118.697 471.965 117.389C471.555 116.692 471.327 115.781 471.281 114.654H474.016C474.016 115.221 474.107 115.689 474.289 116.061C474.628 116.744 475.243 117.086 476.135 117.086C476.682 117.086 477.157 116.9 477.561 116.529C477.971 116.152 478.176 115.611 478.176 114.908C478.176 113.977 477.798 113.355 477.043 113.043C476.613 112.867 475.936 112.779 475.012 112.779V110.787C475.917 110.774 476.548 110.686 476.906 110.523C477.525 110.25 477.834 109.697 477.834 108.863C477.834 108.323 477.674 107.883 477.355 107.545C477.043 107.206 476.6 107.037 476.027 107.037C475.37 107.037 474.888 107.245 474.582 107.662ZM489.455 119H486.604V109.234H483.273V107.34C484.152 107.301 484.768 107.242 485.119 107.164C485.679 107.04 486.135 106.793 486.486 106.422C486.727 106.168 486.91 105.829 487.033 105.406C487.105 105.152 487.141 104.964 487.141 104.84H489.455V119ZM494.768 118.111C493.954 117.278 493.547 116.266 493.547 115.074C493.547 114.28 493.726 113.561 494.084 112.916C494.449 112.271 494.979 111.786 495.676 111.461C494.992 111.005 494.546 110.514 494.338 109.986C494.136 109.452 494.035 108.954 494.035 108.492C494.035 107.464 494.423 106.588 495.197 105.865C495.972 105.136 497.066 104.771 498.479 104.771C499.891 104.771 500.985 105.136 501.76 105.865C502.535 106.588 502.922 107.464 502.922 108.492C502.922 108.954 502.818 109.452 502.609 109.986C502.408 110.514 501.965 110.973 501.281 111.363C501.978 111.754 502.502 112.271 502.854 112.916C503.205 113.561 503.381 114.28 503.381 115.074C503.381 116.266 502.938 117.281 502.053 118.121C501.174 118.954 499.943 119.371 498.361 119.371C496.779 119.371 495.581 118.951 494.768 118.111ZM496.438 114.889C496.438 115.585 496.617 116.126 496.975 116.51C497.339 116.894 497.84 117.086 498.479 117.086C499.117 117.086 499.615 116.894 499.973 116.51C500.337 116.126 500.52 115.585 500.52 114.889C500.52 114.166 500.334 113.619 499.963 113.248C499.598 112.87 499.104 112.682 498.479 112.682C497.854 112.682 497.355 112.87 496.984 113.248C496.62 113.619 496.438 114.166 496.438 114.889ZM497.17 110.064C497.482 110.39 497.919 110.553 498.479 110.553C499.045 110.553 499.481 110.39 499.787 110.064C500.1 109.739 500.256 109.319 500.256 108.805C500.256 108.245 500.1 107.809 499.787 107.496C499.481 107.177 499.045 107.018 498.479 107.018C497.919 107.018 497.479 107.177 497.16 107.496C496.848 107.809 496.691 108.245 496.691 108.805C496.691 109.319 496.851 109.739 497.17 110.064ZM507.111 122.086L506.418 123.033H504.357C505.217 121.484 505.816 120.214 506.154 119.225C506.734 117.551 507.023 115.719 507.023 113.727C507.023 112.451 506.919 111.272 506.711 110.191C506.392 108.544 505.822 106.969 505.002 105.465L504.406 104.371H506.506C507.495 105.751 508.247 107.04 508.762 108.238C509.523 109.996 509.904 111.767 509.904 113.551C509.904 115.51 509.452 117.503 508.547 119.527C508.039 120.66 507.561 121.513 507.111 122.086Z" fill="#67BCFA"/>
<g filter="url(#filter3_ii_23_7819)">
<rect width="155" height="60" rx="12.454" transform="matrix(-1 0 0 1 718 70)" fill="url(#paint3_linear_23_7819)"/>
</g>
<path d="M634.797 89.3555H631.691V95H628.752V80.6055H635.812C636.822 80.625 637.596 80.7487 638.137 80.9766C638.684 81.2044 639.146 81.5397 639.523 81.9824C639.836 82.347 640.083 82.7507 640.266 83.1934C640.448 83.6361 640.539 84.1406 640.539 84.707C640.539 85.3906 640.367 86.0645 640.021 86.7285C639.676 87.3861 639.107 87.8516 638.312 88.125C638.977 88.3919 639.445 88.7728 639.719 89.2676C639.999 89.7559 640.139 90.5046 640.139 91.5137V92.4805C640.139 93.138 640.165 93.584 640.217 93.8184C640.295 94.1895 640.477 94.4629 640.764 94.6387V95H637.453C637.362 94.681 637.297 94.4238 637.258 94.2285C637.18 93.8249 637.137 93.4115 637.131 92.9883L637.111 91.6504C637.098 90.7324 636.929 90.1204 636.604 89.8145C636.285 89.5085 635.682 89.3555 634.797 89.3555ZM636.623 86.7383C637.222 86.4648 637.521 85.9245 637.521 85.1172C637.521 84.2448 637.232 83.6589 636.652 83.3594C636.327 83.1901 635.839 83.1055 635.188 83.1055H631.691V86.9727H635.1C635.777 86.9727 636.285 86.8945 636.623 86.7383ZM652.6 80.625V95H649.895V93.5254C649.497 94.1569 649.045 94.6159 648.537 94.9023C648.029 95.1888 647.398 95.332 646.643 95.332C645.399 95.332 644.351 94.8307 643.498 93.8281C642.652 92.819 642.229 91.5267 642.229 89.9512C642.229 88.1348 642.645 86.7057 643.479 85.6641C644.318 84.6224 645.438 84.1016 646.838 84.1016C647.482 84.1016 648.055 84.2448 648.557 84.5312C649.058 84.8112 649.465 85.2018 649.777 85.7031V80.625H652.6ZM645.1 89.7461C645.1 90.7292 645.295 91.5137 645.686 92.0996C646.07 92.6921 646.656 92.9883 647.443 92.9883C648.231 92.9883 648.83 92.6953 649.24 92.1094C649.65 91.5234 649.855 90.765 649.855 89.834C649.855 88.5319 649.527 87.6009 648.869 87.041C648.465 86.7025 647.997 86.5332 647.463 86.5332C646.649 86.5332 646.05 86.8424 645.666 87.4609C645.288 88.0729 645.1 88.8346 645.1 89.7461ZM609.543 123.033L608.85 122.086C608.4 121.513 607.922 120.66 607.414 119.527C606.509 117.503 606.057 115.51 606.057 113.551C606.057 111.767 606.438 109.996 607.199 108.238C607.714 107.04 608.465 105.751 609.455 104.371H611.555L610.959 105.465C610.139 106.969 609.569 108.544 609.25 110.191C609.042 111.272 608.938 112.451 608.938 113.727C608.938 115.719 609.227 117.551 609.807 119.225C610.145 120.214 610.744 121.484 611.604 123.033H609.543ZM618.156 110.416C617.212 110.416 616.564 110.816 616.213 111.617C616.031 112.04 615.939 112.581 615.939 113.238V119H613.166V108.375H615.852V109.928C616.21 109.381 616.548 108.987 616.867 108.746C617.44 108.316 618.166 108.102 619.045 108.102C620.145 108.102 621.044 108.391 621.74 108.971C622.443 109.544 622.795 110.497 622.795 111.832V119H619.943V112.525C619.943 111.965 619.868 111.536 619.719 111.236C619.445 110.689 618.924 110.416 618.156 110.416ZM635.363 110.143V112.711H624.787V110.143H635.363ZM624.787 117.271V114.703H635.363V117.271H624.787ZM639.582 107.662C639.27 108.079 639.12 108.635 639.133 109.332H636.535C636.561 108.629 636.682 107.962 636.896 107.33C637.124 106.777 637.482 106.266 637.971 105.797C638.335 105.465 638.768 105.211 639.27 105.035C639.771 104.859 640.386 104.771 641.115 104.771C642.469 104.771 643.56 105.123 644.387 105.826C645.22 106.523 645.637 107.46 645.637 108.639C645.637 109.472 645.389 110.175 644.895 110.748C644.582 111.106 644.257 111.35 643.918 111.48C644.172 111.48 644.536 111.699 645.012 112.135C645.721 112.792 646.076 113.691 646.076 114.83C646.076 116.028 645.66 117.083 644.826 117.994C643.999 118.899 642.772 119.352 641.145 119.352C639.139 119.352 637.746 118.697 636.965 117.389C636.555 116.692 636.327 115.781 636.281 114.654H639.016C639.016 115.221 639.107 115.689 639.289 116.061C639.628 116.744 640.243 117.086 641.135 117.086C641.682 117.086 642.157 116.9 642.561 116.529C642.971 116.152 643.176 115.611 643.176 114.908C643.176 113.977 642.798 113.355 642.043 113.043C641.613 112.867 640.936 112.779 640.012 112.779V110.787C640.917 110.774 641.548 110.686 641.906 110.523C642.525 110.25 642.834 109.697 642.834 108.863C642.834 108.323 642.674 107.883 642.355 107.545C642.043 107.206 641.6 107.037 641.027 107.037C640.37 107.037 639.888 107.245 639.582 107.662ZM654.455 119H651.604V109.234H648.273V107.34C649.152 107.301 649.768 107.242 650.119 107.164C650.679 107.04 651.135 106.793 651.486 106.422C651.727 106.168 651.91 105.829 652.033 105.406C652.105 105.152 652.141 104.964 652.141 104.84H654.455V119ZM666.828 109.391C666.086 110.445 665.464 111.533 664.963 112.652C664.566 113.531 664.208 114.605 663.889 115.875C663.57 117.145 663.41 118.186 663.41 119H660.52C660.604 116.461 661.438 113.821 663.02 111.08C664.042 109.381 664.898 108.196 665.588 107.525H658.527L658.566 105.025H668.566V107.203C668.15 107.613 667.57 108.342 666.828 109.391ZM672.111 122.086L671.418 123.033H669.357C670.217 121.484 670.816 120.214 671.154 119.225C671.734 117.551 672.023 115.719 672.023 113.727C672.023 112.451 671.919 111.272 671.711 110.191C671.392 108.544 670.822 106.969 670.002 105.465L669.406 104.371H671.506C672.495 105.751 673.247 107.04 673.762 108.238C674.523 109.996 674.904 111.767 674.904 113.551C674.904 115.51 674.452 117.503 673.547 119.527C673.039 120.66 672.561 121.513 672.111 122.086Z" fill="#67BCFA"/>
<g filter="url(#filter4_ii_23_7819)">
<rect width="320" height="60" rx="12.454" transform="matrix(-1 0 0 1 1048 0)" fill="url(#paint4_linear_23_7819)"/>
</g>
<path d="M778.713 13.6621C778.4 14.0788 778.251 14.6354 778.264 15.332H775.666C775.692 14.6289 775.812 13.9616 776.027 13.3301C776.255 12.7767 776.613 12.2656 777.102 11.7969C777.466 11.4648 777.899 11.2109 778.4 11.0352C778.902 10.8594 779.517 10.7715 780.246 10.7715C781.6 10.7715 782.691 11.123 783.518 11.8262C784.351 12.5228 784.768 13.4603 784.768 14.6387C784.768 15.472 784.52 16.1751 784.025 16.748C783.713 17.1061 783.387 17.3503 783.049 17.4805C783.303 17.4805 783.667 17.6986 784.143 18.1348C784.852 18.7923 785.207 19.6908 785.207 20.8301C785.207 22.028 784.79 23.0827 783.957 23.9941C783.13 24.8991 781.903 25.3516 780.275 25.3516C778.27 25.3516 776.877 24.6973 776.096 23.3887C775.686 22.6921 775.458 21.7806 775.412 20.6543H778.146C778.146 21.2207 778.238 21.6895 778.42 22.0605C778.758 22.7441 779.374 23.0859 780.266 23.0859C780.812 23.0859 781.288 22.9004 781.691 22.5293C782.102 22.1517 782.307 21.6113 782.307 20.9082C782.307 19.9772 781.929 19.3555 781.174 19.043C780.744 18.8672 780.067 18.7793 779.143 18.7793V16.7871C780.048 16.7741 780.679 16.6862 781.037 16.5234C781.656 16.25 781.965 15.6966 781.965 14.8633C781.965 14.3229 781.805 13.8835 781.486 13.5449C781.174 13.2064 780.731 13.0371 780.158 13.0371C779.501 13.0371 779.019 13.2454 778.713 13.6621ZM785.969 18.3398H797.17V20.4688H785.969V18.3398ZM807.609 19.7754V21.9531H806.008V25H803.283V21.9531H797.678V19.5215L802.883 10.9277H806.008V19.7754H807.609ZM799.738 19.7754H803.283V13.6621L799.738 19.7754ZM808.742 18.1055H814.348V20.7422H808.742V18.1055ZM816.701 20.8301C816.805 20.6803 816.949 20.5501 817.131 20.4395C817.313 20.3288 817.557 20.2279 817.863 20.1367C817.766 20.1107 817.655 20.0749 817.531 20.0293C817.414 19.9772 817.287 19.9121 817.15 19.834C817.02 19.7493 816.887 19.6452 816.75 19.5215C816.62 19.3913 816.496 19.2318 816.379 19.043C816.294 18.9193 816.226 18.7891 816.174 18.6523C816.128 18.5091 816.092 18.3724 816.066 18.2422C816.04 18.1055 816.024 17.9785 816.018 17.8613C816.011 17.7441 816.008 17.6432 816.008 17.5586C816.008 17.181 816.053 16.8457 816.145 16.5527C816.236 16.2533 816.353 15.9928 816.496 15.7715C816.639 15.5501 816.802 15.3613 816.984 15.2051C817.167 15.0488 817.352 14.9219 817.541 14.8242C817.749 14.707 817.98 14.6191 818.234 14.5605C818.488 14.4954 818.736 14.4499 818.977 14.4238C819.217 14.3913 819.442 14.3717 819.65 14.3652C819.859 14.3587 820.021 14.3555 820.139 14.3555H825.861V25H823.088V21.084H821.281C820.884 21.084 820.542 21.1003 820.256 21.1328C819.976 21.1589 819.745 21.2272 819.562 21.3379C819.38 21.4421 819.24 21.5983 819.143 21.8066C819.051 22.015 818.999 22.2982 818.986 22.6562L818.947 23.6816C818.934 23.8314 818.915 24.0267 818.889 24.2676C818.869 24.5085 818.807 24.7526 818.703 25H815.783C815.868 24.8568 815.936 24.7201 815.988 24.5898C816.04 24.4531 816.079 24.3229 816.105 24.1992C816.138 24.069 816.161 23.9388 816.174 23.8086C816.193 23.6784 816.21 23.5417 816.223 23.3984L816.359 22.1191C816.392 21.8327 816.431 21.5853 816.477 21.377C816.522 21.1686 816.597 20.9863 816.701 20.8301ZM819.084 18.5645C819.195 18.7402 819.338 18.8704 819.514 18.9551C819.696 19.0397 819.898 19.0885 820.119 19.1016C820.34 19.1146 820.562 19.1211 820.783 19.1211H823.088V16.4355H820.861C820.627 16.4355 820.393 16.4421 820.158 16.4551C819.924 16.4681 819.712 16.5202 819.523 16.6113C819.341 16.696 819.191 16.8327 819.074 17.0215C818.964 17.2038 818.908 17.4642 818.908 17.8027C818.908 18.1348 818.967 18.3887 819.084 18.5645ZM838.42 22.959C838.739 22.959 839.016 22.8971 839.25 22.7734C839.484 22.6432 839.68 22.4837 839.836 22.2949C839.992 22.1061 840.106 21.9043 840.178 21.6895C840.256 21.4746 840.295 21.2793 840.295 21.1035H843.176C843.176 21.2793 843.143 21.5072 843.078 21.7871C843.02 22.0671 842.919 22.3633 842.775 22.6758C842.632 22.9883 842.44 23.304 842.199 23.623C841.965 23.9355 841.669 24.2188 841.311 24.4727C840.959 24.7201 840.546 24.9219 840.07 25.0781C839.595 25.2409 839.045 25.3223 838.42 25.3223C837.606 25.3223 836.887 25.1986 836.262 24.9512C835.643 24.7038 835.122 24.3424 834.699 23.8672C834.283 23.3854 833.964 22.793 833.742 22.0898C833.527 21.3867 833.42 20.5827 833.42 19.6777C833.42 18.7728 833.537 17.972 833.771 17.2754C834.012 16.5723 834.351 15.9831 834.787 15.5078C835.223 15.026 835.747 14.6615 836.359 14.4141C836.978 14.1667 837.665 14.043 838.42 14.043C838.745 14.043 839.081 14.069 839.426 14.1211C839.777 14.1732 840.122 14.2643 840.461 14.3945C840.799 14.5182 841.122 14.681 841.428 14.8828C841.74 15.0846 842.017 15.3385 842.258 15.6445C842.505 15.944 842.707 16.2988 842.863 16.709C843.026 17.1126 843.13 17.5814 843.176 18.1152H840.295C840.243 17.8353 840.171 17.5911 840.08 17.3828C839.989 17.168 839.868 16.9889 839.719 16.8457C839.576 16.696 839.396 16.5853 839.182 16.5137C838.973 16.4355 838.719 16.3965 838.42 16.3965C837.958 16.3965 837.587 16.5039 837.307 16.7188C837.033 16.9336 836.822 17.2038 836.672 17.5293C836.522 17.8548 836.421 18.2096 836.369 18.5938C836.324 18.9779 836.301 19.3392 836.301 19.6777C836.301 20.0293 836.32 20.4004 836.359 20.791C836.398 21.1751 836.49 21.5299 836.633 21.8555C836.776 22.1745 836.988 22.4382 837.268 22.6465C837.548 22.8548 837.932 22.959 838.42 22.959ZM853.469 14.3555V16.6016H850.246V25H847.492V16.6016H844.27V14.3555H853.469ZM857.521 25.0098C856.896 24.7949 856.35 24.4596 855.881 24.0039C855.419 23.5417 855.054 22.946 854.787 22.2168C854.52 21.4876 854.387 20.6022 854.387 19.5605C854.387 18.8379 854.481 18.1445 854.67 17.4805C854.865 16.8099 855.165 16.2207 855.568 15.7129C855.979 15.2051 856.499 14.8014 857.131 14.502C857.769 14.196 858.534 14.043 859.426 14.043C860.37 14.043 861.164 14.1992 861.809 14.5117C862.453 14.8177 862.971 15.2539 863.361 15.8203C863.758 16.3867 864.042 17.0703 864.211 17.8711C864.38 18.6719 864.465 19.5605 864.465 20.5371H857.17C857.17 20.6348 857.18 20.765 857.199 20.9277C857.219 21.0905 857.258 21.2663 857.316 21.4551C857.375 21.6439 857.46 21.8359 857.57 22.0312C857.681 22.2201 857.827 22.3926 858.01 22.5488C858.199 22.7051 858.426 22.832 858.693 22.9297C858.967 23.0273 859.292 23.0762 859.67 23.0762C859.865 23.0762 860.057 23.0501 860.246 22.998C860.441 22.9395 860.62 22.8581 860.783 22.7539C860.946 22.6432 861.086 22.513 861.203 22.3633C861.327 22.207 861.415 22.0312 861.467 21.8359H864.328C864.328 22.0312 864.286 22.2559 864.201 22.5098C864.117 22.7572 863.986 23.0111 863.811 23.2715C863.641 23.5254 863.426 23.776 863.166 24.0234C862.906 24.2708 862.596 24.4922 862.238 24.6875C861.88 24.8763 861.473 25.0293 861.018 25.1465C860.568 25.2637 860.067 25.3223 859.514 25.3223C858.804 25.3223 858.14 25.2181 857.521 25.0098ZM858.01 16.7773C857.795 16.9661 857.616 17.2168 857.473 17.5293C857.336 17.8418 857.268 18.2324 857.268 18.7012H861.594C861.594 18.2324 861.522 17.8418 861.379 17.5293C861.242 17.2168 861.066 16.9694 860.852 16.7871C860.643 16.5983 860.412 16.4681 860.158 16.3965C859.904 16.3184 859.66 16.2793 859.426 16.2793C859.198 16.2793 858.957 16.3184 858.703 16.3965C858.449 16.4681 858.218 16.5951 858.01 16.7773ZM866.32 14.3555H875.9V25H873.146V16.6016H869.084V25H866.32V14.3555ZM880.881 25.0098C880.256 24.7949 879.709 24.4596 879.24 24.0039C878.778 23.5417 878.413 22.946 878.146 22.2168C877.88 21.4876 877.746 20.6022 877.746 19.5605C877.746 18.8379 877.84 18.1445 878.029 17.4805C878.225 16.8099 878.524 16.2207 878.928 15.7129C879.338 15.2051 879.859 14.8014 880.49 14.502C881.128 14.196 881.893 14.043 882.785 14.043C883.729 14.043 884.523 14.1992 885.168 14.5117C885.812 14.8177 886.33 15.2539 886.721 15.8203C887.118 16.3867 887.401 17.0703 887.57 17.8711C887.74 18.6719 887.824 19.5605 887.824 20.5371H880.529C880.529 20.6348 880.539 20.765 880.559 20.9277C880.578 21.0905 880.617 21.2663 880.676 21.4551C880.734 21.6439 880.819 21.8359 880.93 22.0312C881.04 22.2201 881.187 22.3926 881.369 22.5488C881.558 22.7051 881.786 22.832 882.053 22.9297C882.326 23.0273 882.652 23.0762 883.029 23.0762C883.225 23.0762 883.417 23.0501 883.605 22.998C883.801 22.9395 883.98 22.8581 884.143 22.7539C884.305 22.6432 884.445 22.513 884.562 22.3633C884.686 22.207 884.774 22.0312 884.826 21.8359H887.688C887.688 22.0312 887.645 22.2559 887.561 22.5098C887.476 22.7572 887.346 23.0111 887.17 23.2715C887.001 23.5254 886.786 23.776 886.525 24.0234C886.265 24.2708 885.956 24.4922 885.598 24.6875C885.24 24.8763 884.833 25.0293 884.377 25.1465C883.928 25.2637 883.426 25.3223 882.873 25.3223C882.163 25.3223 881.499 25.2181 880.881 25.0098ZM881.369 16.7773C881.154 16.9661 880.975 17.2168 880.832 17.5293C880.695 17.8418 880.627 18.2324 880.627 18.7012H884.953C884.953 18.2324 884.882 17.8418 884.738 17.5293C884.602 17.2168 884.426 16.9694 884.211 16.7871C884.003 16.5983 883.771 16.4681 883.518 16.3965C883.264 16.3184 883.02 16.2793 882.785 16.2793C882.557 16.2793 882.316 16.3184 882.062 16.3965C881.809 16.4681 881.577 16.5951 881.369 16.7773ZM896.506 20.4395H892.443V25H889.68V14.3555H892.443V18.2031H896.506V14.3555H899.26V25H896.506V20.4395ZM908.332 24.9707C908.085 24.9902 907.896 25 907.766 25H901.887V14.3555H904.65V18.0566H907.473C908.13 18.0566 908.716 18.125 909.23 18.2617C909.751 18.3984 910.191 18.61 910.549 18.8965C910.907 19.1829 911.18 19.5475 911.369 19.9902C911.558 20.4264 911.652 20.944 911.652 21.543C911.652 22.0833 911.574 22.5456 911.418 22.9297C911.262 23.3138 911.06 23.6361 910.812 23.8965C910.572 24.1504 910.301 24.3522 910.002 24.502C909.702 24.6452 909.41 24.7559 909.123 24.834C908.837 24.9056 908.573 24.9512 908.332 24.9707ZM908.176 20.4199C907.987 20.3158 907.769 20.2441 907.521 20.2051C907.281 20.1595 907.023 20.1367 906.75 20.1367H904.65V22.9199H906.984C907.199 22.9199 907.411 22.9036 907.619 22.8711C907.834 22.832 908.026 22.7637 908.195 22.666C908.371 22.5618 908.511 22.4219 908.615 22.2461C908.719 22.0638 908.771 21.8294 908.771 21.543C908.771 21.263 908.716 21.0319 908.605 20.8496C908.501 20.6673 908.358 20.5241 908.176 20.4199ZM927.316 14.3555V16.6016H924.094V25H921.34V16.6016H918.117V14.3555H927.316ZM929.475 20.8301C929.579 20.6803 929.722 20.5501 929.904 20.4395C930.087 20.3288 930.331 20.2279 930.637 20.1367C930.539 20.1107 930.428 20.0749 930.305 20.0293C930.188 19.9772 930.061 19.9121 929.924 19.834C929.794 19.7493 929.66 19.6452 929.523 19.5215C929.393 19.3913 929.27 19.2318 929.152 19.043C929.068 18.9193 928.999 18.7891 928.947 18.6523C928.902 18.5091 928.866 18.3724 928.84 18.2422C928.814 18.1055 928.798 17.9785 928.791 17.8613C928.785 17.7441 928.781 17.6432 928.781 17.5586C928.781 17.181 928.827 16.8457 928.918 16.5527C929.009 16.2533 929.126 15.9928 929.27 15.7715C929.413 15.5501 929.576 15.3613 929.758 15.2051C929.94 15.0488 930.126 14.9219 930.314 14.8242C930.523 14.707 930.754 14.6191 931.008 14.5605C931.262 14.4954 931.509 14.4499 931.75 14.4238C931.991 14.3913 932.215 14.3717 932.424 14.3652C932.632 14.3587 932.795 14.3555 932.912 14.3555H938.635V25H935.861V21.084H934.055C933.658 21.084 933.316 21.1003 933.029 21.1328C932.749 21.1589 932.518 21.2272 932.336 21.3379C932.154 21.4421 932.014 21.5983 931.916 21.8066C931.825 22.015 931.773 22.2982 931.76 22.6562L931.721 23.6816C931.708 23.8314 931.688 24.0267 931.662 24.2676C931.643 24.5085 931.581 24.7526 931.477 25H928.557C928.641 24.8568 928.71 24.7201 928.762 24.5898C928.814 24.4531 928.853 24.3229 928.879 24.1992C928.911 24.069 928.934 23.9388 928.947 23.8086C928.967 23.6784 928.983 23.5417 928.996 23.3984L929.133 22.1191C929.165 21.8327 929.204 21.5853 929.25 21.377C929.296 21.1686 929.37 20.9863 929.475 20.8301ZM931.857 18.5645C931.968 18.7402 932.111 18.8704 932.287 18.9551C932.469 19.0397 932.671 19.0885 932.893 19.1016C933.114 19.1146 933.335 19.1211 933.557 19.1211H935.861V16.4355H933.635C933.4 16.4355 933.166 16.4421 932.932 16.4551C932.697 16.4681 932.486 16.5202 932.297 16.6113C932.115 16.696 931.965 16.8327 931.848 17.0215C931.737 17.2038 931.682 17.4642 931.682 17.8027C931.682 18.1348 931.74 18.3887 931.857 18.5645ZM953.127 14.3555H956.281L952.707 19.2773L956.467 25H953.127L950.207 20.4785H949.68V25H946.926V20.4785H946.32L943.322 25H940.1L943.879 19.2773L940.344 14.3555H943.508L946.408 18.584H946.926V14.3555H949.68V18.584H950.207L953.127 14.3555ZM960.275 25.0098C959.65 24.7949 959.104 24.4596 958.635 24.0039C958.173 23.5417 957.808 22.946 957.541 22.2168C957.274 21.4876 957.141 20.6022 957.141 19.5605C957.141 18.8379 957.235 18.1445 957.424 17.4805C957.619 16.8099 957.919 16.2207 958.322 15.7129C958.732 15.2051 959.253 14.8014 959.885 14.502C960.523 14.196 961.288 14.043 962.18 14.043C963.124 14.043 963.918 14.1992 964.562 14.5117C965.207 14.8177 965.725 15.2539 966.115 15.8203C966.512 16.3867 966.796 17.0703 966.965 17.8711C967.134 18.6719 967.219 19.5605 967.219 20.5371H959.924C959.924 20.6348 959.934 20.765 959.953 20.9277C959.973 21.0905 960.012 21.2663 960.07 21.4551C960.129 21.6439 960.214 21.8359 960.324 22.0312C960.435 22.2201 960.581 22.3926 960.764 22.5488C960.952 22.7051 961.18 22.832 961.447 22.9297C961.721 23.0273 962.046 23.0762 962.424 23.0762C962.619 23.0762 962.811 23.0501 963 22.998C963.195 22.9395 963.374 22.8581 963.537 22.7539C963.7 22.6432 963.84 22.513 963.957 22.3633C964.081 22.207 964.169 22.0312 964.221 21.8359H967.082C967.082 22.0312 967.04 22.2559 966.955 22.5098C966.87 22.7572 966.74 23.0111 966.564 23.2715C966.395 23.5254 966.18 23.776 965.92 24.0234C965.66 24.2708 965.35 24.4922 964.992 24.6875C964.634 24.8763 964.227 25.0293 963.771 25.1465C963.322 25.2637 962.821 25.3223 962.268 25.3223C961.558 25.3223 960.894 25.2181 960.275 25.0098ZM960.764 16.7773C960.549 16.9661 960.37 17.2168 960.227 17.5293C960.09 17.8418 960.021 18.2324 960.021 18.7012H964.348C964.348 18.2324 964.276 17.8418 964.133 17.5293C963.996 17.2168 963.82 16.9694 963.605 16.7871C963.397 16.5983 963.166 16.4681 962.912 16.3965C962.658 16.3184 962.414 16.2793 962.18 16.2793C961.952 16.2793 961.711 16.3184 961.457 16.3965C961.203 16.4681 960.972 16.5951 960.764 16.7773ZM973.439 22.959C973.758 22.959 974.035 22.8971 974.27 22.7734C974.504 22.6432 974.699 22.4837 974.855 22.2949C975.012 22.1061 975.126 21.9043 975.197 21.6895C975.275 21.4746 975.314 21.2793 975.314 21.1035H978.195C978.195 21.2793 978.163 21.5072 978.098 21.7871C978.039 22.0671 977.938 22.3633 977.795 22.6758C977.652 22.9883 977.46 23.304 977.219 23.623C976.984 23.9355 976.688 24.2188 976.33 24.4727C975.979 24.7201 975.565 24.9219 975.09 25.0781C974.615 25.2409 974.064 25.3223 973.439 25.3223C972.626 25.3223 971.906 25.1986 971.281 24.9512C970.663 24.7038 970.142 24.3424 969.719 23.8672C969.302 23.3854 968.983 22.793 968.762 22.0898C968.547 21.3867 968.439 20.5827 968.439 19.6777C968.439 18.7728 968.557 17.972 968.791 17.2754C969.032 16.5723 969.37 15.9831 969.807 15.5078C970.243 15.026 970.767 14.6615 971.379 14.4141C971.997 14.1667 972.684 14.043 973.439 14.043C973.765 14.043 974.1 14.069 974.445 14.1211C974.797 14.1732 975.142 14.2643 975.48 14.3945C975.819 14.5182 976.141 14.681 976.447 14.8828C976.76 15.0846 977.036 15.3385 977.277 15.6445C977.525 15.944 977.727 16.2988 977.883 16.709C978.046 17.1126 978.15 17.5814 978.195 18.1152H975.314C975.262 17.8353 975.191 17.5911 975.1 17.3828C975.008 17.168 974.888 16.9889 974.738 16.8457C974.595 16.696 974.416 16.5853 974.201 16.5137C973.993 16.4355 973.739 16.3965 973.439 16.3965C972.977 16.3965 972.606 16.5039 972.326 16.7188C972.053 16.9336 971.841 17.2038 971.691 17.5293C971.542 17.8548 971.441 18.2096 971.389 18.5938C971.343 18.9779 971.32 19.3392 971.32 19.6777C971.32 20.0293 971.34 20.4004 971.379 20.791C971.418 21.1751 971.509 21.5299 971.652 21.8555C971.796 22.1745 972.007 22.4382 972.287 22.6465C972.567 22.8548 972.951 22.959 973.439 22.959ZM988.488 14.3555V16.6016H985.266V25H982.512V16.6016H979.289V14.3555H988.488ZM997.033 25V18.584H996.984L993.225 25H990.207V14.3555H992.971V20.918H993.01L996.887 14.3555H999.787V25H997.033ZM865.744 53.0332L865.051 52.0859C864.602 51.513 864.123 50.6602 863.615 49.5273C862.71 47.5026 862.258 45.5104 862.258 43.5508C862.258 41.7669 862.639 39.9961 863.4 38.2383C863.915 37.0404 864.667 35.7513 865.656 34.3711H867.756L867.16 35.4648C866.34 36.9688 865.77 38.5443 865.451 40.1914C865.243 41.2721 865.139 42.4505 865.139 43.7266C865.139 45.7188 865.428 47.5514 866.008 49.2246C866.346 50.2142 866.945 51.4837 867.805 53.0332H865.744ZM879.338 43.4531L868.762 46.3242V43.7266L875.197 42.2031L868.762 40.6992V38.1016L879.338 40.9727V43.4531ZM879.338 49H868.762V46.5977H879.338V49ZM884.357 41.9688C884.019 41.9688 883.726 42.0111 883.479 42.0957C883.042 42.252 882.714 42.5417 882.492 42.9648L879.992 42.8477L880.988 35.0254H888.791V37.3887H883L882.492 40.4844C882.922 40.2044 883.257 40.0189 883.498 39.9277C883.902 39.778 884.393 39.7031 884.973 39.7031C886.145 39.7031 887.167 40.097 888.039 40.8848C888.911 41.6725 889.348 42.8184 889.348 44.3223C889.348 45.6309 888.928 46.7995 888.088 47.8281C887.248 48.8568 885.992 49.3711 884.318 49.3711C882.971 49.3711 881.864 49.0098 880.998 48.2871C880.132 47.5645 879.65 46.5391 879.553 45.2109H882.326C882.437 45.8164 882.648 46.2852 882.961 46.6172C883.273 46.9427 883.729 47.1055 884.328 47.1055C885.018 47.1055 885.542 46.8646 885.9 46.3828C886.265 45.8945 886.447 45.2826 886.447 44.5469C886.447 43.8242 886.278 43.2155 885.939 42.7207C885.601 42.2194 885.074 41.9688 884.357 41.9688ZM900.109 45.6504C900.109 44.6413 900.464 43.7819 901.174 43.0723C901.883 42.3691 902.74 42.0176 903.742 42.0176C904.745 42.0176 905.601 42.3724 906.311 43.082C907.02 43.7917 907.375 44.6478 907.375 45.6504C907.375 46.653 907.02 47.5091 906.311 48.2188C905.601 48.9284 904.745 49.2832 903.742 49.2832C902.74 49.2832 901.883 48.9284 901.174 48.2188C900.464 47.5091 900.109 46.653 900.109 45.6504ZM891.682 41.1094C890.972 40.3997 890.617 39.5436 890.617 38.541C890.617 37.5384 890.972 36.6823 891.682 35.9727C892.391 35.263 893.247 34.9082 894.25 34.9082C895.253 34.9082 896.109 35.263 896.818 35.9727C897.528 36.6823 897.883 37.5384 897.883 38.541C897.883 39.5436 897.528 40.3997 896.818 41.1094C896.115 41.819 895.259 42.1738 894.25 42.1738C893.247 42.1738 892.391 41.819 891.682 41.1094ZM895.783 49.3711H894.27L902.189 34.8398H903.674L895.783 49.3711ZM902.648 46.7441C902.948 47.0501 903.312 47.2031 903.742 47.2031C904.172 47.2031 904.536 47.0534 904.836 46.7539C905.142 46.4479 905.295 46.0801 905.295 45.6504C905.295 45.2207 905.142 44.8561 904.836 44.5566C904.536 44.2507 904.172 44.0977 903.742 44.0977C903.312 44.0977 902.945 44.2507 902.639 44.5566C902.339 44.8561 902.189 45.2207 902.189 45.6504C902.189 46.0801 902.342 46.4447 902.648 46.7441ZM893.156 39.6348C893.456 39.9408 893.82 40.0938 894.25 40.0938C894.68 40.0938 895.044 39.944 895.344 39.6445C895.65 39.3385 895.803 38.9707 895.803 38.541C895.803 38.1113 895.65 37.7467 895.344 37.4473C895.044 37.1413 894.68 36.9883 894.25 36.9883C893.82 36.9883 893.452 37.1413 893.146 37.4473C892.847 37.7467 892.697 38.1113 892.697 38.541C892.697 38.9707 892.85 39.3353 893.156 39.6348ZM910.91 52.0859L910.217 53.0332H908.156C909.016 51.4837 909.615 50.2142 909.953 49.2246C910.533 47.5514 910.822 45.7188 910.822 43.7266C910.822 42.4505 910.718 41.2721 910.51 40.1914C910.191 38.5443 909.621 36.9688 908.801 35.4648L908.205 34.3711H910.305C911.294 35.7513 912.046 37.0404 912.561 38.2383C913.322 39.9961 913.703 41.7669 913.703 43.5508C913.703 45.5104 913.251 47.5026 912.346 49.5273C911.838 50.6602 911.359 51.513 910.91 52.0859Z" fill="#67BCFA"/>
<g filter="url(#filter5_ii_23_7819)">
<rect width="155" height="60" rx="12.454" transform="matrix(-1 0 0 1 883 70)" fill="url(#paint5_linear_23_7819)"/>
</g>
<path d="M788.137 88.7109H781.145V92.4121H789.113V95H778.205V80.6055H788.762V83.1543H781.145V86.2109H788.137V88.7109ZM791.291 80.6055H794.074V95H791.291V80.6055ZM805.676 85.7031C806.574 86.8294 807.023 88.1608 807.023 89.6973C807.023 91.2598 806.574 92.5977 805.676 93.7109C804.777 94.8177 803.413 95.3711 801.584 95.3711C799.755 95.3711 798.391 94.8177 797.492 93.7109C796.594 92.5977 796.145 91.2598 796.145 89.6973C796.145 88.1608 796.594 86.8294 797.492 85.7031C798.391 84.5768 799.755 84.0137 801.584 84.0137C803.413 84.0137 804.777 84.5768 805.676 85.7031ZM801.574 86.3672C800.76 86.3672 800.132 86.6569 799.689 87.2363C799.253 87.8092 799.035 88.6296 799.035 89.6973C799.035 90.765 799.253 91.5885 799.689 92.168C800.132 92.7474 800.76 93.0371 801.574 93.0371C802.388 93.0371 803.013 92.7474 803.449 92.168C803.885 91.5885 804.104 90.765 804.104 89.6973C804.104 88.6296 803.885 87.8092 803.449 87.2363C803.013 86.6569 802.388 86.3672 801.574 86.3672ZM815.363 89.3555H812.258V95H809.318V80.6055H816.379C817.388 80.625 818.163 80.7487 818.703 80.9766C819.25 81.2044 819.712 81.5397 820.09 81.9824C820.402 82.347 820.65 82.7507 820.832 83.1934C821.014 83.6361 821.105 84.1406 821.105 84.707C821.105 85.3906 820.933 86.0645 820.588 86.7285C820.243 87.3861 819.673 87.8516 818.879 88.125C819.543 88.3919 820.012 88.7728 820.285 89.2676C820.565 89.7559 820.705 90.5046 820.705 91.5137V92.4805C820.705 93.138 820.731 93.584 820.783 93.8184C820.861 94.1895 821.044 94.4629 821.33 94.6387V95H818.02C817.928 94.681 817.863 94.4238 817.824 94.2285C817.746 93.8249 817.704 93.4115 817.697 92.9883L817.678 91.6504C817.665 90.7324 817.495 90.1204 817.17 89.8145C816.851 89.5085 816.249 89.3555 815.363 89.3555ZM817.189 86.7383C817.788 86.4648 818.088 85.9245 818.088 85.1172C818.088 84.2448 817.798 83.6589 817.219 83.3594C816.893 83.1901 816.405 83.1055 815.754 83.1055H812.258V86.9727H815.666C816.343 86.9727 816.851 86.8945 817.189 86.7383ZM833.166 80.625V95H830.461V93.5254C830.064 94.1569 829.611 94.6159 829.104 94.9023C828.596 95.1888 827.964 95.332 827.209 95.332C825.965 95.332 824.917 94.8307 824.064 93.8281C823.218 92.819 822.795 91.5267 822.795 89.9512C822.795 88.1348 823.212 86.7057 824.045 85.6641C824.885 84.6224 826.005 84.1016 827.404 84.1016C828.049 84.1016 828.622 84.2448 829.123 84.5312C829.624 84.8112 830.031 85.2018 830.344 85.7031V80.625H833.166ZM825.666 89.7461C825.666 90.7292 825.861 91.5137 826.252 92.0996C826.636 92.6921 827.222 92.9883 828.01 92.9883C828.798 92.9883 829.396 92.6953 829.807 92.1094C830.217 91.5234 830.422 90.765 830.422 89.834C830.422 88.5319 830.093 87.6009 829.436 87.041C829.032 86.7025 828.563 86.5332 828.029 86.5332C827.215 86.5332 826.617 86.8424 826.232 87.4609C825.855 88.0729 825.666 88.8346 825.666 89.7461ZM774.543 123.033L773.85 122.086C773.4 121.513 772.922 120.66 772.414 119.527C771.509 117.503 771.057 115.51 771.057 113.551C771.057 111.767 771.438 109.996 772.199 108.238C772.714 107.04 773.465 105.751 774.455 104.371H776.555L775.959 105.465C775.139 106.969 774.569 108.544 774.25 110.191C774.042 111.272 773.938 112.451 773.938 113.727C773.938 115.719 774.227 117.551 774.807 119.225C775.145 120.214 775.744 121.484 776.604 123.033H774.543ZM783.156 110.416C782.212 110.416 781.564 110.816 781.213 111.617C781.031 112.04 780.939 112.581 780.939 113.238V119H778.166V108.375H780.852V109.928C781.21 109.381 781.548 108.987 781.867 108.746C782.44 108.316 783.166 108.102 784.045 108.102C785.145 108.102 786.044 108.391 786.74 108.971C787.443 109.544 787.795 110.497 787.795 111.832V119H784.943V112.525C784.943 111.965 784.868 111.536 784.719 111.236C784.445 110.689 783.924 110.416 783.156 110.416ZM800.363 110.143V112.711H789.787V110.143H800.363ZM789.787 117.271V114.703H800.363V117.271H789.787ZM804.582 107.662C804.27 108.079 804.12 108.635 804.133 109.332H801.535C801.561 108.629 801.682 107.962 801.896 107.33C802.124 106.777 802.482 106.266 802.971 105.797C803.335 105.465 803.768 105.211 804.27 105.035C804.771 104.859 805.386 104.771 806.115 104.771C807.469 104.771 808.56 105.123 809.387 105.826C810.22 106.523 810.637 107.46 810.637 108.639C810.637 109.472 810.389 110.175 809.895 110.748C809.582 111.106 809.257 111.35 808.918 111.48C809.172 111.48 809.536 111.699 810.012 112.135C810.721 112.792 811.076 113.691 811.076 114.83C811.076 116.028 810.66 117.083 809.826 117.994C808.999 118.899 807.772 119.352 806.145 119.352C804.139 119.352 802.746 118.697 801.965 117.389C801.555 116.692 801.327 115.781 801.281 114.654H804.016C804.016 115.221 804.107 115.689 804.289 116.061C804.628 116.744 805.243 117.086 806.135 117.086C806.682 117.086 807.157 116.9 807.561 116.529C807.971 116.152 808.176 115.611 808.176 114.908C808.176 113.977 807.798 113.355 807.043 113.043C806.613 112.867 805.936 112.779 805.012 112.779V110.787C805.917 110.774 806.548 110.686 806.906 110.523C807.525 110.25 807.834 109.697 807.834 108.863C807.834 108.323 807.674 107.883 807.355 107.545C807.043 107.206 806.6 107.037 806.027 107.037C805.37 107.037 804.888 107.245 804.582 107.662ZM819.455 119H816.604V109.234H813.273V107.34C814.152 107.301 814.768 107.242 815.119 107.164C815.679 107.04 816.135 106.793 816.486 106.422C816.727 106.168 816.91 105.829 817.033 105.406C817.105 105.152 817.141 104.964 817.141 104.84H819.455V119ZM824.768 118.111C823.954 117.278 823.547 116.266 823.547 115.074C823.547 114.28 823.726 113.561 824.084 112.916C824.449 112.271 824.979 111.786 825.676 111.461C824.992 111.005 824.546 110.514 824.338 109.986C824.136 109.452 824.035 108.954 824.035 108.492C824.035 107.464 824.423 106.588 825.197 105.865C825.972 105.136 827.066 104.771 828.479 104.771C829.891 104.771 830.985 105.136 831.76 105.865C832.535 106.588 832.922 107.464 832.922 108.492C832.922 108.954 832.818 109.452 832.609 109.986C832.408 110.514 831.965 110.973 831.281 111.363C831.978 111.754 832.502 112.271 832.854 112.916C833.205 113.561 833.381 114.28 833.381 115.074C833.381 116.266 832.938 117.281 832.053 118.121C831.174 118.954 829.943 119.371 828.361 119.371C826.779 119.371 825.581 118.951 824.768 118.111ZM826.438 114.889C826.438 115.585 826.617 116.126 826.975 116.51C827.339 116.894 827.84 117.086 828.479 117.086C829.117 117.086 829.615 116.894 829.973 116.51C830.337 116.126 830.52 115.585 830.52 114.889C830.52 114.166 830.334 113.619 829.963 113.248C829.598 112.87 829.104 112.682 828.479 112.682C827.854 112.682 827.355 112.87 826.984 113.248C826.62 113.619 826.438 114.166 826.438 114.889ZM827.17 110.064C827.482 110.39 827.919 110.553 828.479 110.553C829.045 110.553 829.481 110.39 829.787 110.064C830.1 109.739 830.256 109.319 830.256 108.805C830.256 108.245 830.1 107.809 829.787 107.496C829.481 107.177 829.045 107.018 828.479 107.018C827.919 107.018 827.479 107.177 827.16 107.496C826.848 107.809 826.691 108.245 826.691 108.805C826.691 109.319 826.851 109.739 827.17 110.064ZM837.111 122.086L836.418 123.033H834.357C835.217 121.484 835.816 120.214 836.154 119.225C836.734 117.551 837.023 115.719 837.023 113.727C837.023 112.451 836.919 111.272 836.711 110.191C836.392 108.544 835.822 106.969 835.002 105.465L834.406 104.371H836.506C837.495 105.751 838.247 107.04 838.762 108.238C839.523 109.996 839.904 111.767 839.904 113.551C839.904 115.51 839.452 117.503 838.547 119.527C838.039 120.66 837.561 121.513 837.111 122.086Z" fill="#67BCFA"/>
<g filter="url(#filter6_ii_23_7819)">
<rect width="155" height="60" rx="12.454" transform="matrix(-1 0 0 1 1048 70)" fill="url(#paint6_linear_23_7819)"/>
</g>
<path d="M964.797 89.3555H961.691V95H958.752V80.6055H965.812C966.822 80.625 967.596 80.7487 968.137 80.9766C968.684 81.2044 969.146 81.5397 969.523 81.9824C969.836 82.347 970.083 82.7507 970.266 83.1934C970.448 83.6361 970.539 84.1406 970.539 84.707C970.539 85.3906 970.367 86.0645 970.021 86.7285C969.676 87.3861 969.107 87.8516 968.312 88.125C968.977 88.3919 969.445 88.7728 969.719 89.2676C969.999 89.7559 970.139 90.5046 970.139 91.5137V92.4805C970.139 93.138 970.165 93.584 970.217 93.8184C970.295 94.1895 970.477 94.4629 970.764 94.6387V95H967.453C967.362 94.681 967.297 94.4238 967.258 94.2285C967.18 93.8249 967.137 93.4115 967.131 92.9883L967.111 91.6504C967.098 90.7324 966.929 90.1204 966.604 89.8145C966.285 89.5085 965.682 89.3555 964.797 89.3555ZM966.623 86.7383C967.222 86.4648 967.521 85.9245 967.521 85.1172C967.521 84.2448 967.232 83.6589 966.652 83.3594C966.327 83.1901 965.839 83.1055 965.188 83.1055H961.691V86.9727H965.1C965.777 86.9727 966.285 86.8945 966.623 86.7383ZM982.6 80.625V95H979.895V93.5254C979.497 94.1569 979.045 94.6159 978.537 94.9023C978.029 95.1888 977.398 95.332 976.643 95.332C975.399 95.332 974.351 94.8307 973.498 93.8281C972.652 92.819 972.229 91.5267 972.229 89.9512C972.229 88.1348 972.645 86.7057 973.479 85.6641C974.318 84.6224 975.438 84.1016 976.838 84.1016C977.482 84.1016 978.055 84.2448 978.557 84.5312C979.058 84.8112 979.465 85.2018 979.777 85.7031V80.625H982.6ZM975.1 89.7461C975.1 90.7292 975.295 91.5137 975.686 92.0996C976.07 92.6921 976.656 92.9883 977.443 92.9883C978.231 92.9883 978.83 92.6953 979.24 92.1094C979.65 91.5234 979.855 90.765 979.855 89.834C979.855 88.5319 979.527 87.6009 978.869 87.041C978.465 86.7025 977.997 86.5332 977.463 86.5332C976.649 86.5332 976.05 86.8424 975.666 87.4609C975.288 88.0729 975.1 88.8346 975.1 89.7461ZM939.543 123.033L938.85 122.086C938.4 121.513 937.922 120.66 937.414 119.527C936.509 117.503 936.057 115.51 936.057 113.551C936.057 111.767 936.438 109.996 937.199 108.238C937.714 107.04 938.465 105.751 939.455 104.371H941.555L940.959 105.465C940.139 106.969 939.569 108.544 939.25 110.191C939.042 111.272 938.938 112.451 938.938 113.727C938.938 115.719 939.227 117.551 939.807 119.225C940.145 120.214 940.744 121.484 941.604 123.033H939.543ZM948.156 110.416C947.212 110.416 946.564 110.816 946.213 111.617C946.031 112.04 945.939 112.581 945.939 113.238V119H943.166V108.375H945.852V109.928C946.21 109.381 946.548 108.987 946.867 108.746C947.44 108.316 948.166 108.102 949.045 108.102C950.145 108.102 951.044 108.391 951.74 108.971C952.443 109.544 952.795 110.497 952.795 111.832V119H949.943V112.525C949.943 111.965 949.868 111.536 949.719 111.236C949.445 110.689 948.924 110.416 948.156 110.416ZM965.363 110.143V112.711H954.787V110.143H965.363ZM954.787 117.271V114.703H965.363V117.271H954.787ZM969.582 107.662C969.27 108.079 969.12 108.635 969.133 109.332H966.535C966.561 108.629 966.682 107.962 966.896 107.33C967.124 106.777 967.482 106.266 967.971 105.797C968.335 105.465 968.768 105.211 969.27 105.035C969.771 104.859 970.386 104.771 971.115 104.771C972.469 104.771 973.56 105.123 974.387 105.826C975.22 106.523 975.637 107.46 975.637 108.639C975.637 109.472 975.389 110.175 974.895 110.748C974.582 111.106 974.257 111.35 973.918 111.48C974.172 111.48 974.536 111.699 975.012 112.135C975.721 112.792 976.076 113.691 976.076 114.83C976.076 116.028 975.66 117.083 974.826 117.994C973.999 118.899 972.772 119.352 971.145 119.352C969.139 119.352 967.746 118.697 966.965 117.389C966.555 116.692 966.327 115.781 966.281 114.654H969.016C969.016 115.221 969.107 115.689 969.289 116.061C969.628 116.744 970.243 117.086 971.135 117.086C971.682 117.086 972.157 116.9 972.561 116.529C972.971 116.152 973.176 115.611 973.176 114.908C973.176 113.977 972.798 113.355 972.043 113.043C971.613 112.867 970.936 112.779 970.012 112.779V110.787C970.917 110.774 971.548 110.686 971.906 110.523C972.525 110.25 972.834 109.697 972.834 108.863C972.834 108.323 972.674 107.883 972.355 107.545C972.043 107.206 971.6 107.037 971.027 107.037C970.37 107.037 969.888 107.245 969.582 107.662ZM984.455 119H981.604V109.234H978.273V107.34C979.152 107.301 979.768 107.242 980.119 107.164C980.679 107.04 981.135 106.793 981.486 106.422C981.727 106.168 981.91 105.829 982.033 105.406C982.105 105.152 982.141 104.964 982.141 104.84H984.455V119ZM996.828 109.391C996.086 110.445 995.464 111.533 994.963 112.652C994.566 113.531 994.208 114.605 993.889 115.875C993.57 117.145 993.41 118.186 993.41 119H990.52C990.604 116.461 991.438 113.821 993.02 111.08C994.042 109.381 994.898 108.196 995.588 107.525H988.527L988.566 105.025H998.566V107.203C998.15 107.613 997.57 108.342 996.828 109.391ZM1002.11 122.086L1001.42 123.033H999.357C1000.22 121.484 1000.82 120.214 1001.15 119.225C1001.73 117.551 1002.02 115.719 1002.02 113.727C1002.02 112.451 1001.92 111.272 1001.71 110.191C1001.39 108.544 1000.82 106.969 1000 105.465L999.406 104.371H1001.51C1002.5 105.751 1003.25 107.04 1003.76 108.238C1004.52 109.996 1004.9 111.767 1004.9 113.551C1004.9 115.51 1004.45 117.503 1003.55 119.527C1003.04 120.66 1002.56 121.513 1002.11 122.086Z" fill="#67BCFA"/>
<defs>
<filter id="filter0_ii_23_7819" x="-1.66053" y="-1.66053" width="391.321" height="134.151" filterUnits="userSpaceOnUse" color-interpolation-filters="sRGB">
<feFlood flood-opacity="0" result="BackgroundImageFix"/>
<feBlend mode="normal" in="SourceGraphic" in2="BackgroundImageFix" result="shape"/>
<feColorMatrix in="SourceAlpha" type="matrix" values="0 0 0 0 0 0 0 0 0 0 0 0 0 0 0 0 0 0 127 0" result="hardAlpha"/>
<feOffset dx="1.66053" dy="2.49079"/>
<feGaussianBlur stdDeviation="4.15132"/>
<feComposite in2="hardAlpha" operator="arithmetic" k2="-1" k3="1"/>
<feColorMatrix type="matrix" values="0 0 0 0 0.0255 0 0 0 0 0.0285361 0 0 0 0 0.0345 0 0 0 1 0"/>
<feBlend mode="normal" in2="shape" result="effect1_innerShadow_23_7819"/>
<feColorMatrix in="SourceAlpha" type="matrix" values="0 0 0 0 0 0 0 0 0 0 0 0 0 0 0 0 0 0 127 0" result="hardAlpha"/>
<feOffset dx="-1.66053" dy="-1.66053"/>
<feGaussianBlur stdDeviation="4.15132"/>
<feComposite in2="hardAlpha" operator="arithmetic" k2="-1" k3="1"/>
<feColorMatrix type="matrix" values="0 0 0 0 1 0 0 0 0 1 0 0 0 0 1 0 0 0 0.05 0"/>
<feBlend mode="normal" in2="effect1_innerShadow_23_7819" result="effect2_innerShadow_23_7819"/>
</filter>
<filter id="filter1_ii_23_7819" x="396.339" y="-1.66053" width="323.321" height="64.1513" filterUnits="userSpaceOnUse" color-interpolation-filters="sRGB">
<feFlood flood-opacity="0" result="BackgroundImageFix"/>
<feBlend mode="normal" in="SourceGraphic" in2="BackgroundImageFix" result="shape"/>
<feColorMatrix in="SourceAlpha" type="matrix" values="0 0 0 0 0 0 0 0 0 0 0 0 0 0 0 0 0 0 127 0" result="hardAlpha"/>
<feOffset dx="1.66053" dy="2.49079"/>
<feGaussianBlur stdDeviation="4.15132"/>
<feComposite in2="hardAlpha" operator="arithmetic" k2="-1" k3="1"/>
<feColorMatrix type="matrix" values="0 0 0 0 0.0255 0 0 0 0 0.0285361 0 0 0 0 0.0345 0 0 0 1 0"/>
<feBlend mode="normal" in2="shape" result="effect1_innerShadow_23_7819"/>
<feColorMatrix in="SourceAlpha" type="matrix" values="0 0 0 0 0 0 0 0 0 0 0 0 0 0 0 0 0 0 127 0" result="hardAlpha"/>
<feOffset dx="-1.66053" dy="-1.66053"/>
<feGaussianBlur stdDeviation="4.15132"/>
<feComposite in2="hardAlpha" operator="arithmetic" k2="-1" k3="1"/>
<feColorMatrix type="matrix" values="0 0 0 0 1 0 0 0 0 1 0 0 0 0 1 0 0 0 0.05 0"/>
<feBlend mode="normal" in2="effect1_innerShadow_23_7819" result="effect2_innerShadow_23_7819"/>
</filter>
<filter id="filter2_ii_23_7819" x="396.339" y="68.3395" width="158.321" height="64.1513" filterUnits="userSpaceOnUse" color-interpolation-filters="sRGB">
<feFlood flood-opacity="0" result="BackgroundImageFix"/>
<feBlend mode="normal" in="SourceGraphic" in2="BackgroundImageFix" result="shape"/>
<feColorMatrix in="SourceAlpha" type="matrix" values="0 0 0 0 0 0 0 0 0 0 0 0 0 0 0 0 0 0 127 0" result="hardAlpha"/>
<feOffset dx="1.66053" dy="2.49079"/>
<feGaussianBlur stdDeviation="4.15132"/>
<feComposite in2="hardAlpha" operator="arithmetic" k2="-1" k3="1"/>
<feColorMatrix type="matrix" values="0 0 0 0 0.0255 0 0 0 0 0.0285361 0 0 0 0 0.0345 0 0 0 1 0"/>
<feBlend mode="normal" in2="shape" result="effect1_innerShadow_23_7819"/>
<feColorMatrix in="SourceAlpha" type="matrix" values="0 0 0 0 0 0 0 0 0 0 0 0 0 0 0 0 0 0 127 0" result="hardAlpha"/>
<feOffset dx="-1.66053" dy="-1.66053"/>
<feGaussianBlur stdDeviation="4.15132"/>
<feComposite in2="hardAlpha" operator="arithmetic" k2="-1" k3="1"/>
<feColorMatrix type="matrix" values="0 0 0 0 1 0 0 0 0 1 0 0 0 0 1 0 0 0 0.05 0"/>
<feBlend mode="normal" in2="effect1_innerShadow_23_7819" result="effect2_innerShadow_23_7819"/>
</filter>
<filter id="filter3_ii_23_7819" x="561.339" y="68.3395" width="158.321" height="64.1513" filterUnits="userSpaceOnUse" color-interpolation-filters="sRGB">
<feFlood flood-opacity="0" result="BackgroundImageFix"/>
<feBlend mode="normal" in="SourceGraphic" in2="BackgroundImageFix" result="shape"/>
<feColorMatrix in="SourceAlpha" type="matrix" values="0 0 0 0 0 0 0 0 0 0 0 0 0 0 0 0 0 0 127 0" result="hardAlpha"/>
<feOffset dx="1.66053" dy="2.49079"/>
<feGaussianBlur stdDeviation="4.15132"/>
<feComposite in2="hardAlpha" operator="arithmetic" k2="-1" k3="1"/>
<feColorMatrix type="matrix" values="0 0 0 0 0.0255 0 0 0 0 0.0285361 0 0 0 0 0.0345 0 0 0 1 0"/>
<feBlend mode="normal" in2="shape" result="effect1_innerShadow_23_7819"/>
<feColorMatrix in="SourceAlpha" type="matrix" values="0 0 0 0 0 0 0 0 0 0 0 0 0 0 0 0 0 0 127 0" result="hardAlpha"/>
<feOffset dx="-1.66053" dy="-1.66053"/>
<feGaussianBlur stdDeviation="4.15132"/>
<feComposite in2="hardAlpha" operator="arithmetic" k2="-1" k3="1"/>
<feColorMatrix type="matrix" values="0 0 0 0 1 0 0 0 0 1 0 0 0 0 1 0 0 0 0.05 0"/>
<feBlend mode="normal" in2="effect1_innerShadow_23_7819" result="effect2_innerShadow_23_7819"/>
</filter>
<filter id="filter4_ii_23_7819" x="726.339" y="-1.66053" width="323.321" height="64.1513" filterUnits="userSpaceOnUse" color-interpolation-filters="sRGB">
<feFlood flood-opacity="0" result="BackgroundImageFix"/>
<feBlend mode="normal" in="SourceGraphic" in2="BackgroundImageFix" result="shape"/>
<feColorMatrix in="SourceAlpha" type="matrix" values="0 0 0 0 0 0 0 0 0 0 0 0 0 0 0 0 0 0 127 0" result="hardAlpha"/>
<feOffset dx="1.66053" dy="2.49079"/>
<feGaussianBlur stdDeviation="4.15132"/>
<feComposite in2="hardAlpha" operator="arithmetic" k2="-1" k3="1"/>
<feColorMatrix type="matrix" values="0 0 0 0 0.0255 0 0 0 0 0.0285361 0 0 0 0 0.0345 0 0 0 1 0"/>
<feBlend mode="normal" in2="shape" result="effect1_innerShadow_23_7819"/>
<feColorMatrix in="SourceAlpha" type="matrix" values="0 0 0 0 0 0 0 0 0 0 0 0 0 0 0 0 0 0 127 0" result="hardAlpha"/>
<feOffset dx="-1.66053" dy="-1.66053"/>
<feGaussianBlur stdDeviation="4.15132"/>
<feComposite in2="hardAlpha" operator="arithmetic" k2="-1" k3="1"/>
<feColorMatrix type="matrix" values="0 0 0 0 1 0 0 0 0 1 0 0 0 0 1 0 0 0 0.05 0"/>
<feBlend mode="normal" in2="effect1_innerShadow_23_7819" result="effect2_innerShadow_23_7819"/>
</filter>
<filter id="filter5_ii_23_7819" x="726.339" y="68.3395" width="158.321" height="64.1513" filterUnits="userSpaceOnUse" color-interpolation-filters="sRGB">
<feFlood flood-opacity="0" result="BackgroundImageFix"/>
<feBlend mode="normal" in="SourceGraphic" in2="BackgroundImageFix" result="shape"/>
<feColorMatrix in="SourceAlpha" type="matrix" values="0 0 0 0 0 0 0 0 0 0 0 0 0 0 0 0 0 0 127 0" result="hardAlpha"/>
<feOffset dx="1.66053" dy="2.49079"/>
<feGaussianBlur stdDeviation="4.15132"/>
<feComposite in2="hardAlpha" operator="arithmetic" k2="-1" k3="1"/>
<feColorMatrix type="matrix" values="0 0 0 0 0.0255 0 0 0 0 0.0285361 0 0 0 0 0.0345 0 0 0 1 0"/>
<feBlend mode="normal" in2="shape" result="effect1_innerShadow_23_7819"/>
<feColorMatrix in="SourceAlpha" type="matrix" values="0 0 0 0 0 0 0 0 0 0 0 0 0 0 0 0 0 0 127 0" result="hardAlpha"/>
<feOffset dx="-1.66053" dy="-1.66053"/>
<feGaussianBlur stdDeviation="4.15132"/>
<feComposite in2="hardAlpha" operator="arithmetic" k2="-1" k3="1"/>
<feColorMatrix type="matrix" values="0 0 0 0 1 0 0 0 0 1 0 0 0 0 1 0 0 0 0.05 0"/>
<feBlend mode="normal" in2="effect1_innerShadow_23_7819" result="effect2_innerShadow_23_7819"/>
</filter>
<filter id="filter6_ii_23_7819" x="891.339" y="68.3395" width="158.321" height="64.1513" filterUnits="userSpaceOnUse" color-interpolation-filters="sRGB">
<feFlood flood-opacity="0" result="BackgroundImageFix"/>
<feBlend mode="normal" in="SourceGraphic" in2="BackgroundImageFix" result="shape"/>
<feColorMatrix in="SourceAlpha" type="matrix" values="0 0 0 0 0 0 0 0 0 0 0 0 0 0 0 0 0 0 127 0" result="hardAlpha"/>
<feOffset dx="1.66053" dy="2.49079"/>
<feGaussianBlur stdDeviation="4.15132"/>
<feComposite in2="hardAlpha" operator="arithmetic" k2="-1" k3="1"/>
<feColorMatrix type="matrix" values="0 0 0 0 0.0255 0 0 0 0 0.0285361 0 0 0 0 0.0345 0 0 0 1 0"/>
<feBlend mode="normal" in2="shape" result="effect1_innerShadow_23_7819"/>
<feColorMatrix in="SourceAlpha" type="matrix" values="0 0 0 0 0 0 0 0 0 0 0 0 0 0 0 0 0 0 127 0" result="hardAlpha"/>
<feOffset dx="-1.66053" dy="-1.66053"/>
<feGaussianBlur stdDeviation="4.15132"/>
<feComposite in2="hardAlpha" operator="arithmetic" k2="-1" k3="1"/>
<feColorMatrix type="matrix" values="0 0 0 0 1 0 0 0 0 1 0 0 0 0 1 0 0 0 0.05 0"/>
<feBlend mode="normal" in2="effect1_innerShadow_23_7819" result="effect2_innerShadow_23_7819"/>
</filter>
<linearGradient id="paint0_linear_23_7819" x1="737.893" y1="186.875" x2="492.206" y2="-239.643" gradientUnits="userSpaceOnUse">
<stop stop-color="#494D51"/>
<stop offset="0.962135" stop-color="#2D3035"/>
</linearGradient>
<linearGradient id="paint1_linear_23_7819" x1="608.571" y1="86.25" x2="532.014" y2="-151.244" gradientUnits="userSpaceOnUse">
<stop stop-color="#494D51"/>
<stop offset="0.962135" stop-color="#2D3035"/>
</linearGradient>
<linearGradient id="paint2_linear_23_7819" x1="294.777" y1="86.25" x2="173.855" y2="-95.4485" gradientUnits="userSpaceOnUse">
<stop stop-color="#494D51"/>
<stop offset="0.962135" stop-color="#2D3035"/>
</linearGradient>
<linearGradient id="paint3_linear_23_7819" x1="294.777" y1="86.25" x2="173.855" y2="-95.4485" gradientUnits="userSpaceOnUse">
<stop stop-color="#494D51"/>
<stop offset="0.962135" stop-color="#2D3035"/>
</linearGradient>
<linearGradient id="paint4_linear_23_7819" x1="608.571" y1="86.25" x2="532.014" y2="-151.244" gradientUnits="userSpaceOnUse">
<stop stop-color="#494D51"/>
<stop offset="0.962135" stop-color="#2D3035"/>
</linearGradient>
<linearGradient id="paint5_linear_23_7819" x1="294.777" y1="86.25" x2="173.855" y2="-95.4485" gradientUnits="userSpaceOnUse">
<stop stop-color="#494D51"/>
<stop offset="0.962135" stop-color="#2D3035"/>
</linearGradient>
<linearGradient id="paint6_linear_23_7819" x1="294.777" y1="86.25" x2="173.855" y2="-95.4485" gradientUnits="userSpaceOnUse">
<stop stop-color="#494D51"/>
<stop offset="0.962135" stop-color="#2D3035"/>
</linearGradient>
</defs>
</svg>
